M48
METRIC,LZ,000.000
;FILE_FORMAT=3:3
;TYPE=PLATED
;Layer: PTH_Through
;EasyEDA v6.5.39, 2024-01-29 12:40:10
;1567c4b6a1884de9a48abf35515e7f19,8c112253a0c947cbb1dd5c82d68696a1,10
;Gerber Generator version 0.2
;Holesize 1 = 0.306 mm
T01C0.306
;Holesize 2 = 0.701 mm
T02C0.701
;Holesize 3 = 0.915 mm
T03C0.915
;Holesize 4 = 1.000 mm
T04C1.000
;Holesize 5 = 1.021 mm
T05C1.021
;Holesize 6 = 1.050 mm
T06C1.050
;Holesize 7 = 1.101 mm
T07C1.101
%
G05
G90
T01
X014718Y049431
T02
X022098Y054440
X022098Y064940
T03
X025620Y008220
X025620Y010760
X025620Y013300
X025620Y015840
X025620Y018380
X025620Y020920
X025620Y023460
X025620Y026000
X025620Y028540
X025620Y031080
X025620Y033620
X025620Y036160
X025620Y038700
X025620Y041240
X025620Y043780
X010380Y043780
X010380Y041240
X010380Y038700
X010380Y036160
X010380Y033620
X010380Y031080
X010380Y028540
X010380Y026000
X010380Y023460
X010380Y020920
X010380Y018380
X010380Y015840
X010380Y013300
X010380Y010760
X010380Y008220
T04
X019150Y070000
X008850Y070000
X019150Y065000
X008850Y065000
T05
X005000Y071540
X005000Y069000
X005000Y066460
T06
X031000Y008220
X031000Y010760
X031000Y013300
X031000Y015840
X031000Y018380
X031000Y020920
X031000Y023460
X031000Y026000
X031000Y028540
X031000Y031080
X031000Y033620
X031000Y036160
X031000Y038700
X031000Y041240
X031000Y043780
X005000Y008220
X005000Y010760
X005000Y013300
X005000Y015840
X005000Y018380
X005000Y020920
X005000Y023460
X005000Y026000
X005000Y028540
X005000Y031080
X005000Y033620
X005000Y036160
X005000Y038700
X005000Y041240
X005000Y043780
T07
X028730Y082810
X031270Y082810
X028730Y080270
X031270Y080270
X028730Y077730
X031270Y077730
X028730Y075190
X031270Y075190
X020730Y082810
X023270Y082810
X020730Y080270
X023270Y080270
X020730Y077730
X023270Y077730
X020730Y075190
X023270Y075190
X005000Y053190
X005000Y055730
X005000Y058270
X005000Y060810
X012730Y082540
X015270Y082540
X012730Y080000
X015270Y080000
X012730Y077460
X015270Y077460
X004730Y082540
X007270Y082540
X004730Y080000
X007270Y080000
X004730Y077460
X007270Y077460
X031000Y055460
X031000Y058000
X031000Y060540
M30
