G04 Layer: BottomLayer*
G04 EasyEDA v6.5.39, 2024-01-29 12:40:10*
G04 1567c4b6a1884de9a48abf35515e7f19,8c112253a0c947cbb1dd5c82d68696a1,10*
G04 Gerber Generator version 0.2*
G04 Scale: 100 percent, Rotated: No, Reflected: No *
G04 Dimensions in millimeters *
G04 leading zeros omitted , absolute positions ,4 integer and 5 decimal *
%FSLAX45Y45*%
%MOMM*%

%ADD10C,0.2540*%
%ADD11C,0.5020*%
%ADD12R,1.7000X1.7000*%
%ADD13C,1.7000*%
%ADD14R,1.6000X1.6000*%
%ADD15C,1.6000*%
%ADD16C,1.4000*%
%ADD17C,1.5240*%
%ADD18C,1.8000*%
%ADD19R,1.8000X1.8000*%
%ADD20C,0.6100*%
%ADD21C,0.0163*%

%LPD*%
G36*
X36068Y25908D02*
G01*
X32156Y26670D01*
X28905Y28905D01*
X26670Y32156D01*
X25908Y36068D01*
X25908Y8963914D01*
X26670Y8967825D01*
X28905Y8971076D01*
X32156Y8973312D01*
X36068Y8974074D01*
X3563924Y8974074D01*
X3567836Y8973312D01*
X3571087Y8971076D01*
X3573322Y8967825D01*
X3574084Y8963914D01*
X3574084Y36068D01*
X3573322Y32156D01*
X3571087Y28905D01*
X3567836Y26670D01*
X3563924Y25908D01*
G37*

%LPC*%
G36*
X3399993Y72491D02*
G01*
X3415385Y73456D01*
X3430524Y76200D01*
X3445205Y80772D01*
X3459226Y87122D01*
X3472434Y95097D01*
X3484524Y104597D01*
X3495395Y115468D01*
X3504895Y127558D01*
X3512870Y140766D01*
X3519220Y154787D01*
X3523792Y169468D01*
X3526536Y184607D01*
X3527501Y199999D01*
X3526536Y215392D01*
X3523792Y230530D01*
X3519220Y245211D01*
X3512870Y259232D01*
X3504895Y272440D01*
X3495395Y284530D01*
X3484524Y295402D01*
X3472434Y304901D01*
X3459226Y312877D01*
X3445205Y319227D01*
X3430524Y323799D01*
X3415385Y326542D01*
X3399993Y327507D01*
X3384600Y326542D01*
X3369462Y323799D01*
X3354781Y319227D01*
X3340760Y312877D01*
X3327552Y304901D01*
X3315462Y295402D01*
X3304590Y284530D01*
X3295091Y272440D01*
X3287115Y259232D01*
X3280765Y245211D01*
X3276193Y230530D01*
X3273450Y215392D01*
X3272485Y199999D01*
X3273450Y184607D01*
X3276193Y169468D01*
X3280765Y154787D01*
X3287115Y140766D01*
X3295091Y127558D01*
X3304590Y115468D01*
X3315462Y104597D01*
X3327552Y95097D01*
X3340760Y87122D01*
X3354781Y80772D01*
X3369462Y76200D01*
X3384600Y73456D01*
G37*
G36*
X199999Y72491D02*
G01*
X215392Y73456D01*
X230530Y76200D01*
X245211Y80772D01*
X259232Y87122D01*
X272440Y95097D01*
X284530Y104597D01*
X295402Y115468D01*
X304901Y127558D01*
X312877Y140766D01*
X319227Y154787D01*
X323799Y169468D01*
X326542Y184607D01*
X327507Y199999D01*
X326542Y215392D01*
X323799Y230530D01*
X319227Y245211D01*
X312877Y259232D01*
X304901Y272440D01*
X295402Y284530D01*
X284530Y295402D01*
X272440Y304901D01*
X259232Y312877D01*
X245211Y319227D01*
X230530Y323799D01*
X215392Y326542D01*
X199999Y327507D01*
X184607Y326542D01*
X169468Y323799D01*
X154787Y319227D01*
X140766Y312877D01*
X127558Y304901D01*
X115468Y295402D01*
X104597Y284530D01*
X95097Y272440D01*
X87122Y259232D01*
X80772Y245211D01*
X76200Y230530D01*
X73456Y215392D01*
X72491Y199999D01*
X73456Y184607D01*
X76200Y169468D01*
X80772Y154787D01*
X87122Y140766D01*
X95097Y127558D01*
X104597Y115468D01*
X115468Y104597D01*
X127558Y95097D01*
X140766Y87122D01*
X154787Y80772D01*
X169468Y76200D01*
X184607Y73456D01*
G37*
G36*
X3020568Y716076D02*
G01*
X3179419Y716076D01*
X3185769Y716788D01*
X3191205Y718718D01*
X3196082Y721766D01*
X3200196Y725881D01*
X3203295Y730758D01*
X3205175Y736244D01*
X3205886Y742543D01*
X3205886Y901446D01*
X3205175Y907745D01*
X3203295Y913231D01*
X3200196Y918108D01*
X3196082Y922223D01*
X3191205Y925271D01*
X3185769Y927201D01*
X3179419Y927912D01*
X3020568Y927912D01*
X3014218Y927201D01*
X3008782Y925271D01*
X3003905Y922223D01*
X2999790Y918108D01*
X2996692Y913231D01*
X2994812Y907745D01*
X2994101Y901446D01*
X2994101Y870762D01*
X2993288Y866902D01*
X2991104Y863600D01*
X2987802Y861364D01*
X2983941Y860602D01*
X2662834Y860602D01*
X2659075Y861314D01*
X2655874Y863396D01*
X2653639Y866495D01*
X2651506Y871067D01*
X2644190Y882548D01*
X2635351Y892962D01*
X2625242Y902106D01*
X2614015Y909828D01*
X2601823Y915974D01*
X2588971Y920445D01*
X2575610Y923188D01*
X2561996Y924102D01*
X2548382Y923188D01*
X2535021Y920445D01*
X2522118Y915974D01*
X2509977Y909828D01*
X2498750Y902106D01*
X2488590Y892962D01*
X2479802Y882548D01*
X2472486Y871067D01*
X2466746Y858672D01*
X2462682Y845667D01*
X2460396Y832205D01*
X2459990Y818591D01*
X2461310Y805027D01*
X2464511Y791768D01*
X2469388Y779018D01*
X2475941Y767080D01*
X2484018Y756107D01*
X2493518Y746302D01*
X2504236Y737819D01*
X2515971Y730859D01*
X2528519Y725576D01*
X2541676Y721969D01*
X2555189Y720140D01*
X2568803Y720140D01*
X2582316Y721969D01*
X2595473Y725576D01*
X2608021Y730859D01*
X2619756Y737819D01*
X2630474Y746302D01*
X2639974Y756107D01*
X2648051Y767080D01*
X2654096Y778103D01*
X2656382Y780897D01*
X2659481Y782726D01*
X2662986Y783386D01*
X2983941Y783386D01*
X2987802Y782624D01*
X2991104Y780389D01*
X2993288Y777138D01*
X2994101Y773226D01*
X2994101Y742543D01*
X2994812Y736244D01*
X2996692Y730758D01*
X2999790Y725881D01*
X3003905Y721766D01*
X3008782Y718718D01*
X3014218Y716788D01*
G37*
G36*
X420573Y716076D02*
G01*
X579424Y716076D01*
X585774Y716788D01*
X591210Y718718D01*
X596087Y721766D01*
X600202Y725881D01*
X603300Y730758D01*
X605180Y736244D01*
X605891Y742543D01*
X605891Y773226D01*
X606704Y777138D01*
X608888Y780389D01*
X612190Y782624D01*
X616051Y783386D01*
X937006Y783386D01*
X940511Y782726D01*
X943610Y780897D01*
X945896Y778103D01*
X951941Y767080D01*
X960018Y756107D01*
X969518Y746302D01*
X980236Y737819D01*
X991971Y730859D01*
X1004519Y725576D01*
X1017676Y721969D01*
X1031189Y720140D01*
X1044803Y720140D01*
X1058316Y721969D01*
X1071473Y725576D01*
X1084021Y730859D01*
X1095756Y737819D01*
X1106474Y746302D01*
X1115974Y756107D01*
X1124051Y767080D01*
X1130604Y779018D01*
X1135481Y791768D01*
X1138682Y805027D01*
X1140002Y818591D01*
X1139596Y832205D01*
X1137310Y845667D01*
X1133246Y858672D01*
X1127506Y871067D01*
X1120190Y882548D01*
X1111402Y892962D01*
X1101242Y902106D01*
X1090015Y909828D01*
X1077874Y915974D01*
X1064971Y920445D01*
X1051610Y923188D01*
X1037996Y924102D01*
X1024382Y923188D01*
X1011021Y920445D01*
X998169Y915974D01*
X985977Y909828D01*
X974750Y902106D01*
X964641Y892962D01*
X955802Y882548D01*
X948486Y871067D01*
X946353Y866495D01*
X944118Y863396D01*
X940917Y861314D01*
X937158Y860602D01*
X616051Y860602D01*
X612190Y861364D01*
X608888Y863600D01*
X606704Y866902D01*
X605891Y870762D01*
X605891Y901446D01*
X605180Y907745D01*
X603300Y913231D01*
X600202Y918108D01*
X596087Y922223D01*
X591210Y925271D01*
X585774Y927201D01*
X579424Y927912D01*
X420573Y927912D01*
X414223Y927201D01*
X408787Y925271D01*
X403910Y922223D01*
X399796Y918108D01*
X396697Y913231D01*
X394817Y907745D01*
X394106Y901446D01*
X394106Y742543D01*
X394817Y736244D01*
X396697Y730758D01*
X399796Y725881D01*
X403910Y721766D01*
X408787Y718718D01*
X414223Y716788D01*
G37*
G36*
X3099968Y970127D02*
G01*
X3113836Y970991D01*
X3127400Y973734D01*
X3140506Y978153D01*
X3152952Y984300D01*
X3164433Y991971D01*
X3174847Y1001115D01*
X3183991Y1011529D01*
X3191713Y1023061D01*
X3197809Y1035456D01*
X3202279Y1048613D01*
X3204972Y1062177D01*
X3205886Y1075994D01*
X3204972Y1089812D01*
X3202279Y1103376D01*
X3197809Y1116533D01*
X3191713Y1128928D01*
X3183991Y1140460D01*
X3174847Y1150874D01*
X3164433Y1160018D01*
X3152952Y1167688D01*
X3140506Y1173835D01*
X3127400Y1178255D01*
X3113836Y1180998D01*
X3099968Y1181862D01*
X3086150Y1180998D01*
X3072587Y1178255D01*
X3059480Y1173835D01*
X3047034Y1167688D01*
X3035554Y1160018D01*
X3025140Y1150874D01*
X3015996Y1140460D01*
X3010001Y1131519D01*
X3007766Y1129080D01*
X3004820Y1127556D01*
X3001568Y1126998D01*
X2655824Y1126998D01*
X2652522Y1127556D01*
X2649524Y1129182D01*
X2647289Y1131722D01*
X2644190Y1136548D01*
X2635351Y1146962D01*
X2625242Y1156106D01*
X2614015Y1163828D01*
X2601823Y1169974D01*
X2588971Y1174445D01*
X2575610Y1177188D01*
X2561996Y1178102D01*
X2548382Y1177188D01*
X2535021Y1174445D01*
X2522118Y1169974D01*
X2509977Y1163828D01*
X2498750Y1156106D01*
X2488590Y1146962D01*
X2479802Y1136548D01*
X2472486Y1125067D01*
X2466746Y1112672D01*
X2462682Y1099667D01*
X2460396Y1086205D01*
X2459990Y1072591D01*
X2461310Y1059027D01*
X2464511Y1045768D01*
X2469388Y1033018D01*
X2475941Y1021080D01*
X2484018Y1010107D01*
X2493518Y1000302D01*
X2504236Y991819D01*
X2515971Y984859D01*
X2528519Y979576D01*
X2541676Y975969D01*
X2555189Y974140D01*
X2568803Y974140D01*
X2582316Y975969D01*
X2595473Y979576D01*
X2608021Y984859D01*
X2619756Y991819D01*
X2630474Y1000302D01*
X2639974Y1010107D01*
X2647899Y1020876D01*
X2650134Y1023061D01*
X2652928Y1024483D01*
X2656078Y1024991D01*
X3001568Y1024991D01*
X3004820Y1024432D01*
X3007766Y1022908D01*
X3010001Y1020470D01*
X3015996Y1011529D01*
X3025140Y1001115D01*
X3035554Y991971D01*
X3047034Y984300D01*
X3059480Y978153D01*
X3072587Y973734D01*
X3086150Y970991D01*
G37*
G36*
X500024Y970127D02*
G01*
X513842Y970991D01*
X527405Y973734D01*
X540512Y978153D01*
X552958Y984300D01*
X564438Y991971D01*
X574852Y1001115D01*
X583996Y1011529D01*
X591718Y1023061D01*
X595985Y1031748D01*
X598220Y1034745D01*
X601421Y1036675D01*
X605078Y1037386D01*
X937006Y1037386D01*
X940511Y1036726D01*
X943610Y1034897D01*
X945896Y1032103D01*
X951941Y1021080D01*
X960018Y1010107D01*
X969518Y1000302D01*
X980236Y991819D01*
X991971Y984859D01*
X1004519Y979576D01*
X1017676Y975969D01*
X1031189Y974140D01*
X1044803Y974140D01*
X1058316Y975969D01*
X1071473Y979576D01*
X1084021Y984859D01*
X1095756Y991819D01*
X1106474Y1000302D01*
X1115974Y1010107D01*
X1124051Y1021080D01*
X1130604Y1033018D01*
X1135481Y1045768D01*
X1138682Y1059027D01*
X1140002Y1072591D01*
X1139596Y1086205D01*
X1137310Y1099667D01*
X1133246Y1112672D01*
X1127506Y1125067D01*
X1120190Y1136548D01*
X1111402Y1146962D01*
X1101242Y1156106D01*
X1090015Y1163828D01*
X1077874Y1169974D01*
X1064971Y1174445D01*
X1051610Y1177188D01*
X1037996Y1178102D01*
X1024382Y1177188D01*
X1011021Y1174445D01*
X998169Y1169974D01*
X985977Y1163828D01*
X974750Y1156106D01*
X964641Y1146962D01*
X955802Y1136548D01*
X948486Y1125067D01*
X946353Y1120495D01*
X944118Y1117396D01*
X940917Y1115314D01*
X937158Y1114602D01*
X605078Y1114602D01*
X601421Y1115314D01*
X598220Y1117295D01*
X595985Y1120292D01*
X591718Y1128928D01*
X583996Y1140460D01*
X574852Y1150874D01*
X564438Y1160018D01*
X552958Y1167688D01*
X540512Y1173835D01*
X527405Y1178255D01*
X513842Y1180998D01*
X500024Y1181862D01*
X486156Y1180998D01*
X472592Y1178255D01*
X459485Y1173835D01*
X447040Y1167688D01*
X435559Y1160018D01*
X425145Y1150874D01*
X416001Y1140460D01*
X408279Y1128928D01*
X402183Y1116533D01*
X397713Y1103376D01*
X395020Y1089812D01*
X394106Y1075994D01*
X395020Y1062177D01*
X397713Y1048613D01*
X402183Y1035456D01*
X408279Y1023061D01*
X416001Y1011529D01*
X425145Y1001115D01*
X435559Y991971D01*
X447040Y984300D01*
X459485Y978153D01*
X472592Y973734D01*
X486156Y970991D01*
G37*
G36*
X3099968Y1224127D02*
G01*
X3113836Y1224991D01*
X3127400Y1227734D01*
X3140506Y1232154D01*
X3152952Y1238300D01*
X3164433Y1245971D01*
X3174847Y1255115D01*
X3183991Y1265529D01*
X3191713Y1277061D01*
X3197809Y1289456D01*
X3202279Y1302613D01*
X3204972Y1316177D01*
X3205886Y1329994D01*
X3204972Y1343812D01*
X3202279Y1357376D01*
X3197809Y1370533D01*
X3191713Y1382928D01*
X3183991Y1394460D01*
X3174847Y1404874D01*
X3164433Y1414018D01*
X3152952Y1421688D01*
X3140506Y1427835D01*
X3127400Y1432255D01*
X3113836Y1434998D01*
X3099968Y1435862D01*
X3086150Y1434998D01*
X3072587Y1432255D01*
X3059480Y1427835D01*
X3047034Y1421688D01*
X3035554Y1414018D01*
X3025140Y1404874D01*
X3015996Y1394460D01*
X3008274Y1382928D01*
X3004007Y1374292D01*
X3001772Y1371295D01*
X2998571Y1369314D01*
X2994914Y1368602D01*
X2662834Y1368602D01*
X2659075Y1369314D01*
X2655874Y1371396D01*
X2653639Y1374495D01*
X2651506Y1379067D01*
X2644190Y1390548D01*
X2635351Y1400962D01*
X2625242Y1410106D01*
X2614015Y1417828D01*
X2601823Y1423974D01*
X2588971Y1428445D01*
X2575610Y1431188D01*
X2561996Y1432102D01*
X2548382Y1431188D01*
X2535021Y1428445D01*
X2522118Y1423974D01*
X2509977Y1417828D01*
X2498750Y1410106D01*
X2488590Y1400962D01*
X2479802Y1390548D01*
X2472486Y1379067D01*
X2466746Y1366672D01*
X2462682Y1353667D01*
X2460396Y1340205D01*
X2459990Y1326591D01*
X2461310Y1313027D01*
X2464511Y1299768D01*
X2469388Y1287018D01*
X2475941Y1275080D01*
X2484018Y1264107D01*
X2493518Y1254302D01*
X2504236Y1245819D01*
X2515971Y1238859D01*
X2528519Y1233576D01*
X2541676Y1229969D01*
X2555189Y1228140D01*
X2568803Y1228140D01*
X2582316Y1229969D01*
X2595473Y1233576D01*
X2608021Y1238859D01*
X2619756Y1245819D01*
X2630474Y1254302D01*
X2639974Y1264107D01*
X2648051Y1275080D01*
X2654096Y1286103D01*
X2656382Y1288897D01*
X2659481Y1290726D01*
X2662986Y1291386D01*
X2994914Y1291386D01*
X2998571Y1290675D01*
X3001772Y1288745D01*
X3004007Y1285748D01*
X3008274Y1277061D01*
X3015996Y1265529D01*
X3025140Y1255115D01*
X3035554Y1245971D01*
X3047034Y1238300D01*
X3059480Y1232154D01*
X3072587Y1227734D01*
X3086150Y1224991D01*
G37*
G36*
X500024Y1224127D02*
G01*
X513842Y1224991D01*
X527405Y1227734D01*
X540512Y1232154D01*
X552958Y1238300D01*
X564438Y1245971D01*
X574852Y1255115D01*
X583996Y1265529D01*
X591718Y1277061D01*
X595985Y1285748D01*
X598220Y1288745D01*
X601421Y1290675D01*
X605078Y1291386D01*
X937006Y1291386D01*
X940511Y1290726D01*
X943610Y1288897D01*
X945896Y1286103D01*
X951941Y1275080D01*
X960018Y1264107D01*
X969518Y1254302D01*
X980236Y1245819D01*
X991971Y1238859D01*
X1004519Y1233576D01*
X1017676Y1229969D01*
X1031189Y1228140D01*
X1044803Y1228140D01*
X1058316Y1229969D01*
X1071473Y1233576D01*
X1084021Y1238859D01*
X1095756Y1245819D01*
X1106474Y1254302D01*
X1115974Y1264107D01*
X1124051Y1275080D01*
X1130604Y1287018D01*
X1135481Y1299768D01*
X1138682Y1313027D01*
X1140002Y1326591D01*
X1139596Y1340205D01*
X1137310Y1353667D01*
X1133246Y1366672D01*
X1127506Y1379067D01*
X1120190Y1390548D01*
X1111402Y1400962D01*
X1101242Y1410106D01*
X1090015Y1417828D01*
X1077874Y1423974D01*
X1064971Y1428445D01*
X1051610Y1431188D01*
X1037996Y1432102D01*
X1024382Y1431188D01*
X1011021Y1428445D01*
X998169Y1423974D01*
X985977Y1417828D01*
X974750Y1410106D01*
X964641Y1400962D01*
X955802Y1390548D01*
X948486Y1379067D01*
X946353Y1374495D01*
X944118Y1371396D01*
X940917Y1369314D01*
X937158Y1368602D01*
X605078Y1368602D01*
X601421Y1369314D01*
X598220Y1371295D01*
X595985Y1374292D01*
X591718Y1382928D01*
X583996Y1394460D01*
X574852Y1404874D01*
X564438Y1414018D01*
X552958Y1421688D01*
X540512Y1427835D01*
X527405Y1432255D01*
X513842Y1434998D01*
X500024Y1435862D01*
X486156Y1434998D01*
X472592Y1432255D01*
X459485Y1427835D01*
X447040Y1421688D01*
X435559Y1414018D01*
X425145Y1404874D01*
X416001Y1394460D01*
X408279Y1382928D01*
X402183Y1370533D01*
X397713Y1357376D01*
X395020Y1343812D01*
X394106Y1329994D01*
X395020Y1316177D01*
X397713Y1302613D01*
X402183Y1289456D01*
X408279Y1277061D01*
X416001Y1265529D01*
X425145Y1255115D01*
X435559Y1245971D01*
X447040Y1238300D01*
X459485Y1232154D01*
X472592Y1227734D01*
X486156Y1224991D01*
G37*
G36*
X3099968Y1478127D02*
G01*
X3113836Y1478991D01*
X3127400Y1481734D01*
X3140506Y1486154D01*
X3152952Y1492300D01*
X3164433Y1499971D01*
X3174847Y1509115D01*
X3183991Y1519529D01*
X3191713Y1531061D01*
X3197809Y1543456D01*
X3202279Y1556613D01*
X3204972Y1570177D01*
X3205886Y1583994D01*
X3204972Y1597812D01*
X3202279Y1611376D01*
X3197809Y1624533D01*
X3191713Y1636928D01*
X3183991Y1648460D01*
X3174847Y1658874D01*
X3164433Y1668018D01*
X3152952Y1675688D01*
X3140506Y1681835D01*
X3127400Y1686255D01*
X3113836Y1688998D01*
X3099968Y1689862D01*
X3086150Y1688998D01*
X3072587Y1686255D01*
X3059480Y1681835D01*
X3047034Y1675688D01*
X3035554Y1668018D01*
X3025140Y1658874D01*
X3015996Y1648460D01*
X3008274Y1636928D01*
X3004007Y1628292D01*
X3001772Y1625295D01*
X2998571Y1623314D01*
X2994914Y1622602D01*
X2662834Y1622602D01*
X2659075Y1623314D01*
X2655874Y1625396D01*
X2653639Y1628495D01*
X2651506Y1633067D01*
X2644190Y1644548D01*
X2635351Y1654962D01*
X2625242Y1664106D01*
X2614015Y1671828D01*
X2601823Y1677974D01*
X2588971Y1682445D01*
X2575610Y1685188D01*
X2561996Y1686102D01*
X2548382Y1685188D01*
X2535021Y1682445D01*
X2522118Y1677974D01*
X2509977Y1671828D01*
X2498750Y1664106D01*
X2488590Y1654962D01*
X2479802Y1644548D01*
X2472486Y1633067D01*
X2466746Y1620672D01*
X2462682Y1607667D01*
X2460396Y1594205D01*
X2459990Y1580591D01*
X2461310Y1567027D01*
X2464511Y1553768D01*
X2469388Y1541018D01*
X2475941Y1529080D01*
X2484018Y1518107D01*
X2493518Y1508302D01*
X2504236Y1499819D01*
X2515971Y1492859D01*
X2528519Y1487576D01*
X2541676Y1483969D01*
X2555189Y1482140D01*
X2568803Y1482140D01*
X2582316Y1483969D01*
X2595473Y1487576D01*
X2608021Y1492859D01*
X2619756Y1499819D01*
X2630474Y1508302D01*
X2639974Y1518107D01*
X2648051Y1529080D01*
X2654096Y1540103D01*
X2656382Y1542897D01*
X2659481Y1544726D01*
X2662986Y1545386D01*
X2994914Y1545386D01*
X2998571Y1544675D01*
X3001772Y1542745D01*
X3004007Y1539748D01*
X3008274Y1531061D01*
X3015996Y1519529D01*
X3025140Y1509115D01*
X3035554Y1499971D01*
X3047034Y1492300D01*
X3059480Y1486154D01*
X3072587Y1481734D01*
X3086150Y1478991D01*
G37*
G36*
X500024Y1478127D02*
G01*
X513842Y1478991D01*
X527405Y1481734D01*
X540512Y1486154D01*
X552958Y1492300D01*
X564438Y1499971D01*
X574852Y1509115D01*
X583996Y1519529D01*
X591718Y1531061D01*
X595985Y1539748D01*
X598220Y1542745D01*
X601421Y1544675D01*
X605078Y1545386D01*
X937006Y1545386D01*
X940511Y1544726D01*
X943610Y1542897D01*
X945896Y1540103D01*
X951941Y1529080D01*
X960018Y1518107D01*
X969518Y1508302D01*
X980236Y1499819D01*
X991971Y1492859D01*
X1004519Y1487576D01*
X1017676Y1483969D01*
X1031189Y1482140D01*
X1044803Y1482140D01*
X1058316Y1483969D01*
X1071473Y1487576D01*
X1084021Y1492859D01*
X1095756Y1499819D01*
X1106474Y1508302D01*
X1115974Y1518107D01*
X1124051Y1529080D01*
X1130604Y1541018D01*
X1135481Y1553768D01*
X1138682Y1567027D01*
X1140002Y1580591D01*
X1139596Y1594205D01*
X1137310Y1607667D01*
X1133246Y1620672D01*
X1127506Y1633067D01*
X1120190Y1644548D01*
X1111402Y1654962D01*
X1101242Y1664106D01*
X1090015Y1671828D01*
X1077874Y1677974D01*
X1064971Y1682445D01*
X1051610Y1685188D01*
X1037996Y1686102D01*
X1024382Y1685188D01*
X1011021Y1682445D01*
X998169Y1677974D01*
X985977Y1671828D01*
X974750Y1664106D01*
X964641Y1654962D01*
X955802Y1644548D01*
X948486Y1633067D01*
X946353Y1628495D01*
X944118Y1625396D01*
X940917Y1623314D01*
X937158Y1622602D01*
X605078Y1622602D01*
X601421Y1623314D01*
X598220Y1625295D01*
X595985Y1628292D01*
X591718Y1636928D01*
X583996Y1648460D01*
X574852Y1658874D01*
X564438Y1668018D01*
X552958Y1675688D01*
X540512Y1681835D01*
X527405Y1686255D01*
X513842Y1688998D01*
X500024Y1689862D01*
X486156Y1688998D01*
X472592Y1686255D01*
X459485Y1681835D01*
X447040Y1675688D01*
X435559Y1668018D01*
X425145Y1658874D01*
X416001Y1648460D01*
X408279Y1636928D01*
X402183Y1624533D01*
X397713Y1611376D01*
X395020Y1597812D01*
X394106Y1583994D01*
X395020Y1570177D01*
X397713Y1556613D01*
X402183Y1543456D01*
X408279Y1531061D01*
X416001Y1519529D01*
X425145Y1509115D01*
X435559Y1499971D01*
X447040Y1492300D01*
X459485Y1486154D01*
X472592Y1481734D01*
X486156Y1478991D01*
G37*
G36*
X3099968Y1732127D02*
G01*
X3113836Y1732991D01*
X3127400Y1735734D01*
X3140506Y1740154D01*
X3152952Y1746300D01*
X3164433Y1753971D01*
X3174847Y1763115D01*
X3183991Y1773529D01*
X3191713Y1785061D01*
X3197809Y1797456D01*
X3202279Y1810613D01*
X3204972Y1824177D01*
X3205886Y1837994D01*
X3204972Y1851812D01*
X3202279Y1865375D01*
X3197809Y1878533D01*
X3191713Y1890928D01*
X3183991Y1902460D01*
X3174847Y1912874D01*
X3164433Y1922018D01*
X3152952Y1929688D01*
X3140506Y1935835D01*
X3127400Y1940255D01*
X3113836Y1942998D01*
X3099968Y1943862D01*
X3086150Y1942998D01*
X3072587Y1940255D01*
X3059480Y1935835D01*
X3047034Y1929688D01*
X3035554Y1922018D01*
X3025140Y1912874D01*
X3015996Y1902460D01*
X3008274Y1890928D01*
X3004007Y1882292D01*
X3001772Y1879295D01*
X2998571Y1877314D01*
X2994914Y1876602D01*
X2662834Y1876602D01*
X2659075Y1877314D01*
X2655874Y1879396D01*
X2653639Y1882495D01*
X2651506Y1887067D01*
X2644190Y1898548D01*
X2635351Y1908962D01*
X2625242Y1918106D01*
X2614015Y1925828D01*
X2601823Y1931974D01*
X2588971Y1936445D01*
X2575610Y1939188D01*
X2561996Y1940102D01*
X2548382Y1939188D01*
X2535021Y1936445D01*
X2522118Y1931974D01*
X2509977Y1925828D01*
X2498750Y1918106D01*
X2488590Y1908962D01*
X2479802Y1898548D01*
X2472486Y1887067D01*
X2466746Y1874672D01*
X2462682Y1861667D01*
X2460396Y1848205D01*
X2459990Y1834591D01*
X2461310Y1821027D01*
X2464511Y1807768D01*
X2469388Y1795018D01*
X2475941Y1783080D01*
X2484018Y1772107D01*
X2493518Y1762302D01*
X2504236Y1753819D01*
X2515971Y1746859D01*
X2528519Y1741576D01*
X2541676Y1737969D01*
X2555189Y1736140D01*
X2568803Y1736140D01*
X2582316Y1737969D01*
X2595473Y1741576D01*
X2608021Y1746859D01*
X2619756Y1753819D01*
X2630474Y1762302D01*
X2639974Y1772107D01*
X2648051Y1783080D01*
X2654096Y1794103D01*
X2656382Y1796897D01*
X2659481Y1798726D01*
X2662986Y1799386D01*
X2994914Y1799386D01*
X2998571Y1798675D01*
X3001772Y1796745D01*
X3004007Y1793748D01*
X3008274Y1785061D01*
X3015996Y1773529D01*
X3025140Y1763115D01*
X3035554Y1753971D01*
X3047034Y1746300D01*
X3059480Y1740154D01*
X3072587Y1735734D01*
X3086150Y1732991D01*
G37*
G36*
X500024Y1732127D02*
G01*
X513842Y1732991D01*
X527405Y1735734D01*
X540512Y1740154D01*
X552958Y1746300D01*
X564438Y1753971D01*
X574852Y1763115D01*
X583996Y1773529D01*
X591718Y1785061D01*
X595985Y1793748D01*
X598220Y1796745D01*
X601421Y1798675D01*
X605078Y1799386D01*
X937006Y1799386D01*
X940511Y1798726D01*
X943610Y1796897D01*
X945896Y1794103D01*
X951941Y1783080D01*
X960018Y1772107D01*
X969518Y1762302D01*
X980236Y1753819D01*
X991971Y1746859D01*
X1004519Y1741576D01*
X1017676Y1737969D01*
X1031189Y1736140D01*
X1044803Y1736140D01*
X1058316Y1737969D01*
X1071473Y1741576D01*
X1084021Y1746859D01*
X1095756Y1753819D01*
X1106474Y1762302D01*
X1115974Y1772107D01*
X1124051Y1783080D01*
X1130604Y1795018D01*
X1135481Y1807768D01*
X1138682Y1821027D01*
X1140002Y1834591D01*
X1139596Y1848205D01*
X1137310Y1861667D01*
X1133246Y1874672D01*
X1127506Y1887067D01*
X1120190Y1898548D01*
X1111402Y1908962D01*
X1101242Y1918106D01*
X1090015Y1925828D01*
X1077874Y1931974D01*
X1064971Y1936445D01*
X1051610Y1939188D01*
X1037996Y1940102D01*
X1024382Y1939188D01*
X1011021Y1936445D01*
X998169Y1931974D01*
X985977Y1925828D01*
X974750Y1918106D01*
X964641Y1908962D01*
X955802Y1898548D01*
X948486Y1887067D01*
X946353Y1882495D01*
X944118Y1879396D01*
X940917Y1877314D01*
X937158Y1876602D01*
X605078Y1876602D01*
X601421Y1877314D01*
X598220Y1879295D01*
X595985Y1882292D01*
X591718Y1890928D01*
X583996Y1902460D01*
X574852Y1912874D01*
X564438Y1922018D01*
X552958Y1929688D01*
X540512Y1935835D01*
X527405Y1940255D01*
X513842Y1942998D01*
X500024Y1943862D01*
X486156Y1942998D01*
X472592Y1940255D01*
X459485Y1935835D01*
X447040Y1929688D01*
X435559Y1922018D01*
X425145Y1912874D01*
X416001Y1902460D01*
X408279Y1890928D01*
X402183Y1878533D01*
X397713Y1865375D01*
X395020Y1851812D01*
X394106Y1837994D01*
X395020Y1824177D01*
X397713Y1810613D01*
X402183Y1797456D01*
X408279Y1785061D01*
X416001Y1773529D01*
X425145Y1763115D01*
X435559Y1753971D01*
X447040Y1746300D01*
X459485Y1740154D01*
X472592Y1735734D01*
X486156Y1732991D01*
G37*
G36*
X3099968Y1986127D02*
G01*
X3113836Y1986991D01*
X3127400Y1989734D01*
X3140506Y1994154D01*
X3152952Y2000300D01*
X3164433Y2007971D01*
X3174847Y2017115D01*
X3183991Y2027529D01*
X3191713Y2039061D01*
X3197809Y2051456D01*
X3202279Y2064613D01*
X3204972Y2078177D01*
X3205886Y2091994D01*
X3204972Y2105812D01*
X3202279Y2119376D01*
X3197809Y2132533D01*
X3191713Y2144928D01*
X3183991Y2156460D01*
X3174847Y2166874D01*
X3164433Y2176018D01*
X3152952Y2183688D01*
X3140506Y2189835D01*
X3127400Y2194255D01*
X3113836Y2196998D01*
X3099968Y2197862D01*
X3086150Y2196998D01*
X3072587Y2194255D01*
X3059480Y2189835D01*
X3047034Y2183688D01*
X3035554Y2176018D01*
X3025140Y2166874D01*
X3015996Y2156460D01*
X3008274Y2144928D01*
X3004007Y2136292D01*
X3001772Y2133295D01*
X2998571Y2131314D01*
X2994914Y2130602D01*
X2662834Y2130602D01*
X2659075Y2131314D01*
X2655874Y2133396D01*
X2653639Y2136495D01*
X2651506Y2141067D01*
X2644190Y2152548D01*
X2635351Y2162962D01*
X2625242Y2172106D01*
X2614015Y2179828D01*
X2601823Y2185974D01*
X2588971Y2190445D01*
X2575610Y2193188D01*
X2561996Y2194102D01*
X2548382Y2193188D01*
X2535021Y2190445D01*
X2522118Y2185974D01*
X2509977Y2179828D01*
X2498750Y2172106D01*
X2488590Y2162962D01*
X2479802Y2152548D01*
X2472486Y2141067D01*
X2466746Y2128672D01*
X2462682Y2115667D01*
X2460396Y2102205D01*
X2459990Y2088591D01*
X2461310Y2075027D01*
X2464511Y2061768D01*
X2469388Y2049018D01*
X2475941Y2037080D01*
X2484018Y2026107D01*
X2493518Y2016302D01*
X2504236Y2007819D01*
X2515971Y2000859D01*
X2528519Y1995576D01*
X2541676Y1991969D01*
X2555189Y1990140D01*
X2568803Y1990140D01*
X2582316Y1991969D01*
X2595473Y1995576D01*
X2608021Y2000859D01*
X2619756Y2007819D01*
X2630474Y2016302D01*
X2639974Y2026107D01*
X2648051Y2037080D01*
X2654096Y2048103D01*
X2656382Y2050897D01*
X2659481Y2052726D01*
X2662986Y2053386D01*
X2994914Y2053386D01*
X2998571Y2052675D01*
X3001772Y2050745D01*
X3004007Y2047748D01*
X3008274Y2039061D01*
X3015996Y2027529D01*
X3025140Y2017115D01*
X3035554Y2007971D01*
X3047034Y2000300D01*
X3059480Y1994154D01*
X3072587Y1989734D01*
X3086150Y1986991D01*
G37*
G36*
X500024Y1986127D02*
G01*
X513842Y1986991D01*
X527405Y1989734D01*
X540512Y1994154D01*
X552958Y2000300D01*
X564438Y2007971D01*
X574852Y2017115D01*
X583996Y2027529D01*
X591718Y2039061D01*
X595985Y2047748D01*
X598220Y2050745D01*
X601421Y2052675D01*
X605078Y2053386D01*
X937006Y2053386D01*
X940511Y2052726D01*
X943610Y2050897D01*
X945896Y2048103D01*
X951941Y2037080D01*
X960018Y2026107D01*
X969518Y2016302D01*
X980236Y2007819D01*
X991971Y2000859D01*
X1004519Y1995576D01*
X1017676Y1991969D01*
X1031189Y1990140D01*
X1044803Y1990140D01*
X1058316Y1991969D01*
X1071473Y1995576D01*
X1084021Y2000859D01*
X1095756Y2007819D01*
X1106474Y2016302D01*
X1115974Y2026107D01*
X1124051Y2037080D01*
X1130604Y2049018D01*
X1135481Y2061768D01*
X1138682Y2075027D01*
X1140002Y2088591D01*
X1139596Y2102205D01*
X1137310Y2115667D01*
X1133246Y2128672D01*
X1127506Y2141067D01*
X1120190Y2152548D01*
X1111402Y2162962D01*
X1101242Y2172106D01*
X1090015Y2179828D01*
X1077874Y2185974D01*
X1064971Y2190445D01*
X1051610Y2193188D01*
X1037996Y2194102D01*
X1024382Y2193188D01*
X1011021Y2190445D01*
X998169Y2185974D01*
X985977Y2179828D01*
X974750Y2172106D01*
X964641Y2162962D01*
X955802Y2152548D01*
X948486Y2141067D01*
X946353Y2136495D01*
X944118Y2133396D01*
X940917Y2131314D01*
X937158Y2130602D01*
X605078Y2130602D01*
X601421Y2131314D01*
X598220Y2133295D01*
X595985Y2136292D01*
X591718Y2144928D01*
X583996Y2156460D01*
X574852Y2166874D01*
X564438Y2176018D01*
X552958Y2183688D01*
X540512Y2189835D01*
X527405Y2194255D01*
X513842Y2196998D01*
X500024Y2197862D01*
X486156Y2196998D01*
X472592Y2194255D01*
X459485Y2189835D01*
X447040Y2183688D01*
X435559Y2176018D01*
X425145Y2166874D01*
X416001Y2156460D01*
X408279Y2144928D01*
X402183Y2132533D01*
X397713Y2119376D01*
X395020Y2105812D01*
X394106Y2091994D01*
X395020Y2078177D01*
X397713Y2064613D01*
X402183Y2051456D01*
X408279Y2039061D01*
X416001Y2027529D01*
X425145Y2017115D01*
X435559Y2007971D01*
X447040Y2000300D01*
X459485Y1994154D01*
X472592Y1989734D01*
X486156Y1986991D01*
G37*
G36*
X3099968Y2240127D02*
G01*
X3113836Y2240991D01*
X3127400Y2243734D01*
X3140506Y2248154D01*
X3152952Y2254300D01*
X3164433Y2261971D01*
X3174847Y2271115D01*
X3183991Y2281529D01*
X3191713Y2293061D01*
X3197809Y2305456D01*
X3202279Y2318613D01*
X3204972Y2332177D01*
X3205886Y2345994D01*
X3204972Y2359812D01*
X3202279Y2373376D01*
X3197809Y2386533D01*
X3191713Y2398928D01*
X3183991Y2410460D01*
X3174847Y2420874D01*
X3164433Y2430018D01*
X3152952Y2437688D01*
X3140506Y2443835D01*
X3127400Y2448255D01*
X3113836Y2450998D01*
X3099968Y2451862D01*
X3086150Y2450998D01*
X3072587Y2448255D01*
X3059480Y2443835D01*
X3047034Y2437688D01*
X3035554Y2430018D01*
X3025140Y2420874D01*
X3015996Y2410460D01*
X3008274Y2398928D01*
X3004007Y2390292D01*
X3001772Y2387295D01*
X2998571Y2385314D01*
X2994914Y2384602D01*
X2662834Y2384602D01*
X2659075Y2385314D01*
X2655874Y2387396D01*
X2653639Y2390495D01*
X2651506Y2395067D01*
X2644190Y2406548D01*
X2635351Y2416962D01*
X2625242Y2426106D01*
X2614015Y2433828D01*
X2601823Y2439974D01*
X2588971Y2444445D01*
X2575610Y2447188D01*
X2561996Y2448102D01*
X2548382Y2447188D01*
X2535021Y2444445D01*
X2522118Y2439974D01*
X2509977Y2433828D01*
X2498750Y2426106D01*
X2488590Y2416962D01*
X2479802Y2406548D01*
X2472486Y2395067D01*
X2466746Y2382672D01*
X2462682Y2369667D01*
X2460396Y2356205D01*
X2459990Y2342591D01*
X2461310Y2329027D01*
X2464511Y2315768D01*
X2469388Y2303018D01*
X2475941Y2291080D01*
X2484018Y2280107D01*
X2493518Y2270302D01*
X2504236Y2261819D01*
X2515971Y2254859D01*
X2528519Y2249576D01*
X2541676Y2245969D01*
X2555189Y2244140D01*
X2568803Y2244140D01*
X2582316Y2245969D01*
X2595473Y2249576D01*
X2608021Y2254859D01*
X2619756Y2261819D01*
X2630474Y2270302D01*
X2639974Y2280107D01*
X2648051Y2291080D01*
X2654096Y2302103D01*
X2656382Y2304897D01*
X2659481Y2306726D01*
X2662986Y2307386D01*
X2994914Y2307386D01*
X2998571Y2306675D01*
X3001772Y2304745D01*
X3004007Y2301748D01*
X3008274Y2293061D01*
X3015996Y2281529D01*
X3025140Y2271115D01*
X3035554Y2261971D01*
X3047034Y2254300D01*
X3059480Y2248154D01*
X3072587Y2243734D01*
X3086150Y2240991D01*
G37*
G36*
X500024Y2240127D02*
G01*
X513842Y2240991D01*
X527405Y2243734D01*
X540512Y2248154D01*
X552958Y2254300D01*
X564438Y2261971D01*
X574852Y2271115D01*
X583996Y2281529D01*
X591718Y2293061D01*
X595985Y2301748D01*
X598220Y2304745D01*
X601421Y2306675D01*
X605078Y2307386D01*
X937006Y2307386D01*
X940511Y2306726D01*
X943610Y2304897D01*
X945896Y2302103D01*
X951941Y2291080D01*
X960018Y2280107D01*
X969518Y2270302D01*
X980236Y2261819D01*
X991971Y2254859D01*
X1004519Y2249576D01*
X1017676Y2245969D01*
X1031189Y2244140D01*
X1044803Y2244140D01*
X1058316Y2245969D01*
X1071473Y2249576D01*
X1084021Y2254859D01*
X1095756Y2261819D01*
X1106474Y2270302D01*
X1115974Y2280107D01*
X1124051Y2291080D01*
X1130604Y2303018D01*
X1135481Y2315768D01*
X1138682Y2329027D01*
X1140002Y2342591D01*
X1139596Y2356205D01*
X1137310Y2369667D01*
X1133246Y2382672D01*
X1127506Y2395067D01*
X1120190Y2406548D01*
X1111402Y2416962D01*
X1101242Y2426106D01*
X1090015Y2433828D01*
X1077874Y2439974D01*
X1064971Y2444445D01*
X1051610Y2447188D01*
X1037996Y2448102D01*
X1024382Y2447188D01*
X1011021Y2444445D01*
X998169Y2439974D01*
X985977Y2433828D01*
X974750Y2426106D01*
X964641Y2416962D01*
X955802Y2406548D01*
X948486Y2395067D01*
X946353Y2390495D01*
X944118Y2387396D01*
X940917Y2385314D01*
X937158Y2384602D01*
X605078Y2384602D01*
X601421Y2385314D01*
X598220Y2387295D01*
X595985Y2390292D01*
X591718Y2398928D01*
X583996Y2410460D01*
X574852Y2420874D01*
X564438Y2430018D01*
X552958Y2437688D01*
X540512Y2443835D01*
X527405Y2448255D01*
X513842Y2450998D01*
X500024Y2451862D01*
X486156Y2450998D01*
X472592Y2448255D01*
X459485Y2443835D01*
X447040Y2437688D01*
X435559Y2430018D01*
X425145Y2420874D01*
X416001Y2410460D01*
X408279Y2398928D01*
X402183Y2386533D01*
X397713Y2373376D01*
X395020Y2359812D01*
X394106Y2345994D01*
X395020Y2332177D01*
X397713Y2318613D01*
X402183Y2305456D01*
X408279Y2293061D01*
X416001Y2281529D01*
X425145Y2271115D01*
X435559Y2261971D01*
X447040Y2254300D01*
X459485Y2248154D01*
X472592Y2243734D01*
X486156Y2240991D01*
G37*
G36*
X500024Y2494127D02*
G01*
X513842Y2494991D01*
X527405Y2497734D01*
X540512Y2502154D01*
X552958Y2508300D01*
X564438Y2515971D01*
X574852Y2525115D01*
X583996Y2535529D01*
X591718Y2547061D01*
X595985Y2555748D01*
X598220Y2558745D01*
X601421Y2560675D01*
X605078Y2561386D01*
X937006Y2561386D01*
X940511Y2560726D01*
X943610Y2558897D01*
X945896Y2556103D01*
X951941Y2545080D01*
X960018Y2534107D01*
X969518Y2524302D01*
X980236Y2515819D01*
X991971Y2508859D01*
X1004519Y2503576D01*
X1017676Y2499969D01*
X1031189Y2498140D01*
X1044803Y2498140D01*
X1058316Y2499969D01*
X1071473Y2503576D01*
X1084021Y2508859D01*
X1095756Y2515819D01*
X1106474Y2524302D01*
X1115974Y2534107D01*
X1124051Y2545080D01*
X1130604Y2557018D01*
X1135481Y2569768D01*
X1138682Y2583027D01*
X1140002Y2596591D01*
X1139596Y2610205D01*
X1137310Y2623667D01*
X1133246Y2636672D01*
X1127506Y2649067D01*
X1120190Y2660548D01*
X1111402Y2670962D01*
X1101242Y2680106D01*
X1090015Y2687828D01*
X1077874Y2693974D01*
X1064971Y2698445D01*
X1051610Y2701188D01*
X1037996Y2702102D01*
X1024382Y2701188D01*
X1011021Y2698445D01*
X998169Y2693974D01*
X985977Y2687828D01*
X974750Y2680106D01*
X964641Y2670962D01*
X955802Y2660548D01*
X948486Y2649067D01*
X946353Y2644495D01*
X944118Y2641396D01*
X940917Y2639314D01*
X937158Y2638602D01*
X605078Y2638602D01*
X601421Y2639314D01*
X598220Y2641295D01*
X595985Y2644292D01*
X591718Y2652928D01*
X583996Y2664460D01*
X574852Y2674874D01*
X564438Y2684018D01*
X552958Y2691688D01*
X540512Y2697835D01*
X527405Y2702255D01*
X513842Y2704998D01*
X500024Y2705862D01*
X486156Y2704998D01*
X472592Y2702255D01*
X459485Y2697835D01*
X447040Y2691688D01*
X435559Y2684018D01*
X425145Y2674874D01*
X416001Y2664460D01*
X408279Y2652928D01*
X402183Y2640533D01*
X397713Y2627376D01*
X395020Y2613812D01*
X394106Y2599994D01*
X395020Y2586177D01*
X397713Y2572613D01*
X402183Y2559456D01*
X408279Y2547061D01*
X416001Y2535529D01*
X425145Y2525115D01*
X435559Y2515971D01*
X447040Y2508300D01*
X459485Y2502154D01*
X472592Y2497734D01*
X486156Y2494991D01*
G37*
G36*
X3099968Y2494127D02*
G01*
X3113836Y2494991D01*
X3127400Y2497734D01*
X3140506Y2502154D01*
X3152952Y2508300D01*
X3164433Y2515971D01*
X3174847Y2525115D01*
X3183991Y2535529D01*
X3191713Y2547061D01*
X3197809Y2559456D01*
X3202279Y2572613D01*
X3204972Y2586177D01*
X3205886Y2599994D01*
X3204972Y2613812D01*
X3202279Y2627376D01*
X3197809Y2640533D01*
X3191713Y2652928D01*
X3183991Y2664460D01*
X3174847Y2674874D01*
X3164433Y2684018D01*
X3152952Y2691688D01*
X3140506Y2697835D01*
X3127400Y2702255D01*
X3113836Y2704998D01*
X3099968Y2705862D01*
X3086150Y2704998D01*
X3072587Y2702255D01*
X3059480Y2697835D01*
X3047034Y2691688D01*
X3035554Y2684018D01*
X3025140Y2674874D01*
X3015996Y2664460D01*
X3008274Y2652928D01*
X3004007Y2644292D01*
X3001772Y2641295D01*
X2998571Y2639314D01*
X2994914Y2638602D01*
X2662834Y2638602D01*
X2659075Y2639314D01*
X2655874Y2641396D01*
X2653639Y2644495D01*
X2651506Y2649067D01*
X2644190Y2660548D01*
X2635351Y2670962D01*
X2625242Y2680106D01*
X2614015Y2687828D01*
X2601823Y2693974D01*
X2588971Y2698445D01*
X2575610Y2701188D01*
X2561996Y2702052D01*
X2548382Y2701188D01*
X2535021Y2698445D01*
X2528519Y2696210D01*
X2524760Y2695651D01*
X2521102Y2696464D01*
X2518003Y2698597D01*
X1591716Y3624884D01*
X1589481Y3628186D01*
X1588719Y3632098D01*
X1588719Y3748125D01*
X1589481Y3752037D01*
X1591716Y3755339D01*
X1594967Y3757523D01*
X1598879Y3758285D01*
X1602790Y3757523D01*
X1606042Y3755339D01*
X2463342Y2898038D01*
X2465425Y2895041D01*
X2466289Y2891485D01*
X2465832Y2887878D01*
X2462682Y2877667D01*
X2460396Y2864205D01*
X2459990Y2850591D01*
X2461310Y2837027D01*
X2464511Y2823768D01*
X2469388Y2811018D01*
X2475941Y2799080D01*
X2484018Y2788107D01*
X2493518Y2778302D01*
X2504236Y2769819D01*
X2515971Y2762859D01*
X2528519Y2757576D01*
X2541676Y2753969D01*
X2555189Y2752140D01*
X2568803Y2752140D01*
X2582316Y2753969D01*
X2595473Y2757576D01*
X2608021Y2762859D01*
X2619756Y2769819D01*
X2630474Y2778302D01*
X2639974Y2788107D01*
X2648051Y2799080D01*
X2654096Y2810103D01*
X2656382Y2812897D01*
X2659481Y2814726D01*
X2662986Y2815386D01*
X2994914Y2815386D01*
X2998571Y2814675D01*
X3001772Y2812745D01*
X3004007Y2809748D01*
X3008274Y2801061D01*
X3015996Y2789529D01*
X3025140Y2779115D01*
X3035554Y2769971D01*
X3047034Y2762300D01*
X3059480Y2756154D01*
X3072587Y2751734D01*
X3086150Y2748991D01*
X3099968Y2748127D01*
X3113836Y2748991D01*
X3127400Y2751734D01*
X3140506Y2756154D01*
X3152952Y2762300D01*
X3164433Y2769971D01*
X3174847Y2779115D01*
X3183991Y2789529D01*
X3191713Y2801061D01*
X3197809Y2813456D01*
X3202279Y2826613D01*
X3204972Y2840177D01*
X3205886Y2853994D01*
X3204972Y2867812D01*
X3202279Y2881376D01*
X3197809Y2894533D01*
X3191713Y2906928D01*
X3183991Y2918460D01*
X3174847Y2928874D01*
X3164433Y2938018D01*
X3152952Y2945688D01*
X3140506Y2951835D01*
X3127400Y2956255D01*
X3113836Y2958998D01*
X3099968Y2959862D01*
X3086150Y2958998D01*
X3072587Y2956255D01*
X3059480Y2951835D01*
X3047034Y2945688D01*
X3035554Y2938018D01*
X3025140Y2928874D01*
X3015996Y2918460D01*
X3008274Y2906928D01*
X3004007Y2898292D01*
X3001772Y2895295D01*
X2998571Y2893314D01*
X2994914Y2892602D01*
X2662834Y2892602D01*
X2659075Y2893314D01*
X2655874Y2895396D01*
X2653639Y2898495D01*
X2651506Y2903067D01*
X2644190Y2914548D01*
X2635351Y2924962D01*
X2625242Y2934106D01*
X2614015Y2941828D01*
X2601823Y2947974D01*
X2588971Y2952445D01*
X2575610Y2955188D01*
X2561996Y2956052D01*
X2548382Y2955188D01*
X2535021Y2952445D01*
X2528519Y2950210D01*
X2524760Y2949651D01*
X2521102Y2950464D01*
X2518003Y2952597D01*
X1632508Y3838092D01*
X1630273Y3841394D01*
X1629511Y3845306D01*
X1629511Y4735576D01*
X1628698Y4743602D01*
X1626514Y4750866D01*
X1622958Y4757521D01*
X1617827Y4763719D01*
X1501089Y4880508D01*
X1498752Y4884216D01*
X1498142Y4888585D01*
X1499463Y4892751D01*
X1502460Y4896002D01*
X1508048Y4899914D01*
X1509623Y4901488D01*
X1512925Y4903724D01*
X1516837Y4904486D01*
X1708404Y4904486D01*
X1716430Y4905298D01*
X1723643Y4907483D01*
X1730298Y4911039D01*
X1736547Y4916170D01*
X2170633Y5350256D01*
X2173782Y5352389D01*
X2177491Y5353202D01*
X2181199Y5352643D01*
X2183942Y5351678D01*
X2196744Y5348986D01*
X2209800Y5348122D01*
X2222855Y5348986D01*
X2235657Y5351678D01*
X2248001Y5356047D01*
X2259634Y5362092D01*
X2270302Y5369610D01*
X2279853Y5378551D01*
X2288133Y5388711D01*
X2295296Y5400497D01*
X2297582Y5403138D01*
X2300579Y5404815D01*
X2303983Y5405424D01*
X2743504Y5405424D01*
X2751531Y5406186D01*
X2758744Y5408371D01*
X2765450Y5411927D01*
X2771648Y5417058D01*
X3045155Y5690565D01*
X3048609Y5692800D01*
X3052673Y5693511D01*
X3057347Y5692241D01*
X3071164Y5687720D01*
X3085490Y5685028D01*
X3099968Y5684113D01*
X3114497Y5685028D01*
X3128822Y5687720D01*
X3142640Y5692241D01*
X3155848Y5698439D01*
X3168091Y5706211D01*
X3179318Y5715508D01*
X3189274Y5726125D01*
X3197860Y5737910D01*
X3204870Y5750661D01*
X3210204Y5764174D01*
X3213811Y5778296D01*
X3215640Y5792724D01*
X3215640Y5807252D01*
X3213811Y5821680D01*
X3210204Y5835802D01*
X3204870Y5849315D01*
X3197860Y5862066D01*
X3189274Y5873851D01*
X3179318Y5884468D01*
X3168091Y5893765D01*
X3155848Y5901537D01*
X3142640Y5907735D01*
X3128822Y5912256D01*
X3114497Y5914948D01*
X3099968Y5915863D01*
X3085490Y5914948D01*
X3071164Y5912256D01*
X3057347Y5907735D01*
X3044139Y5901537D01*
X3031896Y5893765D01*
X3020669Y5884468D01*
X3010712Y5873851D01*
X3002127Y5862066D01*
X2995117Y5849315D01*
X2989783Y5835802D01*
X2986176Y5821680D01*
X2984347Y5807252D01*
X2984347Y5792724D01*
X2986176Y5778296D01*
X2989783Y5764174D01*
X2992932Y5756198D01*
X2993644Y5752338D01*
X2992882Y5748528D01*
X2990697Y5745276D01*
X2731008Y5485587D01*
X2727706Y5483402D01*
X2723794Y5482640D01*
X2303983Y5482640D01*
X2300579Y5483199D01*
X2297582Y5484876D01*
X2295296Y5487517D01*
X2288133Y5499303D01*
X2279853Y5509463D01*
X2270302Y5518353D01*
X2259634Y5525922D01*
X2248001Y5531967D01*
X2235657Y5536336D01*
X2222855Y5538978D01*
X2209800Y5539892D01*
X2196744Y5538978D01*
X2183942Y5536336D01*
X2171598Y5531967D01*
X2159965Y5525922D01*
X2149297Y5518353D01*
X2139746Y5509463D01*
X2131466Y5499303D01*
X2124659Y5488127D01*
X2119477Y5476087D01*
X2115921Y5463489D01*
X2114143Y5450535D01*
X2114143Y5437479D01*
X2115921Y5424474D01*
X2118664Y5414772D01*
X2118969Y5411216D01*
X2118106Y5407761D01*
X2116023Y5404866D01*
X1695856Y4984699D01*
X1692554Y4982464D01*
X1688693Y4981702D01*
X1516837Y4981702D01*
X1512925Y4982464D01*
X1509623Y4984699D01*
X1508048Y4986274D01*
X1499971Y4991912D01*
X1491081Y4996078D01*
X1481582Y4998618D01*
X1471828Y4999482D01*
X1462024Y4998618D01*
X1452524Y4996078D01*
X1443634Y4991912D01*
X1435557Y4986274D01*
X1428597Y4979314D01*
X1424686Y4973726D01*
X1421485Y4970780D01*
X1417269Y4969459D01*
X1412900Y4970018D01*
X1409192Y4972405D01*
X605586Y5776010D01*
X603351Y5779414D01*
X602589Y5783376D01*
X608126Y5802325D01*
X610362Y5816346D01*
X610819Y5830519D01*
X609447Y5844692D01*
X606298Y5858560D01*
X601370Y5871870D01*
X594817Y5884468D01*
X586689Y5896102D01*
X577138Y5906668D01*
X566318Y5915863D01*
X554431Y5923584D01*
X541629Y5929782D01*
X528116Y5934252D01*
X514197Y5936945D01*
X500024Y5937859D01*
X485800Y5936945D01*
X471881Y5934252D01*
X458368Y5929782D01*
X445566Y5923584D01*
X438607Y5919063D01*
X434543Y5917539D01*
X430225Y5917793D01*
X426415Y5919876D01*
X423824Y5923330D01*
X422909Y5927547D01*
X422909Y5945073D01*
X423672Y5948934D01*
X425856Y5952236D01*
X449122Y5975502D01*
X452374Y5977686D01*
X456234Y5978499D01*
X460095Y5977737D01*
X465074Y5975756D01*
X478790Y5972149D01*
X492912Y5970320D01*
X507085Y5970320D01*
X521208Y5972149D01*
X534924Y5975756D01*
X548132Y5981090D01*
X560476Y5988050D01*
X571855Y5996533D01*
X582066Y6006439D01*
X590956Y6017564D01*
X598322Y6029706D01*
X604062Y6042710D01*
X608126Y6056325D01*
X610362Y6070346D01*
X610819Y6084519D01*
X609447Y6098692D01*
X606298Y6112560D01*
X601370Y6125870D01*
X594817Y6138468D01*
X586689Y6150102D01*
X577138Y6160668D01*
X566318Y6169863D01*
X554431Y6177584D01*
X541629Y6183782D01*
X528116Y6188252D01*
X518566Y6190132D01*
X514553Y6191859D01*
X511657Y6195110D01*
X510387Y6199276D01*
X510997Y6203594D01*
X513334Y6207252D01*
X642772Y6336741D01*
X645972Y6338874D01*
X649782Y6339687D01*
X653592Y6339027D01*
X656894Y6336944D01*
X661568Y6332575D01*
X665073Y6329883D01*
X668832Y6327495D01*
X672795Y6325463D01*
X676910Y6323736D01*
X681126Y6322415D01*
X685495Y6321450D01*
X689914Y6320840D01*
X694537Y6320637D01*
X1786483Y6320637D01*
X1791106Y6320840D01*
X1795525Y6321450D01*
X1799894Y6322415D01*
X1804111Y6323736D01*
X1808225Y6325463D01*
X1812188Y6327495D01*
X1815947Y6329883D01*
X1819452Y6332626D01*
X1822907Y6335776D01*
X1884629Y6397498D01*
X1887220Y6399377D01*
X1890318Y6400342D01*
X1893519Y6400292D01*
X1904796Y6398412D01*
X1918411Y6397955D01*
X1931974Y6399326D01*
X1945233Y6402476D01*
X1957984Y6407404D01*
X1969922Y6413957D01*
X1980895Y6422034D01*
X1990699Y6431534D01*
X1999183Y6442202D01*
X2002485Y6446672D01*
X2005533Y6448399D01*
X2008936Y6448958D01*
X2119528Y6448958D01*
X2122881Y6448399D01*
X2125929Y6446723D01*
X2128164Y6444081D01*
X2131466Y6438696D01*
X2139746Y6428536D01*
X2149297Y6419646D01*
X2159965Y6412077D01*
X2171598Y6406032D01*
X2183942Y6401663D01*
X2196744Y6399022D01*
X2209800Y6398107D01*
X2222855Y6399022D01*
X2225598Y6399580D01*
X2228951Y6399733D01*
X2232152Y6398768D01*
X2234844Y6396837D01*
X2613558Y6018072D01*
X2617012Y6014923D01*
X2620568Y6012230D01*
X2624328Y6009843D01*
X2628239Y6007760D01*
X2632354Y6006084D01*
X2636621Y6004712D01*
X2640939Y6003747D01*
X2645359Y6003188D01*
X2650032Y6002985D01*
X2973933Y6002985D01*
X2977794Y6002223D01*
X2981096Y5999988D01*
X2983331Y5996686D01*
X2984093Y5992825D01*
X2984093Y5964580D01*
X2984804Y5958230D01*
X2986684Y5952794D01*
X2989783Y5947867D01*
X2993898Y5943803D01*
X2998774Y5940704D01*
X3004261Y5938774D01*
X3010560Y5938062D01*
X3189427Y5938062D01*
X3195726Y5938774D01*
X3201212Y5940704D01*
X3206089Y5943803D01*
X3210204Y5947867D01*
X3213303Y5952794D01*
X3215182Y5958230D01*
X3215894Y5964580D01*
X3215894Y6143396D01*
X3215182Y6149746D01*
X3213303Y6155182D01*
X3210204Y6160109D01*
X3206089Y6164173D01*
X3201212Y6167272D01*
X3195726Y6169202D01*
X3189427Y6169914D01*
X3010560Y6169914D01*
X3004261Y6169202D01*
X2998774Y6167272D01*
X2993898Y6164173D01*
X2989783Y6160109D01*
X2986684Y6155182D01*
X2984804Y6149746D01*
X2984093Y6143396D01*
X2984093Y6115151D01*
X2983331Y6111290D01*
X2981096Y6107988D01*
X2977794Y6105753D01*
X2973933Y6104991D01*
X2675128Y6104991D01*
X2671267Y6105753D01*
X2667965Y6107988D01*
X2306980Y6468973D01*
X2305151Y6471462D01*
X2304135Y6474409D01*
X2304084Y6477508D01*
X2305456Y6487464D01*
X2305456Y6500520D01*
X2303678Y6513525D01*
X2300173Y6526123D01*
X2294940Y6538112D01*
X2288133Y6549288D01*
X2279853Y6559448D01*
X2270302Y6568389D01*
X2259634Y6575907D01*
X2248001Y6581952D01*
X2235657Y6586321D01*
X2222855Y6589014D01*
X2209800Y6589877D01*
X2196744Y6589014D01*
X2183942Y6586321D01*
X2171598Y6581952D01*
X2159965Y6575907D01*
X2149297Y6568389D01*
X2139746Y6559448D01*
X2135886Y6554724D01*
X2132380Y6551980D01*
X2128012Y6551015D01*
X2008936Y6551015D01*
X2005533Y6551574D01*
X2002485Y6553301D01*
X1999183Y6557772D01*
X1990699Y6568440D01*
X1980895Y6577939D01*
X1969922Y6586016D01*
X1957984Y6592570D01*
X1945233Y6597497D01*
X1931974Y6600647D01*
X1918411Y6602018D01*
X1904796Y6601561D01*
X1891334Y6599275D01*
X1878330Y6595262D01*
X1865934Y6589522D01*
X1854454Y6582156D01*
X1844039Y6573367D01*
X1834896Y6563258D01*
X1827174Y6552031D01*
X1821027Y6539839D01*
X1816557Y6526936D01*
X1813814Y6513576D01*
X1812899Y6499961D01*
X1813814Y6486398D01*
X1815338Y6478879D01*
X1815439Y6475577D01*
X1814525Y6472377D01*
X1812594Y6469684D01*
X1768551Y6425641D01*
X1765249Y6423456D01*
X1761337Y6422694D01*
X974699Y6422694D01*
X970280Y6423660D01*
X966774Y6426504D01*
X964793Y6430568D01*
X964793Y6435039D01*
X966724Y6439154D01*
X969162Y6442202D01*
X976121Y6453936D01*
X981456Y6466484D01*
X985012Y6479641D01*
X986840Y6493154D01*
X986840Y6506819D01*
X985012Y6520332D01*
X981456Y6533489D01*
X976121Y6546037D01*
X969162Y6557772D01*
X960729Y6568440D01*
X950925Y6577939D01*
X939952Y6586016D01*
X927963Y6592570D01*
X915263Y6597497D01*
X901953Y6600647D01*
X888390Y6602018D01*
X874776Y6601561D01*
X861314Y6599275D01*
X851103Y6596125D01*
X847496Y6595668D01*
X843940Y6596583D01*
X840943Y6598666D01*
X655523Y6784086D01*
X653288Y6787388D01*
X652526Y6791248D01*
X652526Y7604556D01*
X651713Y7612583D01*
X649528Y7619796D01*
X645972Y7626451D01*
X640842Y7632700D01*
X578459Y7695082D01*
X576326Y7698282D01*
X575513Y7701991D01*
X576122Y7705801D01*
X579323Y7714437D01*
X582472Y7728305D01*
X583844Y7742428D01*
X583387Y7756652D01*
X581101Y7770672D01*
X577088Y7784287D01*
X571296Y7797292D01*
X563930Y7809433D01*
X555091Y7820558D01*
X544880Y7830413D01*
X533501Y7838897D01*
X521106Y7845907D01*
X507949Y7851241D01*
X494182Y7854848D01*
X480110Y7856626D01*
X465886Y7856626D01*
X451815Y7854848D01*
X438048Y7851241D01*
X424891Y7845907D01*
X412496Y7838897D01*
X401116Y7830413D01*
X390906Y7820558D01*
X382066Y7809433D01*
X374700Y7797292D01*
X368960Y7784287D01*
X364896Y7770672D01*
X362610Y7756652D01*
X362153Y7742428D01*
X363524Y7728305D01*
X366674Y7714437D01*
X371602Y7701076D01*
X378155Y7688478D01*
X386283Y7676845D01*
X395833Y7666329D01*
X406654Y7657134D01*
X418592Y7649362D01*
X431393Y7643215D01*
X444855Y7638745D01*
X458825Y7636002D01*
X472998Y7635087D01*
X487172Y7636002D01*
X501142Y7638745D01*
X513588Y7642859D01*
X517245Y7643368D01*
X520903Y7642504D01*
X523951Y7640421D01*
X572312Y7592009D01*
X574548Y7588707D01*
X575310Y7584846D01*
X575310Y7270038D01*
X574548Y7266178D01*
X572312Y7262875D01*
X569061Y7260691D01*
X565150Y7259878D01*
X546354Y7259878D01*
X546354Y7200341D01*
X565150Y7200341D01*
X569061Y7199579D01*
X572312Y7197344D01*
X574548Y7194042D01*
X575310Y7190181D01*
X575310Y7117791D01*
X574548Y7113930D01*
X572312Y7110628D01*
X569061Y7108393D01*
X565150Y7107631D01*
X546354Y7107631D01*
X546354Y7048093D01*
X565150Y7048093D01*
X569061Y7047280D01*
X572312Y7045096D01*
X574548Y7041794D01*
X575310Y7037933D01*
X575310Y6995769D01*
X574395Y6991502D01*
X571754Y6987997D01*
X567893Y6985965D01*
X563575Y6985711D01*
X559511Y6987286D01*
X552958Y6991705D01*
X540512Y6997801D01*
X527405Y7002272D01*
X513842Y7004964D01*
X500024Y7005878D01*
X486156Y7004964D01*
X472592Y7002272D01*
X459485Y6997801D01*
X447040Y6991705D01*
X435559Y6983984D01*
X425145Y6974840D01*
X416001Y6964425D01*
X408279Y6952945D01*
X402183Y6940499D01*
X397713Y6927392D01*
X395020Y6913829D01*
X394106Y6899960D01*
X395020Y6886143D01*
X397713Y6872579D01*
X402183Y6859473D01*
X408279Y6847027D01*
X416001Y6835546D01*
X425145Y6825132D01*
X435559Y6815988D01*
X447040Y6808266D01*
X459485Y6802170D01*
X472592Y6797700D01*
X486156Y6795008D01*
X500024Y6794093D01*
X513842Y6795008D01*
X527405Y6797700D01*
X540512Y6802170D01*
X552958Y6808266D01*
X559511Y6812686D01*
X563575Y6814261D01*
X567893Y6814007D01*
X571754Y6811924D01*
X574395Y6808470D01*
X575310Y6804202D01*
X575310Y6771538D01*
X576122Y6763512D01*
X578307Y6756298D01*
X581863Y6749643D01*
X586994Y6743395D01*
X786384Y6544005D01*
X788517Y6540855D01*
X789330Y6537198D01*
X788822Y6533489D01*
X786536Y6526936D01*
X783844Y6513576D01*
X782929Y6499961D01*
X783844Y6486398D01*
X786536Y6473037D01*
X791006Y6460134D01*
X797153Y6447942D01*
X803605Y6438595D01*
X805230Y6434531D01*
X805027Y6430162D01*
X802995Y6426301D01*
X799490Y6423609D01*
X795223Y6422694D01*
X719683Y6422694D01*
X715772Y6423456D01*
X712470Y6425641D01*
X703935Y6434175D01*
X701751Y6437477D01*
X700989Y6441389D01*
X700989Y6495796D01*
X700786Y6500469D01*
X700176Y6504889D01*
X699211Y6509207D01*
X697890Y6513474D01*
X696163Y6517589D01*
X694131Y6521551D01*
X691743Y6525259D01*
X689051Y6528816D01*
X685850Y6532270D01*
X605688Y6612483D01*
X603758Y6615175D01*
X602792Y6618325D01*
X602894Y6621627D01*
X604977Y6632143D01*
X605891Y6645960D01*
X604977Y6659829D01*
X602284Y6673392D01*
X597814Y6686499D01*
X591718Y6698945D01*
X583996Y6710425D01*
X574852Y6720840D01*
X564438Y6729984D01*
X552958Y6737705D01*
X540512Y6743801D01*
X527405Y6748272D01*
X513842Y6750964D01*
X500024Y6751878D01*
X486156Y6750964D01*
X472592Y6748272D01*
X459485Y6743801D01*
X447040Y6737705D01*
X435559Y6729984D01*
X425145Y6720840D01*
X416001Y6710425D01*
X408279Y6698945D01*
X402183Y6686499D01*
X397713Y6673392D01*
X395020Y6659829D01*
X394106Y6645960D01*
X395020Y6632143D01*
X397713Y6618579D01*
X402183Y6605473D01*
X408279Y6593027D01*
X416001Y6581546D01*
X425145Y6571132D01*
X435559Y6561988D01*
X447040Y6554266D01*
X459485Y6548170D01*
X472592Y6543700D01*
X486156Y6541007D01*
X500024Y6540093D01*
X513842Y6541007D01*
X524357Y6543090D01*
X527659Y6543192D01*
X530860Y6542227D01*
X533552Y6540347D01*
X595985Y6477863D01*
X598170Y6474561D01*
X598932Y6470700D01*
X598932Y6441389D01*
X598170Y6437477D01*
X595985Y6434175D01*
X293979Y6132220D01*
X290830Y6128766D01*
X288137Y6125210D01*
X285750Y6121501D01*
X283667Y6117539D01*
X281990Y6113424D01*
X280619Y6109157D01*
X279654Y6104839D01*
X279095Y6100419D01*
X278892Y6095746D01*
X278892Y5364022D01*
X279095Y5359349D01*
X279654Y5354929D01*
X280619Y5350611D01*
X281990Y5346344D01*
X283667Y5342229D01*
X285750Y5338318D01*
X288137Y5334558D01*
X290830Y5331002D01*
X293979Y5327548D01*
X338480Y5283098D01*
X341934Y5279948D01*
X345440Y5277205D01*
X349199Y5274818D01*
X353161Y5272786D01*
X357276Y5271058D01*
X361492Y5269738D01*
X365861Y5268772D01*
X370179Y5268214D01*
X379171Y5267960D01*
X382981Y5267147D01*
X386181Y5264912D01*
X388366Y5261660D01*
X389077Y5257800D01*
X389077Y5234584D01*
X389788Y5228234D01*
X391718Y5222798D01*
X394817Y5217871D01*
X398881Y5213807D01*
X403809Y5210708D01*
X409244Y5208778D01*
X415594Y5208066D01*
X584403Y5208066D01*
X590753Y5208778D01*
X596188Y5210708D01*
X601116Y5213807D01*
X605180Y5217871D01*
X608279Y5222798D01*
X610209Y5228234D01*
X610920Y5234584D01*
X610920Y5403392D01*
X610209Y5409742D01*
X608279Y5415178D01*
X605180Y5420106D01*
X601116Y5424170D01*
X596188Y5427268D01*
X590753Y5429199D01*
X584403Y5429910D01*
X415594Y5429910D01*
X409244Y5429199D01*
X403809Y5427268D01*
X394970Y5421376D01*
X391058Y5420563D01*
X387197Y5421376D01*
X383895Y5423560D01*
X381660Y5426862D01*
X380898Y5430723D01*
X380898Y5520588D01*
X381660Y5524449D01*
X383641Y5527446D01*
X381660Y5530392D01*
X380898Y5534304D01*
X380898Y5611672D01*
X381660Y5615584D01*
X383743Y5618683D01*
X381863Y5621020D01*
X380898Y5625388D01*
X380898Y5699861D01*
X381660Y5703773D01*
X383895Y5707075D01*
X387197Y5709259D01*
X391058Y5710021D01*
X394970Y5709259D01*
X398272Y5707075D01*
X431190Y5674156D01*
X433476Y5670651D01*
X434136Y5666536D01*
X433120Y5662523D01*
X430580Y5659221D01*
X422859Y5652668D01*
X413308Y5642102D01*
X405180Y5630468D01*
X400659Y5621832D01*
X451154Y5621832D01*
X451154Y5651246D01*
X451916Y5655106D01*
X454101Y5658408D01*
X457403Y5660593D01*
X461314Y5661406D01*
X512724Y5661406D01*
X516635Y5660593D01*
X519938Y5658408D01*
X545896Y5632450D01*
X548081Y5629148D01*
X548843Y5625287D01*
X548843Y5621832D01*
X552297Y5621832D01*
X556158Y5621070D01*
X559460Y5618886D01*
X1508506Y4669790D01*
X1510741Y4666488D01*
X1511503Y4662627D01*
X1511503Y3612387D01*
X1512316Y3604361D01*
X1514500Y3597148D01*
X1518056Y3590442D01*
X1523187Y3584244D01*
X2463342Y2644038D01*
X2465425Y2641041D01*
X2466289Y2637485D01*
X2465832Y2633878D01*
X2462682Y2623667D01*
X2460396Y2610205D01*
X2459990Y2596591D01*
X2461310Y2583027D01*
X2464511Y2569768D01*
X2469388Y2557018D01*
X2475941Y2545080D01*
X2484018Y2534107D01*
X2493518Y2524302D01*
X2504236Y2515819D01*
X2515971Y2508859D01*
X2528519Y2503576D01*
X2541676Y2499969D01*
X2555189Y2498140D01*
X2568803Y2498140D01*
X2582316Y2499969D01*
X2595473Y2503576D01*
X2608021Y2508859D01*
X2619756Y2515819D01*
X2630474Y2524302D01*
X2639974Y2534107D01*
X2648051Y2545080D01*
X2654096Y2556103D01*
X2656382Y2558897D01*
X2659481Y2560726D01*
X2662986Y2561386D01*
X2994914Y2561386D01*
X2998571Y2560675D01*
X3001772Y2558745D01*
X3004007Y2555748D01*
X3008274Y2547061D01*
X3015996Y2535529D01*
X3025140Y2525115D01*
X3035554Y2515971D01*
X3047034Y2508300D01*
X3059480Y2502154D01*
X3072587Y2497734D01*
X3086150Y2494991D01*
G37*
G36*
X500024Y2748127D02*
G01*
X513842Y2748991D01*
X527405Y2751734D01*
X540512Y2756154D01*
X552958Y2762300D01*
X564438Y2769971D01*
X574852Y2779115D01*
X583996Y2789529D01*
X591718Y2801061D01*
X595985Y2809748D01*
X598220Y2812745D01*
X601421Y2814675D01*
X605078Y2815386D01*
X937006Y2815386D01*
X940511Y2814726D01*
X943610Y2812897D01*
X945896Y2810103D01*
X951941Y2799080D01*
X960018Y2788107D01*
X969518Y2778302D01*
X980236Y2769819D01*
X991971Y2762859D01*
X1004519Y2757576D01*
X1017676Y2753969D01*
X1031189Y2752140D01*
X1044803Y2752140D01*
X1058316Y2753969D01*
X1071473Y2757576D01*
X1084021Y2762859D01*
X1095756Y2769819D01*
X1106474Y2778302D01*
X1115974Y2788107D01*
X1124051Y2799080D01*
X1130604Y2811018D01*
X1135481Y2823768D01*
X1138682Y2837027D01*
X1140002Y2850591D01*
X1139596Y2864205D01*
X1137310Y2877667D01*
X1133246Y2890672D01*
X1127506Y2903067D01*
X1120190Y2914548D01*
X1111402Y2924962D01*
X1101242Y2934106D01*
X1090015Y2941828D01*
X1077874Y2947974D01*
X1064971Y2952445D01*
X1051610Y2955188D01*
X1037996Y2956052D01*
X1024382Y2955188D01*
X1011021Y2952445D01*
X998169Y2947974D01*
X985977Y2941828D01*
X974750Y2934106D01*
X964641Y2924962D01*
X955802Y2914548D01*
X948486Y2903067D01*
X946353Y2898495D01*
X944118Y2895396D01*
X940917Y2893314D01*
X937158Y2892602D01*
X605078Y2892602D01*
X601421Y2893314D01*
X598220Y2895295D01*
X595985Y2898292D01*
X591718Y2906928D01*
X583996Y2918460D01*
X574852Y2928874D01*
X564438Y2938018D01*
X552958Y2945688D01*
X540512Y2951835D01*
X527405Y2956255D01*
X513842Y2958998D01*
X500024Y2959862D01*
X486156Y2958998D01*
X472592Y2956255D01*
X459485Y2951835D01*
X447040Y2945688D01*
X435559Y2938018D01*
X425145Y2928874D01*
X416001Y2918460D01*
X408279Y2906928D01*
X402183Y2894533D01*
X397713Y2881376D01*
X395020Y2867812D01*
X394106Y2853994D01*
X395020Y2840177D01*
X397713Y2826613D01*
X402183Y2813456D01*
X408279Y2801061D01*
X416001Y2789529D01*
X425145Y2779115D01*
X435559Y2769971D01*
X447040Y2762300D01*
X459485Y2756154D01*
X472592Y2751734D01*
X486156Y2748991D01*
G37*
G36*
X3099968Y3002127D02*
G01*
X3113836Y3002991D01*
X3127400Y3005734D01*
X3140506Y3010154D01*
X3152952Y3016300D01*
X3164433Y3023971D01*
X3174847Y3033115D01*
X3183991Y3043529D01*
X3191713Y3055061D01*
X3197809Y3067456D01*
X3202279Y3080613D01*
X3204972Y3094177D01*
X3205886Y3107994D01*
X3204972Y3121812D01*
X3202279Y3135376D01*
X3197809Y3148533D01*
X3191713Y3160928D01*
X3183991Y3172460D01*
X3174847Y3182874D01*
X3164433Y3192018D01*
X3152952Y3199688D01*
X3140506Y3205835D01*
X3127400Y3210255D01*
X3113836Y3212998D01*
X3099968Y3213862D01*
X3086150Y3212998D01*
X3072587Y3210255D01*
X3059480Y3205835D01*
X3047034Y3199688D01*
X3035554Y3192018D01*
X3025140Y3182874D01*
X3015996Y3172460D01*
X3008274Y3160928D01*
X3004007Y3152292D01*
X3001772Y3149295D01*
X2998571Y3147314D01*
X2994914Y3146602D01*
X2662834Y3146602D01*
X2659075Y3147314D01*
X2655874Y3149396D01*
X2653639Y3152495D01*
X2651506Y3157067D01*
X2644190Y3168548D01*
X2635351Y3178962D01*
X2625242Y3188106D01*
X2614015Y3195828D01*
X2601823Y3201974D01*
X2588971Y3206445D01*
X2575610Y3209188D01*
X2561996Y3210052D01*
X2548382Y3209188D01*
X2535021Y3206445D01*
X2522118Y3201974D01*
X2509977Y3195828D01*
X2498750Y3188106D01*
X2488590Y3178962D01*
X2479802Y3168548D01*
X2472486Y3157067D01*
X2466746Y3144672D01*
X2462682Y3131667D01*
X2460396Y3118205D01*
X2459990Y3104591D01*
X2461310Y3091027D01*
X2464511Y3077768D01*
X2469388Y3065018D01*
X2475941Y3053080D01*
X2484018Y3042107D01*
X2493518Y3032302D01*
X2504236Y3023819D01*
X2515971Y3016859D01*
X2528519Y3011576D01*
X2541676Y3007969D01*
X2555189Y3006140D01*
X2568803Y3006140D01*
X2582316Y3007969D01*
X2595473Y3011576D01*
X2608021Y3016859D01*
X2619756Y3023819D01*
X2630474Y3032302D01*
X2639974Y3042107D01*
X2648051Y3053080D01*
X2654096Y3064103D01*
X2656382Y3066897D01*
X2659481Y3068726D01*
X2662986Y3069386D01*
X2994914Y3069386D01*
X2998571Y3068675D01*
X3001772Y3066745D01*
X3004007Y3063748D01*
X3008274Y3055061D01*
X3015996Y3043529D01*
X3025140Y3033115D01*
X3035554Y3023971D01*
X3047034Y3016300D01*
X3059480Y3010154D01*
X3072587Y3005734D01*
X3086150Y3002991D01*
G37*
G36*
X500024Y3002127D02*
G01*
X513842Y3002991D01*
X527405Y3005734D01*
X540512Y3010154D01*
X552958Y3016300D01*
X564438Y3023971D01*
X574852Y3033115D01*
X583996Y3043529D01*
X591718Y3055061D01*
X595985Y3063748D01*
X598220Y3066745D01*
X601421Y3068675D01*
X605078Y3069386D01*
X937006Y3069386D01*
X940511Y3068726D01*
X943610Y3066897D01*
X945896Y3064103D01*
X951941Y3053080D01*
X960018Y3042107D01*
X969518Y3032302D01*
X980236Y3023819D01*
X991971Y3016859D01*
X1004519Y3011576D01*
X1017676Y3007969D01*
X1031189Y3006140D01*
X1044803Y3006140D01*
X1058316Y3007969D01*
X1071473Y3011576D01*
X1084021Y3016859D01*
X1095756Y3023819D01*
X1106474Y3032302D01*
X1115974Y3042107D01*
X1124051Y3053080D01*
X1130604Y3065018D01*
X1135481Y3077768D01*
X1138682Y3091027D01*
X1140002Y3104591D01*
X1139596Y3118205D01*
X1137310Y3131667D01*
X1133246Y3144672D01*
X1127506Y3157067D01*
X1120190Y3168548D01*
X1111402Y3178962D01*
X1101242Y3188106D01*
X1090015Y3195828D01*
X1077874Y3201974D01*
X1064971Y3206445D01*
X1051610Y3209188D01*
X1037996Y3210052D01*
X1024382Y3209188D01*
X1011021Y3206445D01*
X998169Y3201974D01*
X985977Y3195828D01*
X974750Y3188106D01*
X964641Y3178962D01*
X955802Y3168548D01*
X948486Y3157067D01*
X946353Y3152495D01*
X944118Y3149396D01*
X940917Y3147314D01*
X937158Y3146602D01*
X605078Y3146602D01*
X601421Y3147314D01*
X598220Y3149295D01*
X595985Y3152292D01*
X591718Y3160928D01*
X583996Y3172460D01*
X574852Y3182874D01*
X564438Y3192018D01*
X552958Y3199688D01*
X540512Y3205835D01*
X527405Y3210255D01*
X513842Y3212998D01*
X500024Y3213862D01*
X486156Y3212998D01*
X472592Y3210255D01*
X459485Y3205835D01*
X447040Y3199688D01*
X435559Y3192018D01*
X425145Y3182874D01*
X416001Y3172460D01*
X408279Y3160928D01*
X402183Y3148533D01*
X397713Y3135376D01*
X395020Y3121812D01*
X394106Y3107994D01*
X395020Y3094177D01*
X397713Y3080613D01*
X402183Y3067456D01*
X408279Y3055061D01*
X416001Y3043529D01*
X425145Y3033115D01*
X435559Y3023971D01*
X447040Y3016300D01*
X459485Y3010154D01*
X472592Y3005734D01*
X486156Y3002991D01*
G37*
G36*
X3099968Y3256127D02*
G01*
X3113836Y3256991D01*
X3127400Y3259734D01*
X3140506Y3264153D01*
X3152952Y3270300D01*
X3164433Y3277971D01*
X3174847Y3287115D01*
X3183991Y3297529D01*
X3191713Y3309061D01*
X3197809Y3321456D01*
X3202279Y3334613D01*
X3204972Y3348177D01*
X3205886Y3361994D01*
X3204972Y3375812D01*
X3202279Y3389376D01*
X3197809Y3402533D01*
X3191713Y3414928D01*
X3183991Y3426460D01*
X3174847Y3436874D01*
X3164433Y3446018D01*
X3152952Y3453688D01*
X3140506Y3459835D01*
X3127400Y3464255D01*
X3113836Y3466998D01*
X3099968Y3467862D01*
X3086150Y3466998D01*
X3072587Y3464255D01*
X3059480Y3459835D01*
X3047034Y3453688D01*
X3035554Y3446018D01*
X3025140Y3436874D01*
X3015996Y3426460D01*
X3008274Y3414928D01*
X3004007Y3406292D01*
X3001772Y3403295D01*
X2998571Y3401314D01*
X2994914Y3400602D01*
X2662834Y3400602D01*
X2659075Y3401314D01*
X2655874Y3403396D01*
X2653639Y3406495D01*
X2651506Y3411067D01*
X2644190Y3422548D01*
X2635351Y3432962D01*
X2625242Y3442106D01*
X2614015Y3449828D01*
X2601823Y3455974D01*
X2588971Y3460445D01*
X2575610Y3463188D01*
X2561996Y3464051D01*
X2548382Y3463188D01*
X2535021Y3460445D01*
X2522118Y3455974D01*
X2509977Y3449828D01*
X2498750Y3442106D01*
X2488590Y3432962D01*
X2479802Y3422548D01*
X2472486Y3411067D01*
X2466746Y3398672D01*
X2462682Y3385667D01*
X2460396Y3372205D01*
X2459990Y3358591D01*
X2461310Y3345027D01*
X2464511Y3331768D01*
X2469388Y3319018D01*
X2475941Y3307079D01*
X2484018Y3296107D01*
X2493518Y3286302D01*
X2504236Y3277819D01*
X2515971Y3270859D01*
X2528519Y3265576D01*
X2541676Y3261969D01*
X2555189Y3260140D01*
X2568803Y3260140D01*
X2582316Y3261969D01*
X2595473Y3265576D01*
X2608021Y3270859D01*
X2619756Y3277819D01*
X2630474Y3286302D01*
X2639974Y3296107D01*
X2648051Y3307079D01*
X2654096Y3318103D01*
X2656382Y3320897D01*
X2659481Y3322726D01*
X2662986Y3323386D01*
X2994914Y3323386D01*
X2998571Y3322675D01*
X3001772Y3320745D01*
X3004007Y3317748D01*
X3008274Y3309061D01*
X3015996Y3297529D01*
X3025140Y3287115D01*
X3035554Y3277971D01*
X3047034Y3270300D01*
X3059480Y3264153D01*
X3072587Y3259734D01*
X3086150Y3256991D01*
G37*
G36*
X500024Y3256127D02*
G01*
X513842Y3256991D01*
X527405Y3259734D01*
X540512Y3264153D01*
X552958Y3270300D01*
X564438Y3277971D01*
X574852Y3287115D01*
X583996Y3297529D01*
X591718Y3309061D01*
X595985Y3317748D01*
X598220Y3320745D01*
X601421Y3322675D01*
X605078Y3323386D01*
X937006Y3323386D01*
X940511Y3322726D01*
X943610Y3320897D01*
X945896Y3318103D01*
X951941Y3307079D01*
X960018Y3296107D01*
X969518Y3286302D01*
X980236Y3277819D01*
X991971Y3270859D01*
X1004519Y3265576D01*
X1017676Y3261969D01*
X1031189Y3260140D01*
X1044803Y3260140D01*
X1058316Y3261969D01*
X1071473Y3265576D01*
X1084021Y3270859D01*
X1095756Y3277819D01*
X1106474Y3286302D01*
X1115974Y3296107D01*
X1124051Y3307079D01*
X1130604Y3319018D01*
X1135481Y3331768D01*
X1138682Y3345027D01*
X1140002Y3358591D01*
X1139596Y3372205D01*
X1137310Y3385667D01*
X1133246Y3398672D01*
X1127506Y3411067D01*
X1120190Y3422548D01*
X1111402Y3432962D01*
X1101242Y3442106D01*
X1090015Y3449828D01*
X1077874Y3455974D01*
X1064971Y3460445D01*
X1051610Y3463188D01*
X1037996Y3464051D01*
X1024382Y3463188D01*
X1011021Y3460445D01*
X998169Y3455974D01*
X985977Y3449828D01*
X974750Y3442106D01*
X964641Y3432962D01*
X955802Y3422548D01*
X948486Y3411067D01*
X946353Y3406495D01*
X944118Y3403396D01*
X940917Y3401314D01*
X937158Y3400602D01*
X605078Y3400602D01*
X601421Y3401314D01*
X598220Y3403295D01*
X595985Y3406292D01*
X591718Y3414928D01*
X583996Y3426460D01*
X574852Y3436874D01*
X564438Y3446018D01*
X552958Y3453688D01*
X540512Y3459835D01*
X527405Y3464255D01*
X513842Y3466998D01*
X500024Y3467862D01*
X486156Y3466998D01*
X472592Y3464255D01*
X459485Y3459835D01*
X447040Y3453688D01*
X435559Y3446018D01*
X425145Y3436874D01*
X416001Y3426460D01*
X408279Y3414928D01*
X402183Y3402533D01*
X397713Y3389376D01*
X395020Y3375812D01*
X394106Y3361994D01*
X395020Y3348177D01*
X397713Y3334613D01*
X402183Y3321456D01*
X408279Y3309061D01*
X416001Y3297529D01*
X425145Y3287115D01*
X435559Y3277971D01*
X447040Y3270300D01*
X459485Y3264153D01*
X472592Y3259734D01*
X486156Y3256991D01*
G37*
G36*
X3099968Y3510127D02*
G01*
X3113836Y3510991D01*
X3127400Y3513734D01*
X3140506Y3518154D01*
X3152952Y3524300D01*
X3164433Y3531971D01*
X3174847Y3541115D01*
X3183991Y3551529D01*
X3191713Y3563061D01*
X3197809Y3575456D01*
X3202279Y3588613D01*
X3204972Y3602177D01*
X3205886Y3615994D01*
X3204972Y3629812D01*
X3202279Y3643376D01*
X3197809Y3656533D01*
X3191713Y3668928D01*
X3183991Y3680460D01*
X3174847Y3690874D01*
X3164433Y3700018D01*
X3152952Y3707688D01*
X3140506Y3713835D01*
X3127400Y3718255D01*
X3113836Y3720998D01*
X3099968Y3721862D01*
X3086150Y3720998D01*
X3072587Y3718255D01*
X3059480Y3713835D01*
X3047034Y3707688D01*
X3035554Y3700018D01*
X3025140Y3690874D01*
X3015996Y3680460D01*
X3008274Y3668928D01*
X3004007Y3660292D01*
X3001772Y3657295D01*
X2998571Y3655314D01*
X2994914Y3654602D01*
X2662834Y3654602D01*
X2659075Y3655314D01*
X2655874Y3657396D01*
X2653639Y3660495D01*
X2651506Y3665067D01*
X2644190Y3676548D01*
X2635351Y3686962D01*
X2625242Y3696106D01*
X2614015Y3703828D01*
X2601823Y3709974D01*
X2588971Y3714445D01*
X2575610Y3717188D01*
X2561996Y3718051D01*
X2548382Y3717188D01*
X2535021Y3714445D01*
X2522118Y3709974D01*
X2509977Y3703828D01*
X2498750Y3696106D01*
X2488590Y3686962D01*
X2479802Y3676548D01*
X2472486Y3665067D01*
X2466746Y3652672D01*
X2462682Y3639667D01*
X2460396Y3626205D01*
X2459990Y3612591D01*
X2461310Y3599027D01*
X2464511Y3585768D01*
X2469388Y3573018D01*
X2475941Y3561079D01*
X2484018Y3550107D01*
X2493518Y3540302D01*
X2504236Y3531819D01*
X2515971Y3524859D01*
X2528519Y3519576D01*
X2541676Y3515969D01*
X2555189Y3514140D01*
X2568803Y3514140D01*
X2582316Y3515969D01*
X2595473Y3519576D01*
X2608021Y3524859D01*
X2619756Y3531819D01*
X2630474Y3540302D01*
X2639974Y3550107D01*
X2648051Y3561079D01*
X2654096Y3572103D01*
X2656382Y3574897D01*
X2659481Y3576726D01*
X2662986Y3577386D01*
X2994914Y3577386D01*
X2998571Y3576675D01*
X3001772Y3574745D01*
X3004007Y3571748D01*
X3008274Y3563061D01*
X3015996Y3551529D01*
X3025140Y3541115D01*
X3035554Y3531971D01*
X3047034Y3524300D01*
X3059480Y3518154D01*
X3072587Y3513734D01*
X3086150Y3510991D01*
G37*
G36*
X546354Y3521049D02*
G01*
X552958Y3524300D01*
X564438Y3531971D01*
X574852Y3541115D01*
X583996Y3551529D01*
X591718Y3563061D01*
X594969Y3569665D01*
X546354Y3569665D01*
G37*
G36*
X453643Y3521049D02*
G01*
X453643Y3569665D01*
X405028Y3569665D01*
X408279Y3563061D01*
X416001Y3551529D01*
X425145Y3541115D01*
X435559Y3531971D01*
X447040Y3524300D01*
G37*
G36*
X1082446Y3524199D02*
G01*
X1084021Y3524859D01*
X1095756Y3531819D01*
X1106474Y3540302D01*
X1115974Y3550107D01*
X1124051Y3561079D01*
X1129792Y3571544D01*
X1082446Y3571544D01*
G37*
G36*
X993546Y3524199D02*
G01*
X993546Y3571544D01*
X946200Y3571544D01*
X951941Y3561079D01*
X960018Y3550107D01*
X969518Y3540302D01*
X980236Y3531819D01*
X991971Y3524859D01*
G37*
G36*
X1082446Y3660444D02*
G01*
X1129639Y3660444D01*
X1127506Y3665067D01*
X1120190Y3676548D01*
X1111402Y3686962D01*
X1101242Y3696106D01*
X1090015Y3703828D01*
X1082446Y3707637D01*
G37*
G36*
X946353Y3660444D02*
G01*
X993546Y3660444D01*
X993546Y3707637D01*
X985977Y3703828D01*
X974750Y3696106D01*
X964641Y3686962D01*
X955802Y3676548D01*
X948486Y3665067D01*
G37*
G36*
X546354Y3662324D02*
G01*
X594969Y3662324D01*
X591718Y3668928D01*
X583996Y3680460D01*
X574852Y3690874D01*
X564438Y3700018D01*
X552958Y3707688D01*
X546354Y3710940D01*
G37*
G36*
X405028Y3662324D02*
G01*
X453643Y3662324D01*
X453643Y3710940D01*
X447040Y3707688D01*
X435559Y3700018D01*
X425145Y3690874D01*
X416001Y3680460D01*
X408279Y3668928D01*
G37*
G36*
X3099968Y3764127D02*
G01*
X3113836Y3764991D01*
X3127400Y3767734D01*
X3140506Y3772154D01*
X3152952Y3778300D01*
X3164433Y3785971D01*
X3174847Y3795115D01*
X3183991Y3805529D01*
X3191713Y3817061D01*
X3197809Y3829456D01*
X3202279Y3842613D01*
X3204972Y3856177D01*
X3205886Y3869994D01*
X3204972Y3883812D01*
X3202279Y3897376D01*
X3197809Y3910533D01*
X3191713Y3922928D01*
X3183991Y3934460D01*
X3174847Y3944874D01*
X3164433Y3954018D01*
X3152952Y3961688D01*
X3140506Y3967835D01*
X3127400Y3972255D01*
X3113836Y3974998D01*
X3099968Y3975862D01*
X3086150Y3974998D01*
X3072587Y3972255D01*
X3059480Y3967835D01*
X3047034Y3961688D01*
X3035554Y3954018D01*
X3025140Y3944874D01*
X3015996Y3934460D01*
X3008274Y3922928D01*
X3004007Y3914292D01*
X3001772Y3911295D01*
X2998571Y3909314D01*
X2994914Y3908602D01*
X2662834Y3908602D01*
X2659075Y3909314D01*
X2655874Y3911396D01*
X2653639Y3914495D01*
X2651506Y3919067D01*
X2644190Y3930548D01*
X2635351Y3940962D01*
X2625242Y3950106D01*
X2614015Y3957828D01*
X2601823Y3963974D01*
X2588971Y3968445D01*
X2575610Y3971188D01*
X2561996Y3972051D01*
X2548382Y3971188D01*
X2535021Y3968445D01*
X2522118Y3963974D01*
X2509977Y3957828D01*
X2498750Y3950106D01*
X2488590Y3940962D01*
X2479802Y3930548D01*
X2472486Y3919067D01*
X2466746Y3906672D01*
X2462682Y3893667D01*
X2460396Y3880205D01*
X2459990Y3866591D01*
X2461310Y3853027D01*
X2464511Y3839768D01*
X2469388Y3827018D01*
X2475941Y3815079D01*
X2484018Y3804056D01*
X2493518Y3794302D01*
X2504236Y3785819D01*
X2515971Y3778859D01*
X2528519Y3773576D01*
X2541676Y3769969D01*
X2555189Y3768140D01*
X2568803Y3768140D01*
X2582316Y3769969D01*
X2595473Y3773576D01*
X2608021Y3778859D01*
X2619756Y3785819D01*
X2630474Y3794302D01*
X2639974Y3804056D01*
X2648051Y3815079D01*
X2654096Y3826103D01*
X2656382Y3828897D01*
X2659481Y3830726D01*
X2662986Y3831386D01*
X2994914Y3831386D01*
X2998571Y3830675D01*
X3001772Y3828745D01*
X3004007Y3825748D01*
X3008274Y3817061D01*
X3015996Y3805529D01*
X3025140Y3795115D01*
X3035554Y3785971D01*
X3047034Y3778300D01*
X3059480Y3772154D01*
X3072587Y3767734D01*
X3086150Y3764991D01*
G37*
G36*
X500024Y3764127D02*
G01*
X513842Y3764991D01*
X527405Y3767734D01*
X540512Y3772154D01*
X552958Y3778300D01*
X564438Y3785971D01*
X574852Y3795115D01*
X583996Y3805529D01*
X591718Y3817061D01*
X595985Y3825748D01*
X598220Y3828745D01*
X601421Y3830675D01*
X605078Y3831386D01*
X937006Y3831386D01*
X940511Y3830726D01*
X943610Y3828897D01*
X945896Y3826103D01*
X951941Y3815079D01*
X960018Y3804107D01*
X969518Y3794302D01*
X980236Y3785819D01*
X991971Y3778859D01*
X1004519Y3773576D01*
X1017676Y3769969D01*
X1031189Y3768140D01*
X1044803Y3768140D01*
X1058316Y3769969D01*
X1071473Y3773576D01*
X1084021Y3778859D01*
X1095756Y3785819D01*
X1106474Y3794302D01*
X1115974Y3804107D01*
X1124051Y3815079D01*
X1130604Y3827018D01*
X1135481Y3839768D01*
X1138682Y3853027D01*
X1140002Y3866591D01*
X1139596Y3880205D01*
X1137310Y3893667D01*
X1133246Y3906672D01*
X1127506Y3919067D01*
X1120190Y3930548D01*
X1111402Y3940962D01*
X1101242Y3950106D01*
X1090015Y3957828D01*
X1077874Y3963974D01*
X1064971Y3968445D01*
X1051610Y3971188D01*
X1037996Y3972051D01*
X1024382Y3971188D01*
X1011021Y3968445D01*
X998169Y3963974D01*
X985977Y3957828D01*
X974750Y3950106D01*
X964641Y3940962D01*
X955802Y3930548D01*
X948486Y3919067D01*
X946353Y3914495D01*
X944118Y3911396D01*
X940917Y3909314D01*
X937158Y3908602D01*
X605078Y3908602D01*
X601421Y3909314D01*
X598220Y3911295D01*
X595985Y3914292D01*
X591718Y3922928D01*
X583996Y3934460D01*
X574852Y3944874D01*
X564438Y3954018D01*
X552958Y3961688D01*
X540512Y3967835D01*
X527405Y3972255D01*
X513842Y3974998D01*
X500024Y3975862D01*
X486156Y3974998D01*
X472592Y3972255D01*
X459485Y3967835D01*
X447040Y3961688D01*
X435559Y3954018D01*
X425145Y3944874D01*
X416001Y3934460D01*
X408279Y3922928D01*
X402183Y3910533D01*
X397713Y3897376D01*
X395020Y3883812D01*
X394106Y3869994D01*
X395020Y3856177D01*
X397713Y3842613D01*
X402183Y3829456D01*
X408279Y3817061D01*
X416001Y3805529D01*
X425145Y3795115D01*
X435559Y3785971D01*
X447040Y3778300D01*
X459485Y3772154D01*
X472592Y3767734D01*
X486156Y3764991D01*
G37*
G36*
X500024Y4018127D02*
G01*
X513842Y4018991D01*
X527405Y4021734D01*
X540512Y4026154D01*
X552958Y4032300D01*
X564438Y4039971D01*
X574852Y4049115D01*
X583996Y4059529D01*
X591718Y4071061D01*
X595985Y4079748D01*
X598220Y4082745D01*
X601421Y4084675D01*
X605078Y4085386D01*
X937006Y4085386D01*
X940511Y4084726D01*
X943610Y4082897D01*
X945896Y4080103D01*
X951941Y4069079D01*
X960018Y4058107D01*
X969518Y4048302D01*
X980236Y4039819D01*
X991971Y4032859D01*
X1004519Y4027576D01*
X1017676Y4023969D01*
X1031189Y4022140D01*
X1044803Y4022140D01*
X1058316Y4023969D01*
X1071473Y4027576D01*
X1084021Y4032859D01*
X1095756Y4039819D01*
X1106474Y4048302D01*
X1115974Y4058107D01*
X1124051Y4069079D01*
X1130604Y4081018D01*
X1135481Y4093768D01*
X1138682Y4107027D01*
X1140002Y4120591D01*
X1139596Y4134205D01*
X1137310Y4147667D01*
X1133246Y4160672D01*
X1127506Y4173067D01*
X1120190Y4184548D01*
X1111402Y4194962D01*
X1101242Y4204106D01*
X1090015Y4211828D01*
X1077874Y4217974D01*
X1064971Y4222445D01*
X1051610Y4225188D01*
X1037996Y4226052D01*
X1024382Y4225188D01*
X1011021Y4222445D01*
X998169Y4217974D01*
X985977Y4211828D01*
X974750Y4204106D01*
X964641Y4194962D01*
X955802Y4184548D01*
X948486Y4173067D01*
X946353Y4168495D01*
X944118Y4165396D01*
X940917Y4163314D01*
X937158Y4162602D01*
X605078Y4162602D01*
X601421Y4163314D01*
X598220Y4165295D01*
X595985Y4168292D01*
X591718Y4176928D01*
X583996Y4188460D01*
X574852Y4198874D01*
X564438Y4208018D01*
X552958Y4215688D01*
X540512Y4221835D01*
X527405Y4226255D01*
X513842Y4228998D01*
X500024Y4229862D01*
X486156Y4228998D01*
X472592Y4226255D01*
X459485Y4221835D01*
X447040Y4215688D01*
X435559Y4208018D01*
X425145Y4198874D01*
X416001Y4188460D01*
X408279Y4176928D01*
X402183Y4164533D01*
X397713Y4151376D01*
X395020Y4137812D01*
X394106Y4123994D01*
X395020Y4110177D01*
X397713Y4096613D01*
X402183Y4083456D01*
X408279Y4071061D01*
X416001Y4059529D01*
X425145Y4049115D01*
X435559Y4039971D01*
X447040Y4032300D01*
X459485Y4026154D01*
X472592Y4021734D01*
X486156Y4018991D01*
G37*
G36*
X3053638Y4029049D02*
G01*
X3053638Y4077665D01*
X3005023Y4077665D01*
X3008274Y4071061D01*
X3015996Y4059529D01*
X3025140Y4049115D01*
X3035554Y4039971D01*
X3047034Y4032300D01*
G37*
G36*
X3146348Y4029049D02*
G01*
X3152952Y4032300D01*
X3164433Y4039971D01*
X3174847Y4049115D01*
X3183991Y4059529D01*
X3191713Y4071061D01*
X3194964Y4077665D01*
X3146348Y4077665D01*
G37*
G36*
X2517546Y4032199D02*
G01*
X2517546Y4079544D01*
X2470200Y4079544D01*
X2475941Y4069079D01*
X2484018Y4058056D01*
X2493518Y4048302D01*
X2504236Y4039819D01*
X2515971Y4032859D01*
G37*
G36*
X2606446Y4032199D02*
G01*
X2608021Y4032859D01*
X2619756Y4039819D01*
X2630474Y4048302D01*
X2639974Y4058056D01*
X2648051Y4069079D01*
X2653792Y4079544D01*
X2606446Y4079544D01*
G37*
G36*
X2470353Y4168444D02*
G01*
X2517546Y4168444D01*
X2517546Y4215638D01*
X2509977Y4211828D01*
X2498750Y4204106D01*
X2488590Y4194962D01*
X2479802Y4184548D01*
X2472486Y4173067D01*
G37*
G36*
X2606446Y4168444D02*
G01*
X2653639Y4168444D01*
X2651506Y4173067D01*
X2644190Y4184548D01*
X2635351Y4194962D01*
X2625242Y4204106D01*
X2614015Y4211828D01*
X2606446Y4215638D01*
G37*
G36*
X3146348Y4170324D02*
G01*
X3194964Y4170324D01*
X3191713Y4176928D01*
X3183991Y4188460D01*
X3174847Y4198874D01*
X3164433Y4208018D01*
X3152952Y4215688D01*
X3146348Y4218940D01*
G37*
G36*
X3005023Y4170324D02*
G01*
X3053638Y4170324D01*
X3053638Y4218940D01*
X3047034Y4215688D01*
X3035554Y4208018D01*
X3025140Y4198874D01*
X3015996Y4188460D01*
X3008274Y4176928D01*
G37*
G36*
X3099968Y4272127D02*
G01*
X3113836Y4272991D01*
X3127400Y4275734D01*
X3140506Y4280154D01*
X3152952Y4286300D01*
X3164433Y4293971D01*
X3174847Y4303115D01*
X3183991Y4313529D01*
X3191713Y4325061D01*
X3197809Y4337456D01*
X3202279Y4350613D01*
X3204972Y4364177D01*
X3205886Y4377994D01*
X3204972Y4391812D01*
X3202279Y4405376D01*
X3197809Y4418533D01*
X3191713Y4430928D01*
X3183991Y4442460D01*
X3174847Y4452874D01*
X3164433Y4462018D01*
X3152952Y4469688D01*
X3140506Y4475835D01*
X3127400Y4480255D01*
X3113836Y4482998D01*
X3099968Y4483862D01*
X3086150Y4482998D01*
X3072587Y4480255D01*
X3059480Y4475835D01*
X3047034Y4469688D01*
X3035554Y4462018D01*
X3025140Y4452874D01*
X3015996Y4442460D01*
X3008274Y4430928D01*
X3004007Y4422292D01*
X3001772Y4419295D01*
X2998571Y4417314D01*
X2994914Y4416602D01*
X2662834Y4416602D01*
X2659075Y4417314D01*
X2655874Y4419396D01*
X2653639Y4422495D01*
X2651506Y4427067D01*
X2644190Y4438548D01*
X2635351Y4448962D01*
X2625242Y4458106D01*
X2614015Y4465828D01*
X2601823Y4471974D01*
X2588971Y4476445D01*
X2575610Y4479188D01*
X2561996Y4480052D01*
X2548382Y4479188D01*
X2535021Y4476445D01*
X2522118Y4471974D01*
X2509977Y4465828D01*
X2498750Y4458106D01*
X2488590Y4448962D01*
X2479802Y4438548D01*
X2472486Y4427067D01*
X2466746Y4414672D01*
X2462682Y4401667D01*
X2460396Y4388205D01*
X2459990Y4374591D01*
X2461310Y4361027D01*
X2464511Y4347768D01*
X2469388Y4335018D01*
X2475941Y4323080D01*
X2484018Y4312056D01*
X2493518Y4302302D01*
X2504236Y4293819D01*
X2515971Y4286859D01*
X2528519Y4281576D01*
X2541676Y4277969D01*
X2555189Y4276140D01*
X2568803Y4276140D01*
X2582316Y4277969D01*
X2595473Y4281576D01*
X2608021Y4286859D01*
X2619756Y4293819D01*
X2630474Y4302302D01*
X2639974Y4312056D01*
X2648051Y4323080D01*
X2654096Y4334103D01*
X2656382Y4336897D01*
X2659481Y4338726D01*
X2662986Y4339386D01*
X2994914Y4339386D01*
X2998571Y4338675D01*
X3001772Y4336745D01*
X3004007Y4333748D01*
X3008274Y4325061D01*
X3015996Y4313529D01*
X3025140Y4303115D01*
X3035554Y4293971D01*
X3047034Y4286300D01*
X3059480Y4280154D01*
X3072587Y4275734D01*
X3086150Y4272991D01*
G37*
G36*
X500024Y4272127D02*
G01*
X513842Y4272991D01*
X527405Y4275734D01*
X540512Y4280154D01*
X552958Y4286300D01*
X564438Y4293971D01*
X574852Y4303115D01*
X583996Y4313529D01*
X591718Y4325061D01*
X595985Y4333748D01*
X598220Y4336745D01*
X601421Y4338675D01*
X605078Y4339386D01*
X937006Y4339386D01*
X940511Y4338726D01*
X943610Y4336897D01*
X945896Y4334103D01*
X951941Y4323080D01*
X960018Y4312107D01*
X969518Y4302302D01*
X980236Y4293819D01*
X991971Y4286859D01*
X1004519Y4281576D01*
X1017676Y4277969D01*
X1031189Y4276140D01*
X1044803Y4276140D01*
X1058316Y4277969D01*
X1071473Y4281576D01*
X1084021Y4286859D01*
X1095756Y4293819D01*
X1106474Y4302302D01*
X1115974Y4312107D01*
X1124051Y4323080D01*
X1130604Y4335018D01*
X1135481Y4347768D01*
X1138682Y4361027D01*
X1140002Y4374591D01*
X1139596Y4388205D01*
X1137310Y4401667D01*
X1133246Y4414672D01*
X1127506Y4427067D01*
X1120190Y4438548D01*
X1111402Y4448962D01*
X1101242Y4458106D01*
X1090015Y4465828D01*
X1077874Y4471974D01*
X1064971Y4476445D01*
X1051610Y4479188D01*
X1037996Y4480052D01*
X1024382Y4479188D01*
X1011021Y4476445D01*
X998169Y4471974D01*
X985977Y4465828D01*
X974750Y4458106D01*
X964641Y4448962D01*
X955802Y4438548D01*
X948486Y4427067D01*
X946353Y4422495D01*
X944118Y4419396D01*
X940917Y4417314D01*
X937158Y4416602D01*
X605078Y4416602D01*
X601421Y4417314D01*
X598220Y4419295D01*
X595985Y4422292D01*
X591718Y4430928D01*
X583996Y4442460D01*
X574852Y4452874D01*
X564438Y4462018D01*
X552958Y4469688D01*
X540512Y4475835D01*
X527405Y4480255D01*
X513842Y4482998D01*
X500024Y4483862D01*
X486156Y4482998D01*
X472592Y4480255D01*
X459485Y4475835D01*
X447040Y4469688D01*
X435559Y4462018D01*
X425145Y4452874D01*
X416001Y4442460D01*
X408279Y4430928D01*
X402183Y4418533D01*
X397713Y4405376D01*
X395020Y4391812D01*
X394106Y4377994D01*
X395020Y4364177D01*
X397713Y4350613D01*
X402183Y4337456D01*
X408279Y4325061D01*
X416001Y4313529D01*
X425145Y4303115D01*
X435559Y4293971D01*
X447040Y4286300D01*
X459485Y4280154D01*
X472592Y4275734D01*
X486156Y4272991D01*
G37*
G36*
X3048660Y5442305D02*
G01*
X3048660Y5494629D01*
X2996234Y5494629D01*
X3002127Y5483910D01*
X3010712Y5472125D01*
X3020669Y5461508D01*
X3031896Y5452211D01*
X3044139Y5444439D01*
G37*
G36*
X3151327Y5442305D02*
G01*
X3155848Y5444439D01*
X3168091Y5452211D01*
X3179318Y5461508D01*
X3189274Y5472125D01*
X3197860Y5483910D01*
X3203752Y5494629D01*
X3151327Y5494629D01*
G37*
G36*
X451154Y5473496D02*
G01*
X451154Y5524144D01*
X400608Y5524144D01*
X401675Y5521706D01*
X409041Y5509564D01*
X417931Y5498439D01*
X428142Y5488533D01*
X439521Y5480050D01*
G37*
G36*
X548843Y5473496D02*
G01*
X560476Y5480050D01*
X571855Y5488533D01*
X582066Y5498439D01*
X590956Y5509564D01*
X598322Y5521706D01*
X599389Y5524144D01*
X548843Y5524144D01*
G37*
G36*
X2996234Y5597347D02*
G01*
X3048660Y5597347D01*
X3048660Y5649671D01*
X3044139Y5647537D01*
X3031896Y5639765D01*
X3020669Y5630468D01*
X3010712Y5619851D01*
X3002127Y5608066D01*
G37*
G36*
X3151327Y5597347D02*
G01*
X3203752Y5597347D01*
X3197860Y5608066D01*
X3189274Y5619851D01*
X3179318Y5630468D01*
X3168091Y5639765D01*
X3155848Y5647537D01*
X3151327Y5649671D01*
G37*
G36*
X888390Y6897979D02*
G01*
X901953Y6899300D01*
X915263Y6902500D01*
X927963Y6907377D01*
X939952Y6913930D01*
X950925Y6922008D01*
X960729Y6931507D01*
X969162Y6942226D01*
X976121Y6953961D01*
X981456Y6966508D01*
X985012Y6979666D01*
X986840Y6993178D01*
X986840Y7006793D01*
X985012Y7020306D01*
X981456Y7033463D01*
X976121Y7046010D01*
X969162Y7057745D01*
X960729Y7068464D01*
X950925Y7077964D01*
X939952Y7086041D01*
X927963Y7092594D01*
X915263Y7097471D01*
X901953Y7100671D01*
X888390Y7101992D01*
X874776Y7101535D01*
X861314Y7099300D01*
X848309Y7095236D01*
X835914Y7089495D01*
X824433Y7082180D01*
X814019Y7073392D01*
X804875Y7063231D01*
X797153Y7052005D01*
X791006Y7039864D01*
X786536Y7026960D01*
X783844Y7013600D01*
X782929Y6999986D01*
X783844Y6986371D01*
X786536Y6973011D01*
X791006Y6960108D01*
X797153Y6947966D01*
X804875Y6936740D01*
X814019Y6926580D01*
X824433Y6917791D01*
X835914Y6910476D01*
X848309Y6904736D01*
X861314Y6900672D01*
X874776Y6898436D01*
G37*
G36*
X1918411Y6897979D02*
G01*
X1931974Y6899300D01*
X1945233Y6902500D01*
X1957984Y6907377D01*
X1969922Y6913930D01*
X1980895Y6922008D01*
X1990699Y6931507D01*
X1999183Y6942226D01*
X2001316Y6945884D01*
X2003856Y6948728D01*
X2007260Y6950456D01*
X2012950Y6952132D01*
X2016963Y6953758D01*
X2020874Y6955840D01*
X2024634Y6958228D01*
X2028189Y6960920D01*
X2031644Y6964070D01*
X2535834Y7468260D01*
X2538984Y7471714D01*
X2541676Y7475270D01*
X2544064Y7479030D01*
X2546146Y7482941D01*
X2547823Y7487056D01*
X2549194Y7491323D01*
X2550160Y7495641D01*
X2550718Y7500061D01*
X2550922Y7504734D01*
X2550922Y8107832D01*
X2550718Y8112506D01*
X2550160Y8116925D01*
X2549194Y8121243D01*
X2547823Y8125510D01*
X2546146Y8129625D01*
X2544064Y8133588D01*
X2541676Y8137296D01*
X2538984Y8140852D01*
X2535834Y8144306D01*
X2436774Y8243316D01*
X2434793Y8246109D01*
X2433878Y8249361D01*
X2434082Y8252764D01*
X2436469Y8263280D01*
X2437841Y8277453D01*
X2437384Y8291626D01*
X2435098Y8305647D01*
X2431084Y8319262D01*
X2425293Y8332266D01*
X2417927Y8344408D01*
X2409088Y8355533D01*
X2398877Y8365439D01*
X2387498Y8373922D01*
X2375103Y8380882D01*
X2361946Y8386216D01*
X2348179Y8389823D01*
X2334107Y8391652D01*
X2319883Y8391652D01*
X2305812Y8389823D01*
X2299157Y8388096D01*
X2295652Y8387791D01*
X2292248Y8388705D01*
X2289403Y8390737D01*
X2237740Y8442350D01*
X2234285Y8445550D01*
X2230780Y8448243D01*
X2227021Y8450630D01*
X2223058Y8452662D01*
X2218944Y8454390D01*
X2214727Y8455710D01*
X2210358Y8456676D01*
X2205939Y8457285D01*
X2201316Y8457488D01*
X1679702Y8457488D01*
X1675079Y8457285D01*
X1670659Y8456676D01*
X1666290Y8455710D01*
X1662074Y8454390D01*
X1657959Y8452662D01*
X1653997Y8450630D01*
X1650238Y8448243D01*
X1646732Y8445550D01*
X1643278Y8442350D01*
X1564640Y8363712D01*
X1561744Y8361680D01*
X1558340Y8360765D01*
X1554835Y8361070D01*
X1548180Y8362848D01*
X1534109Y8364626D01*
X1519885Y8364626D01*
X1505813Y8362848D01*
X1492046Y8359241D01*
X1478889Y8353907D01*
X1466494Y8346897D01*
X1455115Y8338413D01*
X1444904Y8328558D01*
X1436065Y8317433D01*
X1428699Y8305292D01*
X1422958Y8292287D01*
X1418894Y8278672D01*
X1416608Y8264652D01*
X1416151Y8250428D01*
X1417523Y8236305D01*
X1420672Y8222437D01*
X1425600Y8209076D01*
X1432153Y8196478D01*
X1440281Y8184845D01*
X1449832Y8174329D01*
X1460652Y8165134D01*
X1472590Y8157362D01*
X1485392Y8151215D01*
X1498854Y8146745D01*
X1512824Y8144002D01*
X1526997Y8143087D01*
X1541170Y8144002D01*
X1555140Y8146745D01*
X1568602Y8151215D01*
X1581404Y8157362D01*
X1593342Y8165134D01*
X1604162Y8174329D01*
X1613712Y8184845D01*
X1621840Y8196478D01*
X1628394Y8209076D01*
X1633321Y8222437D01*
X1636471Y8236305D01*
X1637842Y8250428D01*
X1637385Y8264652D01*
X1635099Y8278672D01*
X1634236Y8281568D01*
X1633829Y8285124D01*
X1634744Y8288680D01*
X1636776Y8291626D01*
X1697634Y8352485D01*
X1700936Y8354669D01*
X1704848Y8355431D01*
X1951939Y8355431D01*
X1955800Y8354669D01*
X1959102Y8352485D01*
X1961337Y8349183D01*
X1962099Y8345271D01*
X1962099Y8329828D01*
X2024125Y8329828D01*
X2024125Y8345271D01*
X2024938Y8349183D01*
X2027123Y8352485D01*
X2030425Y8354669D01*
X2034286Y8355431D01*
X2111705Y8355431D01*
X2115566Y8354669D01*
X2118868Y8352485D01*
X2121052Y8349183D01*
X2121865Y8345271D01*
X2121865Y8329828D01*
X2184196Y8329828D01*
X2186076Y8333689D01*
X2189327Y8336381D01*
X2193442Y8337550D01*
X2197658Y8336889D01*
X2201265Y8334603D01*
X2217216Y8318652D01*
X2219248Y8315655D01*
X2220163Y8312150D01*
X2219756Y8308594D01*
X2218893Y8305647D01*
X2216607Y8291626D01*
X2216150Y8277453D01*
X2217521Y8263280D01*
X2220671Y8249412D01*
X2225598Y8236102D01*
X2232152Y8223503D01*
X2240280Y8211870D01*
X2249830Y8201304D01*
X2254402Y8197443D01*
X2256942Y8194192D01*
X2258009Y8190230D01*
X2257399Y8186166D01*
X2255215Y8182711D01*
X2251862Y8180374D01*
X2247849Y8179562D01*
X2193340Y8179562D01*
X2189226Y8180425D01*
X2185771Y8182914D01*
X2183688Y8186623D01*
X2183282Y8190839D01*
X2183892Y8196580D01*
X2183892Y8232140D01*
X2121865Y8232140D01*
X2121865Y8189722D01*
X2121052Y8185810D01*
X2118868Y8182508D01*
X2115566Y8180324D01*
X2111705Y8179562D01*
X2034286Y8179562D01*
X2030425Y8180324D01*
X2027123Y8182508D01*
X2024938Y8185810D01*
X2024125Y8189722D01*
X2024125Y8232140D01*
X1962099Y8232140D01*
X1962099Y8196580D01*
X1962708Y8190839D01*
X1962302Y8186623D01*
X1960219Y8182914D01*
X1956765Y8180425D01*
X1952650Y8179562D01*
X1668475Y8179562D01*
X1660448Y8178749D01*
X1653235Y8176564D01*
X1646529Y8173008D01*
X1640332Y8167878D01*
X1577898Y8105444D01*
X1574596Y8103260D01*
X1570736Y8102498D01*
X1566875Y8103209D01*
X1561947Y8105241D01*
X1548180Y8108848D01*
X1534109Y8110626D01*
X1519885Y8110626D01*
X1505813Y8108848D01*
X1492046Y8105241D01*
X1478889Y8099907D01*
X1466494Y8092897D01*
X1455115Y8084413D01*
X1444904Y8074558D01*
X1436065Y8063433D01*
X1428699Y8051292D01*
X1422958Y8038287D01*
X1418894Y8024672D01*
X1416608Y8010652D01*
X1416151Y7996428D01*
X1417523Y7982305D01*
X1420672Y7968437D01*
X1425600Y7955076D01*
X1432153Y7942478D01*
X1433474Y7940649D01*
X1435150Y7936585D01*
X1434947Y7932216D01*
X1432915Y7928305D01*
X1429410Y7925612D01*
X1425143Y7924698D01*
X1413611Y7924698D01*
X1405585Y7923885D01*
X1398371Y7921701D01*
X1391666Y7918145D01*
X1385468Y7913014D01*
X1323898Y7851444D01*
X1320596Y7849260D01*
X1316736Y7848498D01*
X1312875Y7849209D01*
X1307947Y7851241D01*
X1294180Y7854848D01*
X1280109Y7856626D01*
X1265885Y7856626D01*
X1251813Y7854848D01*
X1238046Y7851241D01*
X1224889Y7845907D01*
X1212494Y7838897D01*
X1201115Y7830413D01*
X1190904Y7820558D01*
X1182065Y7809433D01*
X1174699Y7797292D01*
X1168958Y7784287D01*
X1164894Y7770672D01*
X1162608Y7756652D01*
X1162151Y7742428D01*
X1163523Y7728305D01*
X1166672Y7714437D01*
X1171600Y7701076D01*
X1178153Y7688478D01*
X1186281Y7676845D01*
X1195832Y7666329D01*
X1206652Y7657134D01*
X1218590Y7649362D01*
X1231392Y7643215D01*
X1244854Y7638745D01*
X1258824Y7636002D01*
X1272997Y7635087D01*
X1287170Y7636002D01*
X1301140Y7638745D01*
X1314602Y7643215D01*
X1327404Y7649362D01*
X1339342Y7657134D01*
X1350162Y7666329D01*
X1359712Y7676845D01*
X1367840Y7688478D01*
X1374394Y7701076D01*
X1379321Y7714437D01*
X1382471Y7728305D01*
X1383842Y7742428D01*
X1383385Y7756652D01*
X1381099Y7770672D01*
X1375613Y7789570D01*
X1376324Y7793583D01*
X1378559Y7796936D01*
X1426108Y7844485D01*
X1429410Y7846669D01*
X1433322Y7847482D01*
X1447596Y7847482D01*
X1451508Y7846669D01*
X1454861Y7844434D01*
X1457045Y7841132D01*
X1457756Y7837170D01*
X1456944Y7833309D01*
X1454708Y7830007D01*
X1444904Y7820558D01*
X1436065Y7809433D01*
X1428699Y7797292D01*
X1422958Y7784287D01*
X1418894Y7770672D01*
X1416608Y7756652D01*
X1416151Y7742428D01*
X1417523Y7728305D01*
X1420672Y7714437D01*
X1425600Y7701076D01*
X1432153Y7688478D01*
X1440281Y7676845D01*
X1449832Y7666329D01*
X1460652Y7657134D01*
X1472590Y7649362D01*
X1485392Y7643215D01*
X1498854Y7638745D01*
X1512824Y7636002D01*
X1526997Y7635087D01*
X1541170Y7636002D01*
X1555140Y7638745D01*
X1568602Y7643215D01*
X1581404Y7649362D01*
X1593342Y7657134D01*
X1604162Y7666329D01*
X1613712Y7676845D01*
X1621840Y7688478D01*
X1628394Y7701076D01*
X1633321Y7714437D01*
X1636471Y7728305D01*
X1637842Y7742428D01*
X1637385Y7756652D01*
X1635099Y7770672D01*
X1631086Y7784287D01*
X1625295Y7797292D01*
X1617929Y7809433D01*
X1609090Y7820558D01*
X1599285Y7830007D01*
X1597050Y7833309D01*
X1596237Y7837170D01*
X1596948Y7841132D01*
X1599133Y7844434D01*
X1602486Y7846669D01*
X1606397Y7847482D01*
X1970684Y7847482D01*
X1974850Y7846568D01*
X1978304Y7844028D01*
X1980387Y7840319D01*
X1980793Y7836052D01*
X1979371Y7832039D01*
X1974697Y7824266D01*
X1968957Y7811262D01*
X1964893Y7797647D01*
X1962607Y7783626D01*
X1962150Y7769453D01*
X1963521Y7755280D01*
X1966671Y7741412D01*
X1971598Y7728102D01*
X1978152Y7715503D01*
X1986280Y7703870D01*
X1995830Y7693304D01*
X2006650Y7684109D01*
X2018588Y7676388D01*
X2031390Y7670190D01*
X2044852Y7665720D01*
X2058822Y7663027D01*
X2072995Y7662113D01*
X2087168Y7663027D01*
X2101138Y7665720D01*
X2114600Y7670190D01*
X2127402Y7676388D01*
X2139340Y7684109D01*
X2150160Y7693304D01*
X2159711Y7703870D01*
X2167839Y7715503D01*
X2174392Y7728102D01*
X2179320Y7741412D01*
X2182469Y7755280D01*
X2183841Y7769453D01*
X2183384Y7783626D01*
X2181098Y7797647D01*
X2177084Y7811262D01*
X2171293Y7824266D01*
X2166620Y7832039D01*
X2165197Y7836052D01*
X2165604Y7840319D01*
X2167686Y7844028D01*
X2171141Y7846568D01*
X2175306Y7847482D01*
X2185568Y7847482D01*
X2193594Y7848244D01*
X2200808Y7850428D01*
X2207514Y7853984D01*
X2213711Y7859115D01*
X2275992Y7921396D01*
X2279091Y7923530D01*
X2282698Y7924393D01*
X2286406Y7923885D01*
X2298852Y7919720D01*
X2312822Y7917027D01*
X2326995Y7916113D01*
X2341168Y7917027D01*
X2355138Y7919720D01*
X2368600Y7924190D01*
X2381402Y7930388D01*
X2390749Y7936484D01*
X2394813Y7938008D01*
X2399131Y7937703D01*
X2402941Y7935620D01*
X2405532Y7932166D01*
X2406497Y7927949D01*
X2406497Y7911287D01*
X2405684Y7907375D01*
X2403500Y7904073D01*
X2377846Y7878470D01*
X2374595Y7876286D01*
X2370734Y7875473D01*
X2366873Y7876235D01*
X2361946Y7878216D01*
X2348179Y7881823D01*
X2334107Y7883652D01*
X2319883Y7883652D01*
X2305812Y7881823D01*
X2292045Y7878216D01*
X2278888Y7872882D01*
X2266492Y7865922D01*
X2255113Y7857439D01*
X2244902Y7847533D01*
X2236063Y7836408D01*
X2228697Y7824266D01*
X2222957Y7811262D01*
X2218893Y7797647D01*
X2216607Y7783626D01*
X2216150Y7769453D01*
X2217521Y7755280D01*
X2220671Y7741412D01*
X2225598Y7728102D01*
X2232152Y7715503D01*
X2240280Y7703870D01*
X2249830Y7693304D01*
X2260650Y7684109D01*
X2272588Y7676388D01*
X2285390Y7670190D01*
X2298852Y7665720D01*
X2312822Y7663027D01*
X2326995Y7662113D01*
X2341168Y7663027D01*
X2355138Y7665720D01*
X2368600Y7670190D01*
X2381402Y7676388D01*
X2393340Y7684109D01*
X2404160Y7693304D01*
X2413711Y7703870D01*
X2421839Y7715503D01*
X2428392Y7728102D01*
X2429205Y7730337D01*
X2431338Y7733741D01*
X2434590Y7736078D01*
X2438501Y7736992D01*
X2442464Y7736281D01*
X2445867Y7734096D01*
X2448102Y7730794D01*
X2448915Y7726832D01*
X2448915Y7564983D01*
X2448153Y7561173D01*
X2445969Y7557871D01*
X2442718Y7555636D01*
X2438908Y7554823D01*
X2435047Y7555534D01*
X2431694Y7557668D01*
X2429459Y7560868D01*
X2425293Y7570266D01*
X2417927Y7582408D01*
X2409088Y7593533D01*
X2398877Y7603439D01*
X2387498Y7611922D01*
X2375103Y7618882D01*
X2361946Y7624216D01*
X2348179Y7627823D01*
X2334107Y7629652D01*
X2319883Y7629652D01*
X2305812Y7627823D01*
X2292045Y7624216D01*
X2278888Y7618882D01*
X2266492Y7611922D01*
X2255113Y7603439D01*
X2244902Y7593533D01*
X2236063Y7582408D01*
X2228697Y7570266D01*
X2222957Y7557262D01*
X2218893Y7543647D01*
X2216607Y7529626D01*
X2216150Y7515453D01*
X2217521Y7501280D01*
X2220671Y7487412D01*
X2225598Y7474102D01*
X2232152Y7461503D01*
X2240280Y7449870D01*
X2249830Y7439304D01*
X2260650Y7430109D01*
X2272588Y7422388D01*
X2285390Y7416190D01*
X2298852Y7411720D01*
X2310384Y7409484D01*
X2314346Y7407757D01*
X2317292Y7404506D01*
X2318562Y7400340D01*
X2317953Y7396022D01*
X2315616Y7392314D01*
X1998319Y7075017D01*
X1995017Y7072833D01*
X1991207Y7072071D01*
X1987346Y7072782D01*
X1984044Y7074916D01*
X1980895Y7077964D01*
X1969922Y7086041D01*
X1957984Y7092594D01*
X1945233Y7097471D01*
X1931974Y7100671D01*
X1918411Y7101992D01*
X1904796Y7101535D01*
X1891334Y7099300D01*
X1878330Y7095236D01*
X1865934Y7089495D01*
X1854454Y7082180D01*
X1844039Y7073392D01*
X1834896Y7063231D01*
X1827174Y7052005D01*
X1821027Y7039864D01*
X1816557Y7026960D01*
X1813814Y7013600D01*
X1812899Y6999986D01*
X1813814Y6986371D01*
X1816557Y6973011D01*
X1821027Y6960108D01*
X1827174Y6947966D01*
X1834896Y6936740D01*
X1844039Y6926580D01*
X1854454Y6917791D01*
X1865934Y6910476D01*
X1878330Y6904736D01*
X1891334Y6900672D01*
X1904796Y6898436D01*
G37*
G36*
X420573Y7048093D02*
G01*
X453643Y7048093D01*
X453643Y7107631D01*
X394106Y7107631D01*
X394106Y7074560D01*
X394817Y7068210D01*
X396697Y7062774D01*
X399796Y7057898D01*
X403910Y7053783D01*
X408787Y7050684D01*
X414223Y7048804D01*
G37*
G36*
X394106Y7200341D02*
G01*
X453643Y7200341D01*
X453643Y7259878D01*
X420573Y7259878D01*
X414223Y7259167D01*
X408787Y7257288D01*
X403910Y7254189D01*
X399796Y7250074D01*
X396697Y7245197D01*
X394817Y7239762D01*
X394106Y7233412D01*
G37*
G36*
X2072995Y7408113D02*
G01*
X2087168Y7409027D01*
X2101138Y7411720D01*
X2114600Y7416190D01*
X2127402Y7422388D01*
X2139340Y7430109D01*
X2150160Y7439304D01*
X2159711Y7449870D01*
X2167839Y7461503D01*
X2174392Y7474102D01*
X2179320Y7487412D01*
X2182469Y7501280D01*
X2183841Y7515453D01*
X2183384Y7529626D01*
X2181098Y7543647D01*
X2177084Y7557262D01*
X2171293Y7570266D01*
X2163927Y7582408D01*
X2155088Y7593533D01*
X2144877Y7603439D01*
X2133498Y7611922D01*
X2121103Y7618882D01*
X2107946Y7624216D01*
X2094179Y7627823D01*
X2080107Y7629652D01*
X2065883Y7629652D01*
X2051812Y7627823D01*
X2038045Y7624216D01*
X2024888Y7618882D01*
X2012492Y7611922D01*
X2001113Y7603439D01*
X1990902Y7593533D01*
X1982063Y7582408D01*
X1974697Y7570266D01*
X1968957Y7557262D01*
X1964893Y7543647D01*
X1962607Y7529626D01*
X1962150Y7515453D01*
X1963521Y7501280D01*
X1966671Y7487412D01*
X1971598Y7474102D01*
X1978152Y7461503D01*
X1986280Y7449870D01*
X1995830Y7439304D01*
X2006650Y7430109D01*
X2018588Y7422388D01*
X2031390Y7416190D01*
X2044852Y7411720D01*
X2058822Y7409027D01*
G37*
G36*
X2872994Y7408113D02*
G01*
X2887167Y7409027D01*
X2901137Y7411720D01*
X2914599Y7416190D01*
X2927400Y7422388D01*
X2939338Y7430109D01*
X2950159Y7439304D01*
X2959709Y7449870D01*
X2967837Y7461503D01*
X2974390Y7474102D01*
X2979318Y7487412D01*
X2982468Y7501280D01*
X2983839Y7515453D01*
X2983382Y7529626D01*
X2981096Y7543647D01*
X2977083Y7557262D01*
X2971292Y7570266D01*
X2963926Y7582408D01*
X2955086Y7593533D01*
X2944876Y7603439D01*
X2933496Y7611922D01*
X2921101Y7618882D01*
X2907944Y7624216D01*
X2894177Y7627823D01*
X2880106Y7629652D01*
X2865882Y7629652D01*
X2851810Y7627823D01*
X2838043Y7624216D01*
X2824886Y7618882D01*
X2812491Y7611922D01*
X2801112Y7603439D01*
X2790901Y7593533D01*
X2782062Y7582408D01*
X2774696Y7570266D01*
X2768955Y7557262D01*
X2764891Y7543647D01*
X2762605Y7529626D01*
X2762148Y7515453D01*
X2763520Y7501280D01*
X2766669Y7487412D01*
X2771597Y7474102D01*
X2778150Y7461503D01*
X2786278Y7449870D01*
X2795828Y7439304D01*
X2806649Y7430109D01*
X2818587Y7422388D01*
X2831388Y7416190D01*
X2844850Y7411720D01*
X2858820Y7409027D01*
G37*
G36*
X3126994Y7408113D02*
G01*
X3141167Y7409027D01*
X3155137Y7411720D01*
X3168599Y7416190D01*
X3181400Y7422388D01*
X3193338Y7430109D01*
X3204159Y7439304D01*
X3213709Y7449870D01*
X3221837Y7461503D01*
X3228390Y7474102D01*
X3233318Y7487412D01*
X3236468Y7501280D01*
X3237839Y7515453D01*
X3237382Y7529626D01*
X3235096Y7543647D01*
X3231083Y7557262D01*
X3225292Y7570266D01*
X3217926Y7582408D01*
X3209086Y7593533D01*
X3198876Y7603439D01*
X3187496Y7611922D01*
X3175101Y7618882D01*
X3161944Y7624216D01*
X3148177Y7627823D01*
X3134106Y7629652D01*
X3119882Y7629652D01*
X3105810Y7627823D01*
X3092043Y7624216D01*
X3078886Y7618882D01*
X3066491Y7611922D01*
X3055112Y7603439D01*
X3044901Y7593533D01*
X3036062Y7582408D01*
X3028696Y7570266D01*
X3022955Y7557262D01*
X3018891Y7543647D01*
X3016605Y7529626D01*
X3016148Y7515453D01*
X3017520Y7501280D01*
X3020669Y7487412D01*
X3025597Y7474102D01*
X3032150Y7461503D01*
X3040278Y7449870D01*
X3049828Y7439304D01*
X3060649Y7430109D01*
X3072587Y7422388D01*
X3085388Y7416190D01*
X3098850Y7411720D01*
X3112820Y7409027D01*
G37*
G36*
X726998Y7635087D02*
G01*
X741172Y7636002D01*
X755142Y7638745D01*
X768604Y7643215D01*
X781405Y7649362D01*
X793343Y7657134D01*
X804164Y7666329D01*
X813714Y7676845D01*
X821842Y7688478D01*
X828395Y7701076D01*
X833323Y7714437D01*
X836472Y7728305D01*
X837844Y7742428D01*
X837387Y7756652D01*
X835101Y7770672D01*
X831087Y7784287D01*
X825296Y7797292D01*
X817930Y7809433D01*
X809091Y7820558D01*
X798880Y7830413D01*
X787501Y7838897D01*
X775106Y7845907D01*
X761949Y7851241D01*
X748182Y7854848D01*
X734110Y7856626D01*
X719886Y7856626D01*
X705815Y7854848D01*
X692048Y7851241D01*
X678891Y7845907D01*
X666496Y7838897D01*
X655116Y7830413D01*
X644906Y7820558D01*
X636066Y7809433D01*
X628700Y7797292D01*
X622960Y7784287D01*
X618896Y7770672D01*
X616610Y7756652D01*
X616153Y7742428D01*
X617524Y7728305D01*
X620674Y7714437D01*
X625602Y7701076D01*
X632155Y7688478D01*
X640283Y7676845D01*
X649833Y7666329D01*
X660654Y7657134D01*
X672592Y7649362D01*
X685393Y7643215D01*
X698855Y7638745D01*
X712825Y7636002D01*
G37*
G36*
X2872994Y7662113D02*
G01*
X2887167Y7663027D01*
X2901137Y7665720D01*
X2914599Y7670190D01*
X2927400Y7676388D01*
X2939338Y7684109D01*
X2950159Y7693304D01*
X2959709Y7703870D01*
X2967837Y7715503D01*
X2974390Y7728102D01*
X2979318Y7741412D01*
X2982468Y7755280D01*
X2983839Y7769453D01*
X2983382Y7783626D01*
X2981096Y7797647D01*
X2977083Y7811262D01*
X2971292Y7824266D01*
X2963926Y7836408D01*
X2955086Y7847533D01*
X2944876Y7857439D01*
X2933496Y7865922D01*
X2921101Y7872882D01*
X2907944Y7878216D01*
X2894177Y7881823D01*
X2880106Y7883652D01*
X2865882Y7883652D01*
X2851810Y7881823D01*
X2838043Y7878216D01*
X2824886Y7872882D01*
X2812491Y7865922D01*
X2801112Y7857439D01*
X2790901Y7847533D01*
X2782062Y7836408D01*
X2774696Y7824266D01*
X2768955Y7811262D01*
X2764891Y7797647D01*
X2762605Y7783626D01*
X2762148Y7769453D01*
X2763520Y7755280D01*
X2766669Y7741412D01*
X2771597Y7728102D01*
X2778150Y7715503D01*
X2786278Y7703870D01*
X2795828Y7693304D01*
X2806649Y7684109D01*
X2818587Y7676388D01*
X2831388Y7670190D01*
X2844850Y7665720D01*
X2858820Y7663027D01*
G37*
G36*
X3126994Y7662113D02*
G01*
X3141167Y7663027D01*
X3155137Y7665720D01*
X3168599Y7670190D01*
X3181400Y7676388D01*
X3193338Y7684109D01*
X3204159Y7693304D01*
X3213709Y7703870D01*
X3221837Y7715503D01*
X3228390Y7728102D01*
X3233318Y7741412D01*
X3236468Y7755280D01*
X3237839Y7769453D01*
X3237382Y7783626D01*
X3235096Y7797647D01*
X3231083Y7811262D01*
X3225292Y7824266D01*
X3217926Y7836408D01*
X3209086Y7847533D01*
X3198876Y7857439D01*
X3187496Y7865922D01*
X3175101Y7872882D01*
X3161944Y7878216D01*
X3148177Y7881823D01*
X3134106Y7883652D01*
X3119882Y7883652D01*
X3105810Y7881823D01*
X3092043Y7878216D01*
X3078886Y7872882D01*
X3066491Y7865922D01*
X3055112Y7857439D01*
X3044901Y7847533D01*
X3036062Y7836408D01*
X3028696Y7824266D01*
X3022955Y7811262D01*
X3018891Y7797647D01*
X3016605Y7783626D01*
X3016148Y7769453D01*
X3017520Y7755280D01*
X3020669Y7741412D01*
X3025597Y7728102D01*
X3032150Y7715503D01*
X3040278Y7703870D01*
X3049828Y7693304D01*
X3060649Y7684109D01*
X3072587Y7676388D01*
X3085388Y7670190D01*
X3098850Y7665720D01*
X3112820Y7663027D01*
G37*
G36*
X1272997Y7889087D02*
G01*
X1287170Y7890002D01*
X1301140Y7892745D01*
X1314602Y7897215D01*
X1327404Y7903362D01*
X1339342Y7911134D01*
X1350162Y7920329D01*
X1359712Y7930845D01*
X1367840Y7942478D01*
X1374394Y7955076D01*
X1379321Y7968437D01*
X1382471Y7982305D01*
X1383842Y7996428D01*
X1383385Y8010652D01*
X1381099Y8024672D01*
X1377086Y8038287D01*
X1371295Y8051292D01*
X1363929Y8063433D01*
X1355090Y8074558D01*
X1344879Y8084413D01*
X1333500Y8092897D01*
X1321104Y8099907D01*
X1307947Y8105241D01*
X1294180Y8108848D01*
X1280109Y8110626D01*
X1265885Y8110626D01*
X1251813Y8108848D01*
X1238046Y8105241D01*
X1224889Y8099907D01*
X1212494Y8092897D01*
X1201115Y8084413D01*
X1190904Y8074558D01*
X1182065Y8063433D01*
X1174699Y8051292D01*
X1168958Y8038287D01*
X1164894Y8024672D01*
X1162608Y8010652D01*
X1162151Y7996428D01*
X1163523Y7982305D01*
X1166672Y7968437D01*
X1171600Y7955076D01*
X1178153Y7942478D01*
X1186281Y7930845D01*
X1195832Y7920329D01*
X1206652Y7911134D01*
X1218590Y7903362D01*
X1231392Y7897215D01*
X1244854Y7892745D01*
X1258824Y7890002D01*
G37*
G36*
X472998Y7889087D02*
G01*
X487172Y7890002D01*
X501142Y7892745D01*
X514604Y7897215D01*
X527405Y7903362D01*
X539343Y7911134D01*
X550164Y7920329D01*
X559714Y7930845D01*
X567842Y7942478D01*
X574395Y7955076D01*
X579323Y7968437D01*
X582472Y7982305D01*
X583844Y7996428D01*
X583387Y8010652D01*
X581101Y8024672D01*
X577088Y8038287D01*
X571296Y8051292D01*
X563930Y8063433D01*
X555091Y8074558D01*
X544880Y8084413D01*
X533501Y8092897D01*
X521106Y8099907D01*
X507949Y8105241D01*
X494182Y8108848D01*
X480110Y8110626D01*
X465886Y8110626D01*
X451815Y8108848D01*
X438048Y8105241D01*
X424891Y8099907D01*
X412496Y8092897D01*
X401116Y8084413D01*
X390906Y8074558D01*
X382066Y8063433D01*
X374700Y8051292D01*
X368960Y8038287D01*
X364896Y8024672D01*
X362610Y8010652D01*
X362153Y7996428D01*
X363524Y7982305D01*
X366674Y7968437D01*
X371602Y7955076D01*
X378155Y7942478D01*
X386283Y7930845D01*
X395833Y7920329D01*
X406654Y7911134D01*
X418592Y7903362D01*
X431393Y7897215D01*
X444855Y7892745D01*
X458825Y7890002D01*
G37*
G36*
X775868Y7900670D02*
G01*
X781405Y7903362D01*
X793343Y7911134D01*
X804164Y7920329D01*
X813714Y7930845D01*
X821842Y7942478D01*
X826312Y7951114D01*
X775868Y7951114D01*
G37*
G36*
X678129Y7900670D02*
G01*
X678129Y7951114D01*
X627684Y7951114D01*
X632155Y7942478D01*
X640283Y7930845D01*
X649833Y7920329D01*
X660654Y7911134D01*
X672592Y7903362D01*
G37*
G36*
X2872994Y7916113D02*
G01*
X2887167Y7917027D01*
X2901137Y7919720D01*
X2914599Y7924190D01*
X2927400Y7930388D01*
X2939338Y7938109D01*
X2950159Y7947304D01*
X2959709Y7957870D01*
X2967837Y7969503D01*
X2974390Y7982102D01*
X2979318Y7995412D01*
X2982468Y8009280D01*
X2983839Y8023453D01*
X2983382Y8037626D01*
X2981096Y8051647D01*
X2977083Y8065262D01*
X2971292Y8078266D01*
X2963926Y8090408D01*
X2955086Y8101533D01*
X2944876Y8111439D01*
X2933496Y8119922D01*
X2921101Y8126882D01*
X2907944Y8132216D01*
X2894177Y8135823D01*
X2880106Y8137652D01*
X2865882Y8137652D01*
X2851810Y8135823D01*
X2838043Y8132216D01*
X2824886Y8126882D01*
X2812491Y8119922D01*
X2801112Y8111439D01*
X2790901Y8101533D01*
X2782062Y8090408D01*
X2774696Y8078266D01*
X2768955Y8065262D01*
X2764891Y8051647D01*
X2762605Y8037626D01*
X2762148Y8023453D01*
X2763520Y8009280D01*
X2766669Y7995412D01*
X2771597Y7982102D01*
X2778150Y7969503D01*
X2786278Y7957870D01*
X2795828Y7947304D01*
X2806649Y7938109D01*
X2818587Y7930388D01*
X2831388Y7924190D01*
X2844850Y7919720D01*
X2858820Y7917027D01*
G37*
G36*
X3126994Y7916113D02*
G01*
X3141167Y7917027D01*
X3155137Y7919720D01*
X3168599Y7924190D01*
X3181400Y7930388D01*
X3193338Y7938109D01*
X3204159Y7947304D01*
X3213709Y7957870D01*
X3221837Y7969503D01*
X3228390Y7982102D01*
X3233318Y7995412D01*
X3236468Y8009280D01*
X3237839Y8023453D01*
X3237382Y8037626D01*
X3235096Y8051647D01*
X3231083Y8065262D01*
X3225292Y8078266D01*
X3217926Y8090408D01*
X3209086Y8101533D01*
X3198876Y8111439D01*
X3187496Y8119922D01*
X3175101Y8126882D01*
X3161944Y8132216D01*
X3148177Y8135823D01*
X3134106Y8137652D01*
X3119882Y8137652D01*
X3105810Y8135823D01*
X3092043Y8132216D01*
X3078886Y8126882D01*
X3066491Y8119922D01*
X3055112Y8111439D01*
X3044901Y8101533D01*
X3036062Y8090408D01*
X3028696Y8078266D01*
X3022955Y8065262D01*
X3018891Y8051647D01*
X3016605Y8037626D01*
X3016148Y8023453D01*
X3017520Y8009280D01*
X3020669Y7995412D01*
X3025597Y7982102D01*
X3032150Y7969503D01*
X3040278Y7957870D01*
X3049828Y7947304D01*
X3060649Y7938109D01*
X3072587Y7930388D01*
X3085388Y7924190D01*
X3098850Y7919720D01*
X3112820Y7917027D01*
G37*
G36*
X775868Y8048853D02*
G01*
X826414Y8048853D01*
X825296Y8051292D01*
X817930Y8063433D01*
X809091Y8074558D01*
X798880Y8084413D01*
X787501Y8092897D01*
X775868Y8099450D01*
G37*
G36*
X627583Y8048853D02*
G01*
X678129Y8048853D01*
X678129Y8099450D01*
X666496Y8092897D01*
X655116Y8084413D01*
X644906Y8074558D01*
X636066Y8063433D01*
X628700Y8051292D01*
G37*
G36*
X388569Y8143087D02*
G01*
X424129Y8143087D01*
X424129Y8205114D01*
X362102Y8205114D01*
X362102Y8169554D01*
X362813Y8163255D01*
X364693Y8157768D01*
X367792Y8152892D01*
X371906Y8148777D01*
X376783Y8145678D01*
X382270Y8143798D01*
G37*
G36*
X1188567Y8143087D02*
G01*
X1224127Y8143087D01*
X1224127Y8205114D01*
X1162100Y8205114D01*
X1162100Y8169554D01*
X1162812Y8163255D01*
X1164691Y8157768D01*
X1167790Y8152892D01*
X1171905Y8148777D01*
X1176782Y8145678D01*
X1182268Y8143798D01*
G37*
G36*
X521868Y8143087D02*
G01*
X557428Y8143087D01*
X563727Y8143798D01*
X569214Y8145678D01*
X574090Y8148777D01*
X578205Y8152892D01*
X581304Y8157768D01*
X583184Y8163255D01*
X583895Y8169554D01*
X583895Y8205114D01*
X521868Y8205114D01*
G37*
G36*
X1321866Y8143087D02*
G01*
X1357426Y8143087D01*
X1363726Y8143798D01*
X1369212Y8145678D01*
X1374089Y8148777D01*
X1378204Y8152892D01*
X1381302Y8157768D01*
X1383182Y8163255D01*
X1383893Y8169554D01*
X1383893Y8205114D01*
X1321866Y8205114D01*
G37*
G36*
X726998Y8143087D02*
G01*
X741172Y8144002D01*
X755142Y8146745D01*
X768604Y8151215D01*
X781405Y8157362D01*
X793343Y8165134D01*
X804164Y8174329D01*
X813714Y8184845D01*
X821842Y8196478D01*
X828395Y8209076D01*
X833323Y8222437D01*
X836472Y8236305D01*
X837844Y8250428D01*
X837387Y8264652D01*
X835101Y8278672D01*
X831087Y8292287D01*
X825296Y8305292D01*
X817930Y8317433D01*
X809091Y8328558D01*
X798880Y8338413D01*
X787501Y8346897D01*
X775106Y8353907D01*
X761949Y8359241D01*
X748182Y8362848D01*
X734110Y8364626D01*
X719886Y8364626D01*
X705815Y8362848D01*
X692048Y8359241D01*
X678891Y8353907D01*
X666496Y8346897D01*
X655116Y8338413D01*
X644906Y8328558D01*
X636066Y8317433D01*
X628700Y8305292D01*
X622960Y8292287D01*
X618896Y8278672D01*
X616610Y8264652D01*
X616153Y8250428D01*
X617524Y8236305D01*
X620674Y8222437D01*
X625602Y8209076D01*
X632155Y8196478D01*
X640283Y8184845D01*
X649833Y8174329D01*
X660654Y8165134D01*
X672592Y8157362D01*
X685393Y8151215D01*
X698855Y8146745D01*
X712825Y8144002D01*
G37*
G36*
X2788564Y8170062D02*
G01*
X2957423Y8170062D01*
X2963722Y8170773D01*
X2969209Y8172703D01*
X2974086Y8175802D01*
X2978200Y8179866D01*
X2981299Y8184794D01*
X2983179Y8190230D01*
X2983890Y8196580D01*
X2983890Y8365388D01*
X2983179Y8371738D01*
X2981299Y8377174D01*
X2978200Y8382101D01*
X2974086Y8386165D01*
X2969209Y8389264D01*
X2963722Y8391194D01*
X2957423Y8391906D01*
X2788564Y8391906D01*
X2782265Y8391194D01*
X2776778Y8389264D01*
X2771902Y8386165D01*
X2767787Y8382101D01*
X2764688Y8377174D01*
X2762808Y8371738D01*
X2762097Y8365388D01*
X2762097Y8196580D01*
X2762808Y8190230D01*
X2764688Y8184794D01*
X2767787Y8179866D01*
X2771902Y8175802D01*
X2776778Y8172703D01*
X2782265Y8170773D01*
G37*
G36*
X3126994Y8170113D02*
G01*
X3141167Y8171027D01*
X3155137Y8173720D01*
X3168599Y8178190D01*
X3181400Y8184388D01*
X3193338Y8192109D01*
X3204159Y8201304D01*
X3213709Y8211870D01*
X3221837Y8223503D01*
X3228390Y8236102D01*
X3233318Y8249412D01*
X3236468Y8263280D01*
X3237839Y8277453D01*
X3237382Y8291626D01*
X3235096Y8305647D01*
X3231083Y8319262D01*
X3225292Y8332266D01*
X3217926Y8344408D01*
X3209086Y8355533D01*
X3198876Y8365439D01*
X3187496Y8373922D01*
X3175101Y8380882D01*
X3161944Y8386216D01*
X3148177Y8389823D01*
X3134106Y8391652D01*
X3119882Y8391652D01*
X3105810Y8389823D01*
X3092043Y8386216D01*
X3078886Y8380882D01*
X3066491Y8373922D01*
X3055112Y8365439D01*
X3044901Y8355533D01*
X3036062Y8344408D01*
X3028696Y8332266D01*
X3022955Y8319262D01*
X3018891Y8305647D01*
X3016605Y8291626D01*
X3016148Y8277453D01*
X3017520Y8263280D01*
X3020669Y8249412D01*
X3025597Y8236102D01*
X3032150Y8223503D01*
X3040278Y8211870D01*
X3049828Y8201304D01*
X3060649Y8192109D01*
X3072587Y8184388D01*
X3085388Y8178190D01*
X3098850Y8173720D01*
X3112820Y8171027D01*
G37*
G36*
X521868Y8302853D02*
G01*
X583895Y8302853D01*
X583895Y8338413D01*
X583184Y8344712D01*
X581304Y8350199D01*
X578205Y8355075D01*
X574090Y8359190D01*
X569214Y8362289D01*
X563727Y8364169D01*
X557428Y8364880D01*
X521868Y8364880D01*
G37*
G36*
X362102Y8302853D02*
G01*
X424129Y8302853D01*
X424129Y8364880D01*
X388569Y8364880D01*
X382270Y8364169D01*
X376783Y8362289D01*
X371906Y8359190D01*
X367792Y8355075D01*
X364693Y8350199D01*
X362813Y8344712D01*
X362102Y8338413D01*
G37*
G36*
X1162100Y8302853D02*
G01*
X1224127Y8302853D01*
X1224127Y8364880D01*
X1188567Y8364880D01*
X1182268Y8364169D01*
X1176782Y8362289D01*
X1171905Y8359190D01*
X1167790Y8355075D01*
X1164691Y8350199D01*
X1162812Y8344712D01*
X1162100Y8338413D01*
G37*
G36*
X1321866Y8302853D02*
G01*
X1383893Y8302853D01*
X1383893Y8338413D01*
X1383182Y8344712D01*
X1381302Y8350199D01*
X1378204Y8355075D01*
X1374089Y8359190D01*
X1369212Y8362289D01*
X1363726Y8364169D01*
X1357426Y8364880D01*
X1321866Y8364880D01*
G37*
G36*
X3399993Y8672474D02*
G01*
X3415385Y8673439D01*
X3430524Y8676182D01*
X3445205Y8680754D01*
X3459226Y8687104D01*
X3472434Y8695080D01*
X3484524Y8704580D01*
X3495395Y8715451D01*
X3504895Y8727541D01*
X3512870Y8740749D01*
X3519220Y8754770D01*
X3523792Y8769451D01*
X3526536Y8784590D01*
X3527501Y8799982D01*
X3526536Y8815374D01*
X3523792Y8830513D01*
X3519220Y8845194D01*
X3512870Y8859215D01*
X3504895Y8872423D01*
X3495395Y8884513D01*
X3484524Y8895384D01*
X3472434Y8904884D01*
X3459226Y8912860D01*
X3445205Y8919210D01*
X3430524Y8923782D01*
X3415385Y8926525D01*
X3399993Y8927490D01*
X3384600Y8926525D01*
X3369462Y8923782D01*
X3354781Y8919210D01*
X3340760Y8912860D01*
X3327552Y8904884D01*
X3315462Y8895384D01*
X3304590Y8884513D01*
X3295091Y8872423D01*
X3287115Y8859215D01*
X3280765Y8845194D01*
X3276193Y8830513D01*
X3273450Y8815374D01*
X3272485Y8799982D01*
X3273450Y8784590D01*
X3276193Y8769451D01*
X3280765Y8754770D01*
X3287115Y8740749D01*
X3295091Y8727541D01*
X3304590Y8715451D01*
X3315462Y8704580D01*
X3327552Y8695080D01*
X3340760Y8687104D01*
X3354781Y8680754D01*
X3369462Y8676182D01*
X3384600Y8673439D01*
G37*
G36*
X199999Y8672474D02*
G01*
X215392Y8673439D01*
X230530Y8676182D01*
X245211Y8680754D01*
X259232Y8687104D01*
X272440Y8695080D01*
X284530Y8704580D01*
X295402Y8715451D01*
X304901Y8727541D01*
X312877Y8740749D01*
X319227Y8754770D01*
X323799Y8769451D01*
X326542Y8784590D01*
X327507Y8799982D01*
X326542Y8815374D01*
X323799Y8830513D01*
X319227Y8845194D01*
X312877Y8859215D01*
X304901Y8872423D01*
X295402Y8884513D01*
X284530Y8895384D01*
X272440Y8904884D01*
X259232Y8912860D01*
X245211Y8919210D01*
X230530Y8923782D01*
X215392Y8926525D01*
X199999Y8927490D01*
X184607Y8926525D01*
X169468Y8923782D01*
X154787Y8919210D01*
X140766Y8912860D01*
X127558Y8904884D01*
X115468Y8895384D01*
X104597Y8884513D01*
X95097Y8872423D01*
X87122Y8859215D01*
X80772Y8845194D01*
X76200Y8830513D01*
X73456Y8815374D01*
X72491Y8799982D01*
X73456Y8784590D01*
X76200Y8769451D01*
X80772Y8754770D01*
X87122Y8740749D01*
X95097Y8727541D01*
X104597Y8715451D01*
X115468Y8704580D01*
X127558Y8695080D01*
X140766Y8687104D01*
X154787Y8680754D01*
X169468Y8676182D01*
X184607Y8673439D01*
G37*

%LPD*%
D10*
X2209800Y5444009D02*
G01*
X1708886Y4943096D01*
X1471803Y4943096D01*
X3099993Y5799990D02*
G01*
X2744012Y5444009D01*
X2209800Y5444009D01*
X1037996Y3361997D02*
G01*
X499998Y3361997D01*
X726998Y8030669D02*
G01*
X936802Y8030669D01*
X936802Y8030669D02*
G01*
X936802Y7810324D01*
X1931720Y6815406D01*
X2562758Y6815406D01*
X3218916Y6159248D01*
X3218916Y5664913D01*
X3099993Y5545990D01*
X499998Y7153988D02*
G01*
X499998Y7261913D01*
X499998Y7261913D02*
G01*
X358444Y7403467D01*
X358444Y7799326D01*
X432079Y7872961D01*
X599998Y7872961D01*
X726998Y7999961D01*
X1216558Y8253961D02*
G01*
X1339875Y8130644D01*
X1587245Y8130644D01*
X1737588Y8280986D01*
X2072995Y8280986D01*
X1216558Y8253961D02*
G01*
X1160094Y8253961D01*
X1272997Y8253961D02*
G01*
X1216558Y8253961D01*
X585901Y8253961D02*
G01*
X585901Y8171766D01*
X726998Y8030669D01*
X726998Y7999961D02*
G01*
X726998Y8030669D01*
X472998Y8253961D02*
G01*
X585901Y8253961D01*
X2561996Y4123997D02*
G01*
X3099993Y4123997D01*
X1037996Y3615997D02*
G01*
X499998Y3615997D01*
X2561996Y1583997D02*
G01*
X3099993Y1583997D01*
X2561996Y2345997D02*
G01*
X3099993Y2345997D01*
X2561996Y1837997D02*
G01*
X3099993Y1837997D01*
X2561996Y3107997D02*
G01*
X3099993Y3107997D01*
X2561996Y2091997D02*
G01*
X3099993Y2091997D01*
X2561996Y3361997D02*
G01*
X3099993Y3361997D01*
D11*
X499998Y5318991D02*
G01*
X374700Y5318991D01*
X649960Y6416042D02*
G01*
X694334Y6371668D01*
X1786686Y6371668D01*
X1915007Y6499989D01*
X649960Y6416042D02*
G01*
X649960Y6496027D01*
X499998Y6645988D01*
X1526997Y8253961D02*
G01*
X1679498Y8406462D01*
X2201519Y8406462D01*
X2326995Y8280986D01*
X1915007Y6499989D02*
G01*
X2203805Y6499989D01*
X2209800Y6493995D01*
X2561996Y1075997D02*
G01*
X3099993Y1075997D01*
X3099993Y6053990D02*
G01*
X2649804Y6053990D01*
X2209800Y6493995D01*
D10*
X1272997Y7745961D02*
G01*
X1413103Y7886067D01*
X2186076Y7886067D01*
X2326995Y8026986D01*
X1037996Y1075997D02*
G01*
X499998Y1075997D01*
X1037996Y1583997D02*
G01*
X499998Y1583997D01*
X1526997Y7999961D02*
G01*
X1667967Y8140931D01*
X2376550Y8140931D01*
X2445080Y8072401D01*
X2445080Y7891071D01*
X2326995Y7772986D01*
X2561996Y821997D02*
G01*
X3099993Y821997D01*
X1037996Y1837997D02*
G01*
X499998Y1837997D01*
X1037996Y2345997D02*
G01*
X499998Y2345997D01*
X2561996Y2853997D02*
G01*
X1590903Y3825090D01*
X1590903Y4736086D01*
X499998Y5826991D01*
X2561996Y2853997D02*
G01*
X3099993Y2853997D01*
X2561996Y1329997D02*
G01*
X3099993Y1329997D01*
X2561996Y3615997D02*
G01*
X3099993Y3615997D01*
X2561996Y3869997D02*
G01*
X3099993Y3869997D01*
X3099993Y4377997D02*
G01*
X2561996Y4377997D01*
X1037996Y2091997D02*
G01*
X499998Y2091997D01*
X1037996Y2599997D02*
G01*
X499998Y2599997D01*
X884986Y6499989D02*
G01*
X613918Y6771058D01*
X613918Y7605041D01*
X472998Y7745961D01*
X1037996Y2853997D02*
G01*
X499998Y2853997D01*
X1037996Y3107997D02*
G01*
X499998Y3107997D01*
X1037996Y3869997D02*
G01*
X499998Y3869997D01*
X1037996Y4123997D02*
G01*
X499998Y4123997D01*
X1037996Y4377997D02*
G01*
X499998Y4377997D01*
X1037996Y821997D02*
G01*
X499998Y821997D01*
X2561996Y2599997D02*
G01*
X1550111Y3611882D01*
X1550111Y4682822D01*
X532942Y5699991D01*
X459917Y5699991D01*
X384276Y5775632D01*
X384276Y5965268D01*
X499998Y6080991D01*
X3099993Y2599997D02*
G01*
X2561996Y2599997D01*
X1037996Y1329997D02*
G01*
X499998Y1329997D01*
D11*
X374700Y5318991D02*
G01*
X329895Y5363796D01*
X329895Y6095977D01*
X649960Y6416042D01*
D10*
X936802Y8030669D02*
G01*
X1160094Y8253961D01*
D11*
X1915007Y6999988D02*
G01*
X1995398Y6999988D01*
X2499918Y7504508D01*
X2499918Y8108063D01*
X2326995Y8280986D01*
D12*
G01*
X2872993Y8280984D03*
D13*
G01*
X3126993Y8280984D03*
G01*
X2872993Y8026984D03*
G01*
X3126993Y8026984D03*
G01*
X2872993Y7772984D03*
G01*
X3126993Y7772984D03*
G01*
X2872993Y7518984D03*
G01*
X3126993Y7518984D03*
D12*
G01*
X2072995Y8280984D03*
D13*
G01*
X2326995Y8280984D03*
G01*
X2072995Y8026984D03*
G01*
X2326995Y8026984D03*
G01*
X2072995Y7772984D03*
G01*
X2326995Y7772984D03*
G01*
X2072995Y7518984D03*
G01*
X2326995Y7518984D03*
D14*
G01*
X499998Y7153986D03*
D15*
G01*
X499998Y6899986D03*
G01*
X499998Y6645986D03*
D12*
G01*
X499998Y5318988D03*
D13*
G01*
X499998Y5572988D03*
G01*
X499998Y5826988D03*
G01*
X499998Y6080988D03*
D14*
G01*
X3099993Y821994D03*
D15*
G01*
X3099993Y1075994D03*
G01*
X3099993Y1329994D03*
G01*
X3099993Y1583994D03*
G01*
X3099993Y1837994D03*
G01*
X3099993Y2091994D03*
G01*
X3099993Y2345994D03*
G01*
X3099993Y2599994D03*
G01*
X3099993Y2853994D03*
G01*
X3099993Y3107994D03*
G01*
X3099993Y3361994D03*
G01*
X3099993Y3615994D03*
G01*
X3099993Y3869994D03*
G01*
X3099993Y4123994D03*
G01*
X3099993Y4377994D03*
D14*
G01*
X499998Y821994D03*
D15*
G01*
X499998Y1075994D03*
G01*
X499998Y1329994D03*
G01*
X499998Y1583994D03*
G01*
X499998Y1837994D03*
G01*
X499998Y2091994D03*
G01*
X499998Y2345994D03*
G01*
X499998Y2599994D03*
G01*
X499998Y2853994D03*
G01*
X499998Y3107994D03*
G01*
X499998Y3361994D03*
G01*
X499998Y3615994D03*
G01*
X499998Y3869994D03*
G01*
X499998Y4123994D03*
G01*
X499998Y4377994D03*
D12*
G01*
X1272997Y8253984D03*
D13*
G01*
X1526997Y8253958D03*
G01*
X1272997Y7999958D03*
G01*
X1526997Y7999958D03*
G01*
X1272997Y7745958D03*
G01*
X1526997Y7745958D03*
D12*
G01*
X472998Y8253984D03*
D13*
G01*
X726998Y8253958D03*
G01*
X472998Y7999958D03*
G01*
X726998Y7999958D03*
G01*
X472998Y7745958D03*
G01*
X726998Y7745958D03*
D16*
G01*
X2209800Y5444007D03*
G01*
X2209800Y6493992D03*
D17*
G01*
X1915007Y6999986D03*
G01*
X884986Y6999986D03*
G01*
X1915007Y6499987D03*
G01*
X884986Y6499987D03*
G01*
X2561996Y821994D03*
G01*
X2561996Y1075994D03*
G01*
X2561996Y1329994D03*
G01*
X2561996Y1583994D03*
G01*
X2561996Y1837994D03*
G01*
X2561996Y2091994D03*
G01*
X2561996Y2345994D03*
G01*
X2561996Y2599994D03*
G01*
X2561996Y2853994D03*
G01*
X2561996Y3107994D03*
G01*
X2561996Y3361994D03*
G01*
X2561996Y3615994D03*
G01*
X2561996Y3869994D03*
G01*
X2561996Y4123994D03*
G01*
X2561996Y4377994D03*
G01*
X1037996Y4377994D03*
G01*
X1037996Y4123994D03*
G01*
X1037996Y3869994D03*
G01*
X1037996Y3615994D03*
G01*
X1037996Y3361994D03*
G01*
X1037996Y3107994D03*
G01*
X1037996Y2853994D03*
G01*
X1037996Y2599994D03*
G01*
X1037996Y2345994D03*
G01*
X1037996Y2091994D03*
G01*
X1037996Y1837994D03*
G01*
X1037996Y1583994D03*
G01*
X1037996Y1329994D03*
G01*
X1037996Y1075994D03*
G01*
X1037996Y821994D03*
D18*
G01*
X3099993Y5545988D03*
G01*
X3099993Y5799988D03*
D19*
G01*
X3099993Y6053988D03*
D20*
G01*
X1471803Y4943094D03*
M02*
