G04 Layer: TopLayer*
G04 EasyEDA v6.5.39, 2024-01-29 12:40:10*
G04 1567c4b6a1884de9a48abf35515e7f19,8c112253a0c947cbb1dd5c82d68696a1,10*
G04 Gerber Generator version 0.2*
G04 Scale: 100 percent, Rotated: No, Reflected: No *
G04 Dimensions in millimeters *
G04 leading zeros omitted , absolute positions ,4 integer and 5 decimal *
%FSLAX45Y45*%
%MOMM*%

%ADD10C,0.2540*%
%ADD11C,0.5020*%
%ADD12R,1.7000X1.7000*%
%ADD13C,1.7000*%
%ADD14R,1.6000X1.6000*%
%ADD15C,1.6000*%
%ADD16C,1.4000*%
%ADD17C,1.5240*%
%ADD18C,1.8000*%
%ADD19R,1.8000X1.8000*%
%ADD20C,0.6100*%
%ADD21C,0.0167*%

%LPD*%
G36*
X36068Y25908D02*
G01*
X32156Y26670D01*
X28905Y28905D01*
X26670Y32156D01*
X25908Y36068D01*
X25908Y8963914D01*
X26670Y8967825D01*
X28905Y8971076D01*
X32156Y8973312D01*
X36068Y8974074D01*
X3563924Y8974074D01*
X3567836Y8973312D01*
X3571087Y8971076D01*
X3573322Y8967825D01*
X3574084Y8963914D01*
X3574084Y36068D01*
X3573322Y32156D01*
X3571087Y28905D01*
X3567836Y26670D01*
X3563924Y25908D01*
G37*

%LPC*%
G36*
X3399993Y72491D02*
G01*
X3415385Y73456D01*
X3430524Y76200D01*
X3445205Y80772D01*
X3459226Y87122D01*
X3472434Y95097D01*
X3484524Y104597D01*
X3495395Y115468D01*
X3504895Y127558D01*
X3512870Y140766D01*
X3519220Y154787D01*
X3523792Y169468D01*
X3526536Y184607D01*
X3527501Y199999D01*
X3526536Y215392D01*
X3523792Y230530D01*
X3519220Y245211D01*
X3512870Y259232D01*
X3504895Y272440D01*
X3495395Y284530D01*
X3484524Y295402D01*
X3472434Y304901D01*
X3459226Y312877D01*
X3445205Y319227D01*
X3430524Y323799D01*
X3415385Y326542D01*
X3399993Y327507D01*
X3384600Y326542D01*
X3369462Y323799D01*
X3354781Y319227D01*
X3340760Y312877D01*
X3327552Y304901D01*
X3315462Y295402D01*
X3304590Y284530D01*
X3295091Y272440D01*
X3287115Y259232D01*
X3280765Y245211D01*
X3276193Y230530D01*
X3273450Y215392D01*
X3272485Y199999D01*
X3273450Y184607D01*
X3276193Y169468D01*
X3280765Y154787D01*
X3287115Y140766D01*
X3295091Y127558D01*
X3304590Y115468D01*
X3315462Y104597D01*
X3327552Y95097D01*
X3340760Y87122D01*
X3354781Y80772D01*
X3369462Y76200D01*
X3384600Y73456D01*
G37*
G36*
X199999Y72491D02*
G01*
X215392Y73456D01*
X230530Y76200D01*
X245211Y80772D01*
X259232Y87122D01*
X272440Y95097D01*
X284530Y104597D01*
X295402Y115468D01*
X304901Y127558D01*
X312877Y140766D01*
X319227Y154787D01*
X323799Y169468D01*
X326542Y184607D01*
X327507Y199999D01*
X326542Y215392D01*
X323799Y230530D01*
X319227Y245211D01*
X312877Y259232D01*
X304901Y272440D01*
X295402Y284530D01*
X284530Y295402D01*
X272440Y304901D01*
X259232Y312877D01*
X245211Y319227D01*
X230530Y323799D01*
X215392Y326542D01*
X199999Y327507D01*
X184607Y326542D01*
X169468Y323799D01*
X154787Y319227D01*
X140766Y312877D01*
X127558Y304901D01*
X115468Y295402D01*
X104597Y284530D01*
X95097Y272440D01*
X87122Y259232D01*
X80772Y245211D01*
X76200Y230530D01*
X73456Y215392D01*
X72491Y199999D01*
X73456Y184607D01*
X76200Y169468D01*
X80772Y154787D01*
X87122Y140766D01*
X95097Y127558D01*
X104597Y115468D01*
X115468Y104597D01*
X127558Y95097D01*
X140766Y87122D01*
X154787Y80772D01*
X169468Y76200D01*
X184607Y73456D01*
G37*
G36*
X3020568Y716076D02*
G01*
X3179419Y716076D01*
X3185769Y716788D01*
X3191205Y718718D01*
X3196082Y721766D01*
X3200196Y725881D01*
X3203295Y730758D01*
X3205175Y736244D01*
X3205886Y742543D01*
X3205886Y901446D01*
X3205175Y907745D01*
X3203295Y913231D01*
X3200196Y918108D01*
X3196082Y922223D01*
X3191205Y925271D01*
X3185769Y927201D01*
X3179419Y927912D01*
X3020568Y927912D01*
X3014218Y927201D01*
X3008782Y925271D01*
X3003905Y922223D01*
X2999790Y918108D01*
X2996692Y913231D01*
X2994812Y907745D01*
X2994101Y901446D01*
X2994101Y742543D01*
X2994812Y736244D01*
X2996692Y730758D01*
X2999790Y725881D01*
X3003905Y721766D01*
X3008782Y718718D01*
X3014218Y716788D01*
G37*
G36*
X420573Y716076D02*
G01*
X579424Y716076D01*
X585774Y716788D01*
X591210Y718718D01*
X596087Y721766D01*
X600202Y725881D01*
X603300Y730758D01*
X605180Y736244D01*
X605891Y742543D01*
X605891Y901446D01*
X605180Y907745D01*
X603300Y913231D01*
X600202Y918108D01*
X596087Y922223D01*
X593242Y924001D01*
X590550Y926439D01*
X588924Y929690D01*
X588518Y933297D01*
X589381Y936802D01*
X591464Y939800D01*
X773582Y1121918D01*
X778713Y1128166D01*
X782269Y1134821D01*
X784453Y1142034D01*
X785266Y1150061D01*
X785266Y6432600D01*
X786130Y6436766D01*
X788670Y6440170D01*
X792378Y6442303D01*
X796645Y6442659D01*
X800658Y6441236D01*
X803757Y6438341D01*
X804875Y6436715D01*
X814019Y6426606D01*
X824433Y6417818D01*
X835914Y6410452D01*
X840486Y6408369D01*
X843584Y6406134D01*
X845667Y6402882D01*
X846378Y6399123D01*
X846378Y3007512D01*
X847191Y2999486D01*
X849376Y2992272D01*
X852932Y2985566D01*
X858062Y2979369D01*
X939342Y2898038D01*
X941425Y2895041D01*
X942289Y2891485D01*
X941882Y2887878D01*
X938682Y2877667D01*
X936447Y2864205D01*
X935990Y2850591D01*
X937310Y2837027D01*
X940511Y2823768D01*
X945387Y2811018D01*
X951941Y2799080D01*
X960018Y2788107D01*
X969518Y2778302D01*
X980236Y2769819D01*
X991971Y2762859D01*
X1004519Y2757576D01*
X1017676Y2753969D01*
X1031189Y2752140D01*
X1044803Y2752140D01*
X1058316Y2753969D01*
X1071473Y2757576D01*
X1084021Y2762859D01*
X1088339Y2765450D01*
X1092352Y2766771D01*
X1096619Y2766364D01*
X1100277Y2764282D01*
X1102817Y2760827D01*
X1103680Y2756662D01*
X1103680Y2697429D01*
X1102868Y2693416D01*
X1100480Y2690063D01*
X1096975Y2687878D01*
X1092911Y2687320D01*
X1088948Y2688386D01*
X1077874Y2693974D01*
X1064971Y2698445D01*
X1051610Y2701188D01*
X1037996Y2702102D01*
X1024382Y2701188D01*
X1011021Y2698445D01*
X998169Y2693974D01*
X985977Y2687828D01*
X974750Y2680106D01*
X964641Y2670962D01*
X955802Y2660548D01*
X948486Y2649067D01*
X942746Y2636672D01*
X938682Y2623667D01*
X936447Y2610205D01*
X935990Y2596591D01*
X937310Y2583027D01*
X940511Y2569768D01*
X945387Y2557018D01*
X951941Y2545080D01*
X960018Y2534107D01*
X969518Y2524302D01*
X980236Y2515819D01*
X991971Y2508859D01*
X1004519Y2503576D01*
X1017676Y2499969D01*
X1031189Y2498140D01*
X1044803Y2498140D01*
X1058316Y2499969D01*
X1071473Y2503576D01*
X1084021Y2508859D01*
X1088339Y2511450D01*
X1092352Y2512771D01*
X1096619Y2512364D01*
X1100277Y2510282D01*
X1102817Y2506827D01*
X1103680Y2502712D01*
X1103680Y2443429D01*
X1102868Y2439416D01*
X1100480Y2436063D01*
X1096975Y2433878D01*
X1092911Y2433320D01*
X1088948Y2434386D01*
X1077874Y2439974D01*
X1064971Y2444445D01*
X1051610Y2447188D01*
X1037996Y2448102D01*
X1024382Y2447188D01*
X1011021Y2444445D01*
X998169Y2439974D01*
X985977Y2433828D01*
X974750Y2426106D01*
X964641Y2416962D01*
X955802Y2406548D01*
X948486Y2395067D01*
X942746Y2382672D01*
X938682Y2369667D01*
X936447Y2356205D01*
X935990Y2342591D01*
X937310Y2329027D01*
X940511Y2315768D01*
X945387Y2303018D01*
X951941Y2291080D01*
X960018Y2280107D01*
X969518Y2270302D01*
X980186Y2261870D01*
X983030Y2258364D01*
X984046Y2253996D01*
X983081Y2249576D01*
X980236Y2245969D01*
X857961Y2123643D01*
X852830Y2117445D01*
X849274Y2110790D01*
X847090Y2103526D01*
X846277Y2095500D01*
X846277Y1229614D01*
X847090Y1221587D01*
X849274Y1214374D01*
X852830Y1207668D01*
X857961Y1201470D01*
X939342Y1120038D01*
X941425Y1117041D01*
X942289Y1113485D01*
X941882Y1109878D01*
X938682Y1099667D01*
X936447Y1086205D01*
X935990Y1072591D01*
X937310Y1059027D01*
X940511Y1045768D01*
X945387Y1033018D01*
X951941Y1021080D01*
X960018Y1010107D01*
X969518Y1000302D01*
X980236Y991819D01*
X991971Y984859D01*
X1004519Y979576D01*
X1017676Y975969D01*
X1031189Y974140D01*
X1044803Y974140D01*
X1058316Y975969D01*
X1071473Y979576D01*
X1084021Y984859D01*
X1095756Y991819D01*
X1106474Y1000302D01*
X1115974Y1010107D01*
X1124051Y1021080D01*
X1130604Y1033018D01*
X1135481Y1045768D01*
X1138682Y1059027D01*
X1140002Y1072591D01*
X1139596Y1086205D01*
X1137310Y1099667D01*
X1133246Y1112672D01*
X1127506Y1125067D01*
X1120190Y1136548D01*
X1111402Y1146962D01*
X1101242Y1156106D01*
X1090015Y1163828D01*
X1077874Y1169974D01*
X1064971Y1174445D01*
X1051610Y1177188D01*
X1037996Y1178102D01*
X1024382Y1177188D01*
X1011021Y1174445D01*
X1004519Y1172210D01*
X1000760Y1171651D01*
X997102Y1172464D01*
X994003Y1174597D01*
X926490Y1242110D01*
X924255Y1245412D01*
X923493Y1249324D01*
X923493Y1289253D01*
X924306Y1293164D01*
X926541Y1296466D01*
X929843Y1298702D01*
X933805Y1299413D01*
X937717Y1298549D01*
X940968Y1296263D01*
X943152Y1292910D01*
X945387Y1287018D01*
X951941Y1275080D01*
X960018Y1264107D01*
X969518Y1254302D01*
X980236Y1245819D01*
X991971Y1238859D01*
X1004519Y1233576D01*
X1017676Y1229969D01*
X1031189Y1228140D01*
X1044803Y1228140D01*
X1058316Y1229969D01*
X1071473Y1233576D01*
X1084021Y1238859D01*
X1095756Y1245819D01*
X1106474Y1254302D01*
X1115974Y1264107D01*
X1124051Y1275080D01*
X1130604Y1287018D01*
X1135481Y1299768D01*
X1138682Y1313027D01*
X1140002Y1326591D01*
X1139596Y1340205D01*
X1137310Y1353667D01*
X1133246Y1366672D01*
X1127506Y1379067D01*
X1120190Y1390548D01*
X1111402Y1400962D01*
X1101242Y1410106D01*
X1090015Y1417828D01*
X1077874Y1423974D01*
X1064971Y1428445D01*
X1051610Y1431188D01*
X1037996Y1432102D01*
X1024382Y1431188D01*
X1011021Y1428445D01*
X1004519Y1426210D01*
X1000760Y1425651D01*
X997102Y1426464D01*
X994003Y1428597D01*
X970940Y1451660D01*
X968756Y1454962D01*
X967994Y1458823D01*
X967994Y1489252D01*
X968857Y1493418D01*
X971346Y1496822D01*
X975055Y1498955D01*
X979271Y1499362D01*
X983284Y1497990D01*
X991971Y1492859D01*
X1004519Y1487576D01*
X1017676Y1483969D01*
X1031189Y1482140D01*
X1044803Y1482140D01*
X1058316Y1483969D01*
X1071473Y1487576D01*
X1084021Y1492859D01*
X1095756Y1499819D01*
X1106474Y1508302D01*
X1115974Y1518107D01*
X1124051Y1529080D01*
X1130604Y1541018D01*
X1135481Y1553768D01*
X1138682Y1567027D01*
X1140002Y1580591D01*
X1139596Y1594205D01*
X1137310Y1607667D01*
X1134160Y1617878D01*
X1133703Y1621485D01*
X1134567Y1625041D01*
X1136650Y1628038D01*
X2046782Y2538171D01*
X2050034Y2540355D01*
X2053945Y2541117D01*
X2057857Y2540355D01*
X2061108Y2538171D01*
X2063343Y2534869D01*
X2064105Y2530957D01*
X2064105Y1281785D01*
X2064918Y1273759D01*
X2067102Y1266545D01*
X2070658Y1259840D01*
X2075789Y1253642D01*
X2463342Y866038D01*
X2465425Y863041D01*
X2466289Y859485D01*
X2465832Y855878D01*
X2462682Y845667D01*
X2460396Y832205D01*
X2459990Y818591D01*
X2461310Y805027D01*
X2464511Y791768D01*
X2469388Y779018D01*
X2475941Y767080D01*
X2484018Y756107D01*
X2493518Y746302D01*
X2504236Y737819D01*
X2515971Y730859D01*
X2528519Y725576D01*
X2541676Y721969D01*
X2555189Y720140D01*
X2568803Y720140D01*
X2582316Y721969D01*
X2595473Y725576D01*
X2608021Y730859D01*
X2619756Y737819D01*
X2630474Y746302D01*
X2639974Y756107D01*
X2648051Y767080D01*
X2654604Y779018D01*
X2659481Y791768D01*
X2662682Y805027D01*
X2664002Y818591D01*
X2663545Y832205D01*
X2661310Y845667D01*
X2657246Y858672D01*
X2651506Y871067D01*
X2644190Y882548D01*
X2635351Y892962D01*
X2625242Y902106D01*
X2614015Y909828D01*
X2601823Y915974D01*
X2588971Y920445D01*
X2575610Y923188D01*
X2561996Y924102D01*
X2548382Y923188D01*
X2535021Y920445D01*
X2528519Y918210D01*
X2524760Y917651D01*
X2521102Y918464D01*
X2518003Y920597D01*
X2144318Y1294282D01*
X2142083Y1297584D01*
X2141321Y1301496D01*
X2141321Y5355640D01*
X2142286Y5359958D01*
X2144979Y5363413D01*
X2148890Y5365445D01*
X2153259Y5365648D01*
X2157323Y5363921D01*
X2159965Y5362092D01*
X2171598Y5356047D01*
X2183942Y5351678D01*
X2196744Y5348986D01*
X2209800Y5348122D01*
X2222855Y5348986D01*
X2235657Y5351678D01*
X2248001Y5356047D01*
X2259634Y5362092D01*
X2270302Y5369610D01*
X2279853Y5378551D01*
X2288133Y5388711D01*
X2294940Y5399887D01*
X2300173Y5411876D01*
X2303678Y5424474D01*
X2305456Y5437479D01*
X2305456Y5450535D01*
X2303678Y5463489D01*
X2300173Y5476087D01*
X2294940Y5488127D01*
X2288133Y5499303D01*
X2279853Y5509463D01*
X2270302Y5518353D01*
X2259634Y5525922D01*
X2248001Y5531967D01*
X2235657Y5536336D01*
X2222855Y5538978D01*
X2209800Y5539892D01*
X2196744Y5538978D01*
X2183942Y5536336D01*
X2171598Y5531967D01*
X2159965Y5525922D01*
X2157323Y5524042D01*
X2153259Y5522366D01*
X2148890Y5522518D01*
X2144979Y5524550D01*
X2142286Y5528056D01*
X2141321Y5532374D01*
X2141321Y6405626D01*
X2142286Y6409944D01*
X2144979Y6413449D01*
X2148890Y6415481D01*
X2153259Y6415633D01*
X2157323Y6413957D01*
X2159965Y6412077D01*
X2171598Y6406032D01*
X2183942Y6401663D01*
X2196744Y6399022D01*
X2209800Y6398107D01*
X2222855Y6399022D01*
X2225598Y6399580D01*
X2228951Y6399733D01*
X2232152Y6398768D01*
X2234844Y6396837D01*
X2378405Y6253276D01*
X2380589Y6249974D01*
X2381351Y6246063D01*
X2381351Y1205839D01*
X2381554Y1201166D01*
X2382164Y1196746D01*
X2383129Y1192428D01*
X2384450Y1188161D01*
X2386177Y1184046D01*
X2388209Y1180134D01*
X2390597Y1176375D01*
X2393289Y1172819D01*
X2396490Y1169365D01*
X2459482Y1106373D01*
X2461361Y1103782D01*
X2462326Y1100683D01*
X2462326Y1097483D01*
X2460396Y1086205D01*
X2459990Y1072591D01*
X2461310Y1059027D01*
X2464511Y1045768D01*
X2469388Y1033018D01*
X2475941Y1021080D01*
X2484018Y1010107D01*
X2493518Y1000302D01*
X2504236Y991819D01*
X2515971Y984859D01*
X2528519Y979576D01*
X2541676Y975969D01*
X2555189Y974140D01*
X2568803Y974140D01*
X2582316Y975969D01*
X2595473Y979576D01*
X2608021Y984859D01*
X2619756Y991819D01*
X2630474Y1000302D01*
X2639974Y1010107D01*
X2648051Y1021080D01*
X2654604Y1033018D01*
X2659481Y1045768D01*
X2662682Y1059027D01*
X2664002Y1072591D01*
X2663545Y1086205D01*
X2661310Y1099667D01*
X2657246Y1112672D01*
X2651506Y1125067D01*
X2644190Y1136548D01*
X2635351Y1146962D01*
X2625242Y1156106D01*
X2614015Y1163828D01*
X2601823Y1169974D01*
X2588971Y1174445D01*
X2575610Y1177188D01*
X2561996Y1178102D01*
X2548382Y1177188D01*
X2540914Y1175664D01*
X2537612Y1175512D01*
X2534412Y1176477D01*
X2531719Y1178407D01*
X2486355Y1223772D01*
X2484170Y1227074D01*
X2483408Y1230934D01*
X2483408Y1241298D01*
X2484374Y1245717D01*
X2487218Y1249222D01*
X2491282Y1251204D01*
X2495753Y1251204D01*
X2499868Y1249273D01*
X2504236Y1245819D01*
X2515971Y1238859D01*
X2528519Y1233576D01*
X2541676Y1229969D01*
X2555189Y1228140D01*
X2568803Y1228140D01*
X2582316Y1229969D01*
X2595473Y1233576D01*
X2608021Y1238859D01*
X2619756Y1245819D01*
X2630474Y1254302D01*
X2639974Y1264107D01*
X2648051Y1275080D01*
X2654604Y1287018D01*
X2659481Y1299768D01*
X2662682Y1313027D01*
X2664002Y1326591D01*
X2663545Y1340205D01*
X2661310Y1353667D01*
X2657246Y1366672D01*
X2651506Y1379067D01*
X2644190Y1390548D01*
X2635351Y1400962D01*
X2625242Y1410106D01*
X2614015Y1417828D01*
X2601823Y1423974D01*
X2588971Y1428445D01*
X2575610Y1431188D01*
X2561996Y1432102D01*
X2548382Y1431188D01*
X2535021Y1428445D01*
X2522118Y1423974D01*
X2509977Y1417828D01*
X2499309Y1410512D01*
X2495245Y1408836D01*
X2490876Y1409090D01*
X2486964Y1411122D01*
X2484323Y1414627D01*
X2483408Y1418894D01*
X2483408Y1495298D01*
X2484374Y1499717D01*
X2487218Y1503222D01*
X2491282Y1505204D01*
X2495753Y1505204D01*
X2499868Y1503273D01*
X2504236Y1499819D01*
X2515971Y1492859D01*
X2528519Y1487576D01*
X2541676Y1483969D01*
X2555189Y1482140D01*
X2568803Y1482140D01*
X2582316Y1483969D01*
X2595473Y1487576D01*
X2608021Y1492859D01*
X2619756Y1499819D01*
X2630474Y1508302D01*
X2639974Y1518107D01*
X2648051Y1529080D01*
X2654604Y1541018D01*
X2659481Y1553768D01*
X2662682Y1567027D01*
X2664002Y1580591D01*
X2663545Y1594205D01*
X2661310Y1607667D01*
X2657246Y1620672D01*
X2651506Y1633067D01*
X2644190Y1644548D01*
X2635351Y1654962D01*
X2625242Y1664106D01*
X2614015Y1671828D01*
X2601823Y1677974D01*
X2588971Y1682445D01*
X2575610Y1685188D01*
X2561996Y1686102D01*
X2548382Y1685188D01*
X2535021Y1682445D01*
X2522118Y1677974D01*
X2509977Y1671828D01*
X2499309Y1664512D01*
X2495245Y1662836D01*
X2490876Y1663090D01*
X2486964Y1665122D01*
X2484323Y1668627D01*
X2483408Y1672894D01*
X2483408Y1749298D01*
X2484374Y1753717D01*
X2487218Y1757222D01*
X2491282Y1759204D01*
X2495753Y1759204D01*
X2499868Y1757273D01*
X2504236Y1753819D01*
X2515971Y1746859D01*
X2528519Y1741576D01*
X2541676Y1737969D01*
X2555189Y1736140D01*
X2568803Y1736140D01*
X2582316Y1737969D01*
X2595473Y1741576D01*
X2608021Y1746859D01*
X2619756Y1753819D01*
X2630474Y1762302D01*
X2639974Y1772107D01*
X2648051Y1783080D01*
X2654604Y1795018D01*
X2659481Y1807768D01*
X2662682Y1821027D01*
X2664002Y1834591D01*
X2663545Y1848205D01*
X2661310Y1861667D01*
X2658110Y1871878D01*
X2657703Y1875485D01*
X2658567Y1879041D01*
X2660650Y1882038D01*
X2758998Y1980387D01*
X2764129Y1986635D01*
X2767685Y1993290D01*
X2769870Y2000504D01*
X2770682Y2008530D01*
X2770682Y7440777D01*
X2771444Y7444740D01*
X2773730Y7448092D01*
X2777134Y7450226D01*
X2781147Y7450937D01*
X2785059Y7449972D01*
X2788361Y7447584D01*
X2795828Y7439304D01*
X2806649Y7430109D01*
X2818587Y7422388D01*
X2828645Y7417511D01*
X2831693Y7415275D01*
X2833674Y7412075D01*
X2834386Y7408367D01*
X2834386Y2319477D01*
X2835198Y2311450D01*
X2837383Y2304237D01*
X2840939Y2297582D01*
X2846070Y2291334D01*
X2998368Y2138984D01*
X3000502Y2135936D01*
X3001365Y2132279D01*
X3000806Y2128570D01*
X2997708Y2119376D01*
X2995015Y2105812D01*
X2994101Y2091994D01*
X2995015Y2078177D01*
X2997708Y2064613D01*
X3002178Y2051456D01*
X3008274Y2039061D01*
X3015996Y2027529D01*
X3025140Y2017115D01*
X3035554Y2007971D01*
X3047034Y2000300D01*
X3059480Y1994154D01*
X3072587Y1989734D01*
X3086150Y1986991D01*
X3099968Y1986127D01*
X3113836Y1986991D01*
X3127400Y1989734D01*
X3140506Y1994154D01*
X3152952Y2000300D01*
X3164433Y2007971D01*
X3166059Y2009393D01*
X3169412Y2011375D01*
X3173222Y2011934D01*
X3176981Y2011019D01*
X3180080Y2008784D01*
X3182213Y2005533D01*
X3182924Y2001774D01*
X3182924Y1928215D01*
X3182213Y1924456D01*
X3180080Y1921205D01*
X3176981Y1918970D01*
X3173222Y1918055D01*
X3169412Y1918614D01*
X3166059Y1920595D01*
X3164433Y1922018D01*
X3152952Y1929688D01*
X3140506Y1935835D01*
X3127400Y1940255D01*
X3113836Y1942998D01*
X3099968Y1943862D01*
X3086150Y1942998D01*
X3072587Y1940255D01*
X3059480Y1935835D01*
X3047034Y1929688D01*
X3035554Y1922018D01*
X3025140Y1912874D01*
X3015996Y1902460D01*
X3008274Y1890928D01*
X3002178Y1878533D01*
X2997708Y1865375D01*
X2995015Y1851812D01*
X2994101Y1837994D01*
X2995015Y1824177D01*
X2997708Y1810613D01*
X3002178Y1797456D01*
X3008274Y1785061D01*
X3015996Y1773529D01*
X3025140Y1763115D01*
X3035554Y1753971D01*
X3047034Y1746300D01*
X3059480Y1740154D01*
X3072587Y1735734D01*
X3086150Y1732991D01*
X3099968Y1732127D01*
X3113836Y1732991D01*
X3127400Y1735734D01*
X3140506Y1740154D01*
X3152952Y1746300D01*
X3164433Y1753971D01*
X3166059Y1755393D01*
X3169412Y1757375D01*
X3173222Y1757934D01*
X3176981Y1757019D01*
X3180080Y1754784D01*
X3182213Y1751533D01*
X3182924Y1747774D01*
X3182924Y1725726D01*
X3182162Y1721866D01*
X3179927Y1718564D01*
X3147009Y1685594D01*
X3143910Y1683512D01*
X3140252Y1682648D01*
X3136544Y1683156D01*
X3127400Y1686255D01*
X3113836Y1688998D01*
X3099968Y1689862D01*
X3086150Y1688998D01*
X3072587Y1686255D01*
X3059480Y1681835D01*
X3047034Y1675688D01*
X3035554Y1668018D01*
X3025140Y1658874D01*
X3015996Y1648460D01*
X3008274Y1636928D01*
X3002178Y1624533D01*
X2997708Y1611376D01*
X2995015Y1597812D01*
X2994101Y1583994D01*
X2995015Y1570177D01*
X2997708Y1556613D01*
X3002178Y1543456D01*
X3008274Y1531061D01*
X3015996Y1519529D01*
X3025140Y1509115D01*
X3035554Y1499971D01*
X3047034Y1492300D01*
X3059480Y1486154D01*
X3072587Y1481734D01*
X3086150Y1478991D01*
X3099968Y1478127D01*
X3113836Y1478991D01*
X3127400Y1481734D01*
X3140506Y1486154D01*
X3152952Y1492300D01*
X3164433Y1499971D01*
X3174847Y1509115D01*
X3183991Y1519529D01*
X3191713Y1531061D01*
X3197809Y1543456D01*
X3202279Y1556613D01*
X3204972Y1570177D01*
X3205886Y1583994D01*
X3204972Y1597812D01*
X3202279Y1611376D01*
X3199180Y1620570D01*
X3198622Y1624279D01*
X3199485Y1627936D01*
X3201619Y1630984D01*
X3248456Y1677873D01*
X3253587Y1684121D01*
X3257143Y1690776D01*
X3259328Y1697989D01*
X3260140Y1706016D01*
X3260140Y2122830D01*
X3259328Y2130856D01*
X3257143Y2138070D01*
X3253587Y2144725D01*
X3248456Y2150973D01*
X3167888Y2231542D01*
X3161690Y2236673D01*
X3157118Y2239111D01*
X3153918Y2241753D01*
X3152038Y2245512D01*
X3151835Y2249627D01*
X3153359Y2253538D01*
X3156254Y2256485D01*
X3164433Y2261971D01*
X3174847Y2271115D01*
X3183991Y2281529D01*
X3191713Y2293061D01*
X3197809Y2305456D01*
X3202279Y2318613D01*
X3204972Y2332177D01*
X3205886Y2345994D01*
X3204972Y2359812D01*
X3202279Y2373376D01*
X3199180Y2382570D01*
X3198622Y2386279D01*
X3199485Y2389936D01*
X3201619Y2392984D01*
X3340557Y2531973D01*
X3345687Y2538171D01*
X3349244Y2544876D01*
X3351428Y2552090D01*
X3352241Y2560116D01*
X3352241Y8093862D01*
X3351428Y8101888D01*
X3349244Y8109153D01*
X3345687Y8115808D01*
X3340557Y8122005D01*
X3232454Y8230108D01*
X3230321Y8233257D01*
X3229508Y8237016D01*
X3230118Y8240826D01*
X3233318Y8249412D01*
X3236468Y8263280D01*
X3237839Y8277453D01*
X3237382Y8291626D01*
X3235096Y8305647D01*
X3231083Y8319262D01*
X3225292Y8332266D01*
X3217926Y8344408D01*
X3209086Y8355533D01*
X3198876Y8365439D01*
X3187496Y8373922D01*
X3175101Y8380882D01*
X3161944Y8386216D01*
X3148177Y8389823D01*
X3134106Y8391652D01*
X3119882Y8391652D01*
X3105810Y8389823D01*
X3092043Y8386216D01*
X3078886Y8380882D01*
X3066491Y8373922D01*
X3055112Y8365439D01*
X3044901Y8355533D01*
X3036062Y8344408D01*
X3028696Y8332266D01*
X3022955Y8319262D01*
X3018891Y8305647D01*
X3016605Y8291626D01*
X3016148Y8277453D01*
X3017520Y8263280D01*
X3020669Y8249412D01*
X3025597Y8236102D01*
X3032150Y8223503D01*
X3040278Y8211870D01*
X3049828Y8201304D01*
X3060649Y8192109D01*
X3072587Y8184388D01*
X3085388Y8178190D01*
X3098850Y8173720D01*
X3112820Y8171027D01*
X3126994Y8170113D01*
X3141167Y8171027D01*
X3155137Y8173720D01*
X3167583Y8177885D01*
X3171291Y8178393D01*
X3174898Y8177530D01*
X3177997Y8175396D01*
X3272028Y8081365D01*
X3274212Y8078063D01*
X3275025Y8074152D01*
X3275025Y7704124D01*
X3274212Y7700213D01*
X3272028Y7696911D01*
X3268726Y7694726D01*
X3264865Y7693964D01*
X3260953Y7694726D01*
X3257651Y7696911D01*
X3232454Y7722108D01*
X3230321Y7725257D01*
X3229508Y7729016D01*
X3230118Y7732826D01*
X3233318Y7741412D01*
X3236468Y7755280D01*
X3237839Y7769453D01*
X3237382Y7783626D01*
X3235096Y7797647D01*
X3231083Y7811262D01*
X3225292Y7824266D01*
X3217926Y7836408D01*
X3209086Y7847533D01*
X3198876Y7857439D01*
X3187496Y7865922D01*
X3175101Y7872882D01*
X3171952Y7874152D01*
X3168599Y7876387D01*
X3166364Y7879689D01*
X3165602Y7883601D01*
X3165602Y7916367D01*
X3166313Y7920075D01*
X3168294Y7923275D01*
X3171342Y7925511D01*
X3181400Y7930388D01*
X3193338Y7938109D01*
X3204159Y7947304D01*
X3213709Y7957870D01*
X3221837Y7969503D01*
X3228390Y7982102D01*
X3233318Y7995412D01*
X3236468Y8009280D01*
X3237839Y8023453D01*
X3237382Y8037626D01*
X3235096Y8051647D01*
X3231083Y8065262D01*
X3225292Y8078266D01*
X3217926Y8090408D01*
X3209086Y8101533D01*
X3198876Y8111439D01*
X3187496Y8119922D01*
X3175101Y8126882D01*
X3161944Y8132216D01*
X3148177Y8135823D01*
X3134106Y8137652D01*
X3119882Y8137652D01*
X3105810Y8135823D01*
X3092043Y8132216D01*
X3078886Y8126882D01*
X3066491Y8119922D01*
X3055112Y8111439D01*
X3044901Y8101533D01*
X3042005Y8097875D01*
X3038703Y8095183D01*
X3034639Y8094065D01*
X3030423Y8094725D01*
X3026867Y8097012D01*
X2967177Y8156752D01*
X2965094Y8159699D01*
X2964180Y8163255D01*
X2964586Y8166862D01*
X2966262Y8170062D01*
X2968955Y8172551D01*
X2974086Y8175802D01*
X2978200Y8179866D01*
X2981299Y8184794D01*
X2983179Y8190230D01*
X2983890Y8196580D01*
X2983890Y8365388D01*
X2983179Y8371738D01*
X2981299Y8377174D01*
X2978200Y8382101D01*
X2974086Y8386165D01*
X2969209Y8389264D01*
X2963722Y8391194D01*
X2957423Y8391906D01*
X2788564Y8391906D01*
X2782265Y8391194D01*
X2776778Y8389264D01*
X2771902Y8386165D01*
X2767787Y8382101D01*
X2764688Y8377174D01*
X2762808Y8371738D01*
X2762097Y8365388D01*
X2762097Y8196580D01*
X2762808Y8190230D01*
X2764688Y8184794D01*
X2767787Y8179866D01*
X2771902Y8175802D01*
X2776778Y8172703D01*
X2782265Y8170773D01*
X2788564Y8170062D01*
X2825038Y8170062D01*
X2828696Y8169402D01*
X2831846Y8167420D01*
X2834081Y8164474D01*
X2837383Y8153349D01*
X2841447Y8145729D01*
X2842615Y8141665D01*
X2842056Y8137499D01*
X2839821Y8133892D01*
X2836316Y8131505D01*
X2824886Y8126882D01*
X2812491Y8119922D01*
X2801112Y8111439D01*
X2790901Y8101533D01*
X2782062Y8090408D01*
X2774696Y8078266D01*
X2768955Y8065262D01*
X2764891Y8051647D01*
X2762605Y8037626D01*
X2762148Y8023453D01*
X2763520Y8009280D01*
X2766669Y7995412D01*
X2771597Y7982102D01*
X2778150Y7969503D01*
X2786278Y7957870D01*
X2795828Y7947304D01*
X2806649Y7938109D01*
X2818587Y7930388D01*
X2828645Y7925511D01*
X2831693Y7923275D01*
X2833674Y7920075D01*
X2834386Y7916367D01*
X2834386Y7883601D01*
X2833624Y7879689D01*
X2831388Y7876387D01*
X2828036Y7874152D01*
X2824886Y7872882D01*
X2812491Y7865922D01*
X2801112Y7857439D01*
X2790901Y7847533D01*
X2782062Y7836408D01*
X2774696Y7824266D01*
X2768955Y7811262D01*
X2764891Y7797647D01*
X2762605Y7783626D01*
X2762148Y7769453D01*
X2763520Y7755280D01*
X2766669Y7741412D01*
X2769870Y7732826D01*
X2770479Y7729016D01*
X2769666Y7725257D01*
X2767533Y7722108D01*
X2705252Y7659827D01*
X2699969Y7653477D01*
X2696413Y7646822D01*
X2694228Y7639608D01*
X2693466Y7631582D01*
X2693466Y2028240D01*
X2692654Y2024380D01*
X2690469Y2021078D01*
X2605989Y1936597D01*
X2602890Y1934464D01*
X2599232Y1933651D01*
X2595473Y1934210D01*
X2588971Y1936445D01*
X2575610Y1939188D01*
X2561996Y1940102D01*
X2548382Y1939188D01*
X2535021Y1936445D01*
X2522118Y1931974D01*
X2509977Y1925828D01*
X2499309Y1918512D01*
X2495245Y1916836D01*
X2490876Y1917090D01*
X2486964Y1919122D01*
X2484323Y1922627D01*
X2483408Y1926894D01*
X2483408Y2003298D01*
X2484374Y2007717D01*
X2487218Y2011222D01*
X2491282Y2013204D01*
X2495753Y2013204D01*
X2499868Y2011273D01*
X2504236Y2007819D01*
X2515971Y2000859D01*
X2528519Y1995576D01*
X2541676Y1991969D01*
X2555189Y1990140D01*
X2568803Y1990140D01*
X2582316Y1991969D01*
X2595473Y1995576D01*
X2608021Y2000859D01*
X2619756Y2007819D01*
X2630474Y2016302D01*
X2639974Y2026107D01*
X2648051Y2037080D01*
X2654604Y2049018D01*
X2659481Y2061768D01*
X2662682Y2075027D01*
X2664002Y2088591D01*
X2663545Y2102205D01*
X2661310Y2115667D01*
X2657246Y2128672D01*
X2651506Y2141067D01*
X2644190Y2152548D01*
X2635351Y2162962D01*
X2625242Y2172106D01*
X2614015Y2179828D01*
X2601823Y2185974D01*
X2588971Y2190445D01*
X2575610Y2193188D01*
X2561996Y2194102D01*
X2548382Y2193188D01*
X2535021Y2190445D01*
X2522118Y2185974D01*
X2509977Y2179828D01*
X2499309Y2172512D01*
X2495245Y2170836D01*
X2490876Y2171090D01*
X2486964Y2173122D01*
X2484323Y2176627D01*
X2483408Y2180894D01*
X2483408Y2257298D01*
X2484374Y2261717D01*
X2487218Y2265222D01*
X2491282Y2267204D01*
X2495753Y2267204D01*
X2499868Y2265273D01*
X2504236Y2261819D01*
X2515971Y2254859D01*
X2528519Y2249576D01*
X2541676Y2245969D01*
X2555189Y2244140D01*
X2568803Y2244140D01*
X2582316Y2245969D01*
X2595473Y2249576D01*
X2608021Y2254859D01*
X2619756Y2261819D01*
X2630474Y2270302D01*
X2639974Y2280107D01*
X2648051Y2291080D01*
X2654604Y2303018D01*
X2659481Y2315768D01*
X2662682Y2329027D01*
X2664002Y2342591D01*
X2663545Y2356205D01*
X2661310Y2369667D01*
X2657246Y2382672D01*
X2651506Y2395067D01*
X2644190Y2406548D01*
X2635351Y2416962D01*
X2625242Y2426106D01*
X2614015Y2433828D01*
X2601823Y2439974D01*
X2588971Y2444445D01*
X2575610Y2447188D01*
X2561996Y2448102D01*
X2548382Y2447188D01*
X2535021Y2444445D01*
X2522118Y2439974D01*
X2509977Y2433828D01*
X2499309Y2426512D01*
X2495245Y2424836D01*
X2490876Y2425090D01*
X2486964Y2427122D01*
X2484323Y2430627D01*
X2483408Y2434894D01*
X2483408Y2511298D01*
X2484374Y2515717D01*
X2487218Y2519222D01*
X2491282Y2521204D01*
X2495753Y2521204D01*
X2499868Y2519273D01*
X2504236Y2515819D01*
X2515971Y2508859D01*
X2528519Y2503576D01*
X2541676Y2499969D01*
X2555189Y2498140D01*
X2568803Y2498140D01*
X2582316Y2499969D01*
X2595473Y2503576D01*
X2608021Y2508859D01*
X2619756Y2515819D01*
X2630474Y2524302D01*
X2639974Y2534107D01*
X2648051Y2545080D01*
X2654604Y2557018D01*
X2659481Y2569768D01*
X2662682Y2583027D01*
X2664002Y2596591D01*
X2663545Y2610205D01*
X2661310Y2623667D01*
X2657246Y2636672D01*
X2651506Y2649067D01*
X2644190Y2660548D01*
X2635351Y2670962D01*
X2625242Y2680106D01*
X2614015Y2687828D01*
X2601823Y2693974D01*
X2588971Y2698445D01*
X2575610Y2701188D01*
X2561996Y2702052D01*
X2548382Y2701188D01*
X2535021Y2698445D01*
X2522118Y2693974D01*
X2509977Y2687828D01*
X2499309Y2680512D01*
X2495245Y2678836D01*
X2490876Y2679090D01*
X2486964Y2681122D01*
X2484323Y2684576D01*
X2483408Y2688894D01*
X2483408Y2765298D01*
X2484374Y2769717D01*
X2487218Y2773222D01*
X2491282Y2775204D01*
X2495753Y2775204D01*
X2499868Y2773273D01*
X2504236Y2769819D01*
X2515971Y2762859D01*
X2528519Y2757576D01*
X2541676Y2753969D01*
X2555189Y2752140D01*
X2568803Y2752140D01*
X2582316Y2753969D01*
X2595473Y2757576D01*
X2608021Y2762859D01*
X2619756Y2769819D01*
X2630474Y2778302D01*
X2639974Y2788107D01*
X2648051Y2799080D01*
X2654604Y2811018D01*
X2659481Y2823768D01*
X2662682Y2837027D01*
X2664002Y2850591D01*
X2663545Y2864205D01*
X2661310Y2877667D01*
X2657246Y2890672D01*
X2651506Y2903067D01*
X2644190Y2914548D01*
X2635351Y2924962D01*
X2625242Y2934106D01*
X2614015Y2941828D01*
X2601823Y2947974D01*
X2588971Y2952445D01*
X2575610Y2955188D01*
X2561996Y2956052D01*
X2548382Y2955188D01*
X2535021Y2952445D01*
X2522118Y2947974D01*
X2509977Y2941828D01*
X2499309Y2934512D01*
X2495245Y2932836D01*
X2490876Y2933090D01*
X2486964Y2935122D01*
X2484323Y2938576D01*
X2483408Y2942894D01*
X2483408Y3019298D01*
X2484374Y3023717D01*
X2487218Y3027222D01*
X2491282Y3029204D01*
X2495753Y3029204D01*
X2499868Y3027273D01*
X2504236Y3023819D01*
X2515971Y3016859D01*
X2528519Y3011576D01*
X2541676Y3007969D01*
X2555189Y3006140D01*
X2568803Y3006140D01*
X2582316Y3007969D01*
X2595473Y3011576D01*
X2608021Y3016859D01*
X2619756Y3023819D01*
X2630474Y3032302D01*
X2639974Y3042107D01*
X2648051Y3053080D01*
X2654604Y3065018D01*
X2659481Y3077768D01*
X2662682Y3091027D01*
X2664002Y3104591D01*
X2663545Y3118205D01*
X2661310Y3131667D01*
X2657246Y3144672D01*
X2651506Y3157067D01*
X2644190Y3168548D01*
X2635351Y3178962D01*
X2625242Y3188106D01*
X2614015Y3195828D01*
X2601823Y3201974D01*
X2588971Y3206445D01*
X2575610Y3209188D01*
X2561996Y3210052D01*
X2548382Y3209188D01*
X2535021Y3206445D01*
X2522118Y3201974D01*
X2509977Y3195828D01*
X2499309Y3188512D01*
X2495245Y3186836D01*
X2490876Y3187090D01*
X2486964Y3189122D01*
X2484323Y3192576D01*
X2483408Y3196894D01*
X2483408Y3273298D01*
X2484374Y3277717D01*
X2487218Y3281222D01*
X2491282Y3283204D01*
X2495753Y3283204D01*
X2499868Y3281273D01*
X2504236Y3277819D01*
X2515971Y3270859D01*
X2528519Y3265576D01*
X2541676Y3261969D01*
X2555189Y3260140D01*
X2568803Y3260140D01*
X2582316Y3261969D01*
X2595473Y3265576D01*
X2608021Y3270859D01*
X2619756Y3277819D01*
X2630474Y3286302D01*
X2639974Y3296107D01*
X2648051Y3307079D01*
X2654604Y3319018D01*
X2659481Y3331768D01*
X2662682Y3345027D01*
X2664002Y3358591D01*
X2663545Y3372205D01*
X2661310Y3385667D01*
X2657246Y3398672D01*
X2651506Y3411067D01*
X2644190Y3422548D01*
X2635351Y3432962D01*
X2625242Y3442106D01*
X2614015Y3449828D01*
X2601823Y3455974D01*
X2588971Y3460445D01*
X2575610Y3463188D01*
X2561996Y3464051D01*
X2548382Y3463188D01*
X2535021Y3460445D01*
X2522118Y3455974D01*
X2509977Y3449828D01*
X2499309Y3442512D01*
X2495245Y3440836D01*
X2490876Y3441090D01*
X2486964Y3443122D01*
X2484323Y3446576D01*
X2483408Y3450894D01*
X2483408Y3527298D01*
X2484374Y3531717D01*
X2487218Y3535222D01*
X2491282Y3537204D01*
X2495753Y3537204D01*
X2499868Y3535273D01*
X2504236Y3531819D01*
X2515971Y3524859D01*
X2528519Y3519576D01*
X2541676Y3515969D01*
X2555189Y3514140D01*
X2568803Y3514140D01*
X2582316Y3515969D01*
X2595473Y3519576D01*
X2608021Y3524859D01*
X2619756Y3531819D01*
X2630474Y3540302D01*
X2639974Y3550107D01*
X2648051Y3561079D01*
X2654604Y3573018D01*
X2659481Y3585768D01*
X2662682Y3599027D01*
X2664002Y3612591D01*
X2663545Y3626205D01*
X2661310Y3639667D01*
X2657246Y3652672D01*
X2651506Y3665067D01*
X2644190Y3676548D01*
X2635351Y3686962D01*
X2625242Y3696106D01*
X2614015Y3703828D01*
X2601823Y3709974D01*
X2588971Y3714445D01*
X2575610Y3717188D01*
X2561996Y3718051D01*
X2548382Y3717188D01*
X2535021Y3714445D01*
X2522118Y3709974D01*
X2509977Y3703828D01*
X2499309Y3696512D01*
X2495245Y3694836D01*
X2490876Y3695090D01*
X2486964Y3697122D01*
X2484323Y3700576D01*
X2483408Y3704894D01*
X2483408Y3781298D01*
X2484374Y3785717D01*
X2487218Y3789222D01*
X2491282Y3791204D01*
X2495753Y3791204D01*
X2499868Y3789273D01*
X2504236Y3785819D01*
X2515971Y3778859D01*
X2528519Y3773576D01*
X2541676Y3769969D01*
X2555189Y3768140D01*
X2568803Y3768140D01*
X2582316Y3769969D01*
X2595473Y3773576D01*
X2608021Y3778859D01*
X2619756Y3785819D01*
X2630474Y3794302D01*
X2639974Y3804056D01*
X2648051Y3815079D01*
X2654604Y3827018D01*
X2659481Y3839768D01*
X2662682Y3853027D01*
X2664002Y3866591D01*
X2663545Y3880205D01*
X2661310Y3893667D01*
X2657246Y3906672D01*
X2651506Y3919067D01*
X2644190Y3930548D01*
X2635351Y3940962D01*
X2625242Y3950106D01*
X2614015Y3957828D01*
X2601823Y3963974D01*
X2588971Y3968445D01*
X2575610Y3971188D01*
X2561996Y3972051D01*
X2548382Y3971188D01*
X2535021Y3968445D01*
X2522118Y3963974D01*
X2509977Y3957828D01*
X2499309Y3950512D01*
X2495245Y3948836D01*
X2490876Y3949090D01*
X2486964Y3951122D01*
X2484323Y3954576D01*
X2483408Y3958894D01*
X2483408Y4035298D01*
X2484374Y4039717D01*
X2487218Y4043222D01*
X2491282Y4045204D01*
X2495753Y4045204D01*
X2499868Y4043273D01*
X2504236Y4039819D01*
X2515971Y4032859D01*
X2517546Y4032199D01*
X2517546Y4079544D01*
X2493568Y4079544D01*
X2489657Y4080306D01*
X2486355Y4082491D01*
X2484170Y4085793D01*
X2483408Y4089704D01*
X2483408Y4158284D01*
X2484170Y4162145D01*
X2486355Y4165447D01*
X2489657Y4167682D01*
X2493568Y4168444D01*
X2517546Y4168444D01*
X2517546Y4215638D01*
X2509977Y4211828D01*
X2499309Y4204512D01*
X2495245Y4202836D01*
X2490876Y4203090D01*
X2486964Y4205122D01*
X2484323Y4208576D01*
X2483408Y4212894D01*
X2483408Y4289298D01*
X2484374Y4293717D01*
X2487218Y4297222D01*
X2491282Y4299204D01*
X2495753Y4299204D01*
X2499868Y4297273D01*
X2504236Y4293819D01*
X2515971Y4286859D01*
X2528519Y4281576D01*
X2541676Y4277969D01*
X2555189Y4276140D01*
X2568803Y4276140D01*
X2582316Y4277969D01*
X2595473Y4281576D01*
X2608021Y4286859D01*
X2619756Y4293819D01*
X2630474Y4302302D01*
X2639974Y4312056D01*
X2648051Y4323080D01*
X2654604Y4335018D01*
X2659481Y4347768D01*
X2662682Y4361027D01*
X2664002Y4374591D01*
X2663545Y4388205D01*
X2661310Y4401667D01*
X2657246Y4414672D01*
X2651506Y4427067D01*
X2644190Y4438548D01*
X2635351Y4448962D01*
X2625242Y4458106D01*
X2614015Y4465828D01*
X2601823Y4471974D01*
X2588971Y4476445D01*
X2575610Y4479188D01*
X2561996Y4480052D01*
X2548382Y4479188D01*
X2535021Y4476445D01*
X2522118Y4471974D01*
X2509977Y4465828D01*
X2499309Y4458512D01*
X2495245Y4456836D01*
X2490876Y4457090D01*
X2486964Y4459122D01*
X2484323Y4462576D01*
X2483408Y4466894D01*
X2483408Y6271209D01*
X2483205Y6275882D01*
X2482596Y6280251D01*
X2481630Y6284620D01*
X2480310Y6288836D01*
X2478582Y6292951D01*
X2476550Y6296914D01*
X2474163Y6300673D01*
X2471470Y6304178D01*
X2468270Y6307632D01*
X2306980Y6468973D01*
X2305151Y6471462D01*
X2304135Y6474409D01*
X2304084Y6477508D01*
X2305456Y6487464D01*
X2305456Y6500520D01*
X2303678Y6513525D01*
X2300173Y6526123D01*
X2294940Y6538112D01*
X2288133Y6549288D01*
X2279853Y6559448D01*
X2270302Y6568389D01*
X2259634Y6575907D01*
X2248001Y6581952D01*
X2235657Y6586321D01*
X2222855Y6589014D01*
X2209800Y6589877D01*
X2196744Y6589014D01*
X2183942Y6586321D01*
X2171496Y6581902D01*
X2167585Y6580784D01*
X2163521Y6581292D01*
X2160016Y6583375D01*
X2157577Y6586677D01*
X2156663Y6590690D01*
X2157374Y6594703D01*
X2159660Y6598107D01*
X2477211Y6915708D01*
X2482342Y6921906D01*
X2485898Y6928612D01*
X2488082Y6935825D01*
X2488895Y6943852D01*
X2488895Y7649209D01*
X2488082Y7657236D01*
X2485898Y7664450D01*
X2482342Y7671104D01*
X2477211Y7677353D01*
X2432456Y7722108D01*
X2430322Y7725257D01*
X2429510Y7729016D01*
X2430119Y7732826D01*
X2433320Y7741412D01*
X2436469Y7755280D01*
X2437841Y7769453D01*
X2437384Y7783626D01*
X2435098Y7797647D01*
X2431084Y7811262D01*
X2425293Y7824266D01*
X2417927Y7836408D01*
X2409088Y7847533D01*
X2398877Y7857439D01*
X2387498Y7865922D01*
X2375103Y7872882D01*
X2361946Y7878216D01*
X2348179Y7881823D01*
X2334107Y7883652D01*
X2319883Y7883652D01*
X2305812Y7881823D01*
X2292045Y7878216D01*
X2278888Y7872882D01*
X2266492Y7865922D01*
X2255113Y7857439D01*
X2244902Y7847533D01*
X2236063Y7836408D01*
X2228697Y7824266D01*
X2222957Y7811262D01*
X2218893Y7797647D01*
X2216607Y7783626D01*
X2216150Y7769453D01*
X2217521Y7755280D01*
X2220671Y7741412D01*
X2225598Y7728102D01*
X2232152Y7715503D01*
X2240280Y7703870D01*
X2249830Y7693304D01*
X2260650Y7684109D01*
X2272588Y7676388D01*
X2285390Y7670190D01*
X2298852Y7665720D01*
X2312822Y7663027D01*
X2326995Y7662113D01*
X2341168Y7663027D01*
X2355138Y7665720D01*
X2367584Y7669885D01*
X2371293Y7670393D01*
X2374900Y7669530D01*
X2377998Y7667396D01*
X2408682Y7636662D01*
X2410917Y7633360D01*
X2411679Y7629499D01*
X2411679Y7614107D01*
X2410714Y7609789D01*
X2407970Y7606284D01*
X2403957Y7604252D01*
X2399538Y7604150D01*
X2395423Y7605979D01*
X2387498Y7611922D01*
X2375103Y7618882D01*
X2361946Y7624216D01*
X2348179Y7627823D01*
X2334107Y7629652D01*
X2319883Y7629652D01*
X2305812Y7627823D01*
X2292045Y7624216D01*
X2278888Y7618882D01*
X2266492Y7611922D01*
X2254859Y7603236D01*
X2250744Y7601407D01*
X2246325Y7601508D01*
X2242312Y7603490D01*
X2239568Y7606995D01*
X2238603Y7611364D01*
X2238603Y7645501D01*
X2237790Y7653528D01*
X2235606Y7660741D01*
X2232050Y7667396D01*
X2226919Y7673644D01*
X2178456Y7722108D01*
X2176322Y7725257D01*
X2175510Y7729016D01*
X2176119Y7732826D01*
X2179320Y7741412D01*
X2182469Y7755280D01*
X2183841Y7769453D01*
X2183384Y7783626D01*
X2181098Y7797647D01*
X2177084Y7811262D01*
X2171293Y7824266D01*
X2163927Y7836408D01*
X2155088Y7847533D01*
X2144877Y7857439D01*
X2133498Y7865922D01*
X2121103Y7872882D01*
X2107946Y7878216D01*
X2094179Y7881823D01*
X2080107Y7883652D01*
X2065883Y7883652D01*
X2051812Y7881823D01*
X2038045Y7878216D01*
X2024888Y7872882D01*
X2012492Y7865922D01*
X2001113Y7857439D01*
X1990902Y7847533D01*
X1982063Y7836408D01*
X1974697Y7824266D01*
X1968957Y7811262D01*
X1964893Y7797647D01*
X1962607Y7783626D01*
X1962150Y7769453D01*
X1963521Y7755280D01*
X1966671Y7741412D01*
X1971598Y7728102D01*
X1978152Y7715503D01*
X1986280Y7703870D01*
X1995830Y7693304D01*
X2006650Y7684109D01*
X2018588Y7676388D01*
X2031390Y7670190D01*
X2044852Y7665720D01*
X2058822Y7663027D01*
X2072995Y7662113D01*
X2087168Y7663027D01*
X2101138Y7665720D01*
X2113584Y7669885D01*
X2117293Y7670393D01*
X2120900Y7669530D01*
X2123998Y7667396D01*
X2158390Y7632953D01*
X2160625Y7629652D01*
X2161387Y7625791D01*
X2161387Y7611364D01*
X2160422Y7606995D01*
X2157679Y7603490D01*
X2153666Y7601508D01*
X2149246Y7601407D01*
X2145131Y7603236D01*
X2133498Y7611922D01*
X2121103Y7618882D01*
X2107946Y7624216D01*
X2094179Y7627823D01*
X2080107Y7629652D01*
X2065883Y7629652D01*
X2051812Y7627823D01*
X2038045Y7624216D01*
X2024888Y7618882D01*
X2012492Y7611922D01*
X2001113Y7603439D01*
X1990902Y7593533D01*
X1982063Y7582408D01*
X1974697Y7570266D01*
X1968957Y7557262D01*
X1964893Y7543647D01*
X1962607Y7529626D01*
X1962150Y7515453D01*
X1963521Y7501280D01*
X1966671Y7487412D01*
X1969871Y7478826D01*
X1970481Y7475016D01*
X1969668Y7471257D01*
X1967534Y7468108D01*
X1660347Y7160920D01*
X1657045Y7158736D01*
X1653184Y7157974D01*
X1649272Y7158736D01*
X1645970Y7160920D01*
X1643786Y7164222D01*
X1643024Y7168134D01*
X1643024Y7538161D01*
X1643786Y7542072D01*
X1645970Y7545374D01*
X2021992Y7921396D01*
X2025091Y7923530D01*
X2028698Y7924393D01*
X2032406Y7923885D01*
X2044852Y7919720D01*
X2058822Y7917027D01*
X2072995Y7916113D01*
X2087168Y7917027D01*
X2101138Y7919720D01*
X2114600Y7924190D01*
X2127402Y7930388D01*
X2139340Y7938109D01*
X2150160Y7947304D01*
X2159711Y7957870D01*
X2167839Y7969503D01*
X2174392Y7982102D01*
X2179320Y7995412D01*
X2182469Y8009280D01*
X2183841Y8023453D01*
X2183384Y8037626D01*
X2181098Y8051647D01*
X2177084Y8065262D01*
X2171293Y8078266D01*
X2163927Y8090408D01*
X2155088Y8101533D01*
X2144877Y8111439D01*
X2133498Y8119922D01*
X2121103Y8126882D01*
X2107946Y8132216D01*
X2094179Y8135823D01*
X2080107Y8137652D01*
X2065883Y8137652D01*
X2051812Y8135823D01*
X2038045Y8132216D01*
X2024888Y8126882D01*
X2012492Y8119922D01*
X2001113Y8111439D01*
X1990902Y8101533D01*
X1982063Y8090408D01*
X1974697Y8078266D01*
X1968957Y8065262D01*
X1964893Y8051647D01*
X1962607Y8037626D01*
X1962150Y8023453D01*
X1963521Y8009280D01*
X1966671Y7995412D01*
X1969871Y7986826D01*
X1970481Y7983016D01*
X1969668Y7979257D01*
X1967534Y7976108D01*
X1601266Y7609840D01*
X1597964Y7607655D01*
X1594104Y7606893D01*
X1590192Y7607655D01*
X1586890Y7609840D01*
X1584706Y7613142D01*
X1583944Y7617053D01*
X1583944Y7645501D01*
X1584452Y7648803D01*
X1586077Y7651750D01*
X1588516Y7653985D01*
X1593342Y7657134D01*
X1604162Y7666329D01*
X1613712Y7676845D01*
X1621840Y7688478D01*
X1628394Y7701076D01*
X1633321Y7714437D01*
X1636471Y7728305D01*
X1637842Y7742428D01*
X1637385Y7756652D01*
X1635099Y7770672D01*
X1631086Y7784287D01*
X1625295Y7797292D01*
X1617929Y7809433D01*
X1609090Y7820558D01*
X1598879Y7830413D01*
X1587500Y7838897D01*
X1575104Y7845907D01*
X1561947Y7851241D01*
X1548180Y7854848D01*
X1534109Y7856626D01*
X1519885Y7856626D01*
X1505813Y7854848D01*
X1492046Y7851241D01*
X1478889Y7845907D01*
X1466494Y7838897D01*
X1455115Y7830413D01*
X1444904Y7820558D01*
X1436065Y7809433D01*
X1428699Y7797292D01*
X1422958Y7784287D01*
X1418894Y7770672D01*
X1416608Y7756652D01*
X1416151Y7742428D01*
X1417523Y7728305D01*
X1420672Y7714437D01*
X1425600Y7701076D01*
X1432153Y7688478D01*
X1440281Y7676845D01*
X1449832Y7666329D01*
X1460652Y7657134D01*
X1472590Y7649362D01*
X1485392Y7643215D01*
X1499717Y7638491D01*
X1503375Y7636357D01*
X1505813Y7632953D01*
X1506728Y7628839D01*
X1506728Y5004714D01*
X1505915Y5000752D01*
X1503578Y4997399D01*
X1500174Y4995265D01*
X1496212Y4994554D01*
X1481582Y4998618D01*
X1471828Y4999482D01*
X1462024Y4998618D01*
X1452524Y4996078D01*
X1443634Y4991912D01*
X1435557Y4986274D01*
X1428597Y4979314D01*
X1423009Y4971288D01*
X1418844Y4962398D01*
X1416304Y4952898D01*
X1415440Y4943094D01*
X1416304Y4933289D01*
X1418844Y4923840D01*
X1423009Y4914900D01*
X1428597Y4906873D01*
X1430223Y4905248D01*
X1432407Y4901946D01*
X1433220Y4898085D01*
X1433220Y3815994D01*
X1432407Y3812133D01*
X1430223Y3808831D01*
X1328928Y3707536D01*
X1325676Y3705351D01*
X1321765Y3704590D01*
X1317853Y3705351D01*
X1314602Y3707536D01*
X1312367Y3710838D01*
X1311605Y3714750D01*
X1311605Y7635392D01*
X1312316Y7639100D01*
X1314297Y7642301D01*
X1317345Y7644536D01*
X1327404Y7649362D01*
X1339342Y7657134D01*
X1350162Y7666329D01*
X1359712Y7676845D01*
X1367840Y7688478D01*
X1374394Y7701076D01*
X1379321Y7714437D01*
X1382471Y7728305D01*
X1383842Y7742428D01*
X1383385Y7756652D01*
X1381099Y7770672D01*
X1377086Y7784287D01*
X1371295Y7797292D01*
X1363929Y7809433D01*
X1355090Y7820558D01*
X1344879Y7830413D01*
X1333500Y7838897D01*
X1321104Y7845907D01*
X1307947Y7851241D01*
X1294180Y7854848D01*
X1280109Y7856626D01*
X1265885Y7856626D01*
X1251813Y7854848D01*
X1238046Y7851241D01*
X1224889Y7845907D01*
X1212494Y7838897D01*
X1201115Y7830413D01*
X1190904Y7820558D01*
X1188770Y7817866D01*
X1185570Y7815224D01*
X1181608Y7814056D01*
X1177493Y7814614D01*
X1173937Y7816748D01*
X1171549Y7820152D01*
X1170686Y7824216D01*
X1170686Y7838846D01*
X1171448Y7842707D01*
X1173683Y7846009D01*
X1222044Y7894421D01*
X1225092Y7896504D01*
X1228750Y7897368D01*
X1232408Y7896859D01*
X1244854Y7892745D01*
X1258824Y7890002D01*
X1272997Y7889087D01*
X1287170Y7890002D01*
X1301140Y7892745D01*
X1314602Y7897215D01*
X1327404Y7903362D01*
X1339342Y7911134D01*
X1350162Y7920329D01*
X1359712Y7930845D01*
X1367840Y7942478D01*
X1374394Y7955076D01*
X1379321Y7968437D01*
X1382471Y7982305D01*
X1383842Y7996428D01*
X1383385Y8010652D01*
X1381099Y8024672D01*
X1377086Y8038287D01*
X1371295Y8051292D01*
X1363929Y8063433D01*
X1355090Y8074558D01*
X1344879Y8084413D01*
X1333500Y8092897D01*
X1321104Y8099907D01*
X1307947Y8105241D01*
X1294180Y8108848D01*
X1280109Y8110626D01*
X1265885Y8110626D01*
X1251813Y8108848D01*
X1238046Y8105241D01*
X1224889Y8099907D01*
X1212494Y8092897D01*
X1201115Y8084413D01*
X1190904Y8074558D01*
X1182065Y8063433D01*
X1174699Y8051292D01*
X1168958Y8038287D01*
X1164894Y8024672D01*
X1162608Y8010652D01*
X1162151Y7996428D01*
X1163523Y7982305D01*
X1166672Y7968437D01*
X1169873Y7959801D01*
X1170482Y7955991D01*
X1169670Y7952282D01*
X1167536Y7949082D01*
X1105154Y7886700D01*
X1100023Y7880451D01*
X1096467Y7873796D01*
X1094282Y7866583D01*
X1093470Y7858556D01*
X1093470Y6934149D01*
X1092708Y6930288D01*
X1090472Y6926986D01*
X756462Y6592976D01*
X753211Y6590741D01*
X749300Y6589979D01*
X745388Y6590741D01*
X742137Y6592976D01*
X739902Y6596278D01*
X739140Y6600139D01*
X739140Y6951218D01*
X739902Y6955129D01*
X742137Y6958380D01*
X745388Y6960616D01*
X749300Y6961378D01*
X784148Y6961378D01*
X787806Y6960717D01*
X790956Y6958736D01*
X793191Y6955790D01*
X797153Y6947966D01*
X804875Y6936740D01*
X814019Y6926580D01*
X824433Y6917791D01*
X835914Y6910476D01*
X848309Y6904736D01*
X861314Y6900672D01*
X874776Y6898436D01*
X888390Y6897979D01*
X901953Y6899300D01*
X915263Y6902500D01*
X927963Y6907377D01*
X939952Y6913930D01*
X950925Y6922008D01*
X960729Y6931507D01*
X969162Y6942226D01*
X976121Y6953961D01*
X981456Y6966508D01*
X985012Y6979666D01*
X986840Y6993178D01*
X986840Y7006793D01*
X985012Y7020306D01*
X981456Y7033463D01*
X976121Y7046010D01*
X969162Y7057745D01*
X960729Y7068464D01*
X950925Y7077964D01*
X939952Y7086041D01*
X927963Y7092594D01*
X915263Y7097471D01*
X901953Y7100671D01*
X888390Y7101992D01*
X874776Y7101535D01*
X861314Y7099300D01*
X848309Y7095236D01*
X835914Y7089495D01*
X824433Y7082180D01*
X814019Y7073392D01*
X804875Y7063231D01*
X797153Y7052005D01*
X793191Y7044181D01*
X790956Y7041235D01*
X787806Y7039254D01*
X784148Y7038594D01*
X749300Y7038594D01*
X745388Y7039356D01*
X742137Y7041591D01*
X739902Y7044893D01*
X739140Y7048753D01*
X739140Y7183932D01*
X738327Y7191959D01*
X736142Y7199223D01*
X732586Y7205878D01*
X727456Y7212075D01*
X641604Y7297978D01*
X639368Y7301280D01*
X638606Y7305192D01*
X638606Y7653934D01*
X639318Y7657693D01*
X641400Y7660894D01*
X644499Y7663129D01*
X648208Y7664043D01*
X652018Y7663535D01*
X655370Y7661656D01*
X660654Y7657134D01*
X672592Y7649362D01*
X685393Y7643215D01*
X698855Y7638745D01*
X712825Y7636002D01*
X726998Y7635087D01*
X741172Y7636002D01*
X755142Y7638745D01*
X768604Y7643215D01*
X781405Y7649362D01*
X793343Y7657134D01*
X804164Y7666329D01*
X813714Y7676845D01*
X821842Y7688478D01*
X828395Y7701076D01*
X833323Y7714437D01*
X836472Y7728305D01*
X837844Y7742428D01*
X837387Y7756652D01*
X835101Y7770672D01*
X831087Y7784287D01*
X825296Y7797292D01*
X817930Y7809433D01*
X809091Y7820558D01*
X798880Y7830413D01*
X787501Y7838897D01*
X775106Y7845907D01*
X761949Y7851241D01*
X748182Y7854848D01*
X734110Y7856626D01*
X719886Y7856626D01*
X705815Y7854848D01*
X692048Y7851241D01*
X678891Y7845907D01*
X666496Y7838897D01*
X654862Y7830210D01*
X650748Y7828381D01*
X646328Y7828483D01*
X642315Y7830515D01*
X639572Y7834020D01*
X638606Y7838338D01*
X638606Y7872475D01*
X637794Y7880502D01*
X635609Y7887716D01*
X632053Y7894370D01*
X626922Y7900619D01*
X578459Y7949082D01*
X576326Y7952282D01*
X575513Y7955991D01*
X576122Y7959801D01*
X579323Y7968437D01*
X582472Y7982305D01*
X583844Y7996428D01*
X583387Y8010652D01*
X581101Y8024672D01*
X577088Y8038287D01*
X571296Y8051292D01*
X563930Y8063433D01*
X555091Y8074558D01*
X544423Y8084820D01*
X542188Y8088122D01*
X541375Y8092033D01*
X542086Y8095945D01*
X544271Y8099298D01*
X547624Y8101533D01*
X551535Y8102295D01*
X613460Y8102295D01*
X621487Y8103108D01*
X628700Y8105292D01*
X635355Y8108848D01*
X641604Y8113979D01*
X676046Y8148421D01*
X679094Y8150504D01*
X682752Y8151368D01*
X686409Y8150859D01*
X698855Y8146745D01*
X712825Y8144002D01*
X726998Y8143087D01*
X741172Y8144002D01*
X755142Y8146745D01*
X768604Y8151215D01*
X781405Y8157362D01*
X793343Y8165134D01*
X804164Y8174329D01*
X813714Y8184845D01*
X821842Y8196478D01*
X828395Y8209076D01*
X833323Y8222437D01*
X836472Y8236305D01*
X837844Y8250428D01*
X837387Y8264652D01*
X835101Y8278672D01*
X831087Y8292287D01*
X825296Y8305292D01*
X817930Y8317433D01*
X809091Y8328558D01*
X798880Y8338413D01*
X787501Y8346897D01*
X775106Y8353907D01*
X761949Y8359241D01*
X748182Y8362848D01*
X734110Y8364626D01*
X719886Y8364626D01*
X705815Y8362848D01*
X692048Y8359241D01*
X678891Y8353907D01*
X666496Y8346897D01*
X655116Y8338413D01*
X644906Y8328558D01*
X636066Y8317433D01*
X628700Y8305292D01*
X622960Y8292287D01*
X618896Y8278672D01*
X616610Y8264652D01*
X616153Y8250428D01*
X617524Y8236305D01*
X620674Y8222437D01*
X623874Y8213801D01*
X624484Y8209991D01*
X623671Y8206282D01*
X621538Y8203082D01*
X601268Y8182813D01*
X597966Y8180628D01*
X594055Y8179816D01*
X590194Y8180628D01*
X586892Y8182813D01*
X584657Y8186115D01*
X583895Y8189975D01*
X583895Y8205114D01*
X521868Y8205114D01*
X521868Y8189671D01*
X521055Y8185810D01*
X518871Y8182508D01*
X515569Y8180273D01*
X511708Y8179511D01*
X447344Y8179511D01*
X439318Y8178698D01*
X437235Y8178088D01*
X433527Y8177682D01*
X429869Y8178698D01*
X426872Y8180933D01*
X424840Y8184134D01*
X424129Y8187842D01*
X424129Y8205114D01*
X362102Y8205114D01*
X362102Y8169554D01*
X362813Y8163255D01*
X364693Y8157768D01*
X367792Y8152892D01*
X371906Y8148777D01*
X380187Y8143544D01*
X382473Y8140242D01*
X383336Y8136331D01*
X382574Y8132368D01*
X380339Y8129016D01*
X292608Y8041233D01*
X287477Y8035036D01*
X283921Y8028381D01*
X281736Y8021116D01*
X280924Y8013090D01*
X280924Y3288944D01*
X281736Y3280918D01*
X283921Y3273704D01*
X287477Y3267049D01*
X292608Y3260801D01*
X398373Y3154984D01*
X400507Y3151936D01*
X401370Y3148279D01*
X400812Y3144570D01*
X397713Y3135376D01*
X395020Y3121812D01*
X394106Y3107994D01*
X395020Y3094177D01*
X397713Y3080613D01*
X402183Y3067456D01*
X408279Y3055061D01*
X416001Y3043529D01*
X425145Y3033115D01*
X435559Y3023971D01*
X447040Y3016300D01*
X459485Y3010154D01*
X472592Y3005734D01*
X486156Y3002991D01*
X500024Y3002127D01*
X513842Y3002991D01*
X527405Y3005734D01*
X540512Y3010154D01*
X552958Y3016300D01*
X564438Y3023971D01*
X574852Y3033115D01*
X583996Y3043529D01*
X591718Y3055061D01*
X597814Y3067456D01*
X601370Y3077870D01*
X603402Y3081375D01*
X606653Y3083814D01*
X610616Y3084728D01*
X614578Y3084068D01*
X618032Y3081934D01*
X620318Y3078581D01*
X621131Y3074619D01*
X621131Y2887370D01*
X620318Y2883408D01*
X618032Y2880055D01*
X614578Y2877921D01*
X610616Y2877261D01*
X606653Y2878175D01*
X603402Y2880614D01*
X601370Y2884119D01*
X597814Y2894533D01*
X591718Y2906928D01*
X583996Y2918460D01*
X574852Y2928874D01*
X564438Y2938018D01*
X552958Y2945688D01*
X540512Y2951835D01*
X527405Y2956255D01*
X513842Y2958998D01*
X500024Y2959862D01*
X486156Y2958998D01*
X472592Y2956255D01*
X459485Y2951835D01*
X447040Y2945688D01*
X435559Y2938018D01*
X425145Y2928874D01*
X416001Y2918460D01*
X408279Y2906928D01*
X402183Y2894533D01*
X397713Y2881376D01*
X395020Y2867812D01*
X394106Y2853994D01*
X395020Y2840177D01*
X397713Y2826613D01*
X402183Y2813456D01*
X408279Y2801061D01*
X416001Y2789529D01*
X425145Y2779115D01*
X435559Y2769971D01*
X438759Y2767838D01*
X441858Y2764586D01*
X443230Y2760370D01*
X442722Y2755950D01*
X440334Y2752191D01*
X360781Y2672638D01*
X355650Y2666441D01*
X352094Y2659786D01*
X349910Y2652522D01*
X349148Y2644495D01*
X349148Y2458770D01*
X349910Y2450744D01*
X352094Y2443530D01*
X355650Y2436825D01*
X360781Y2430627D01*
X398373Y2392984D01*
X400507Y2389936D01*
X401370Y2386279D01*
X400812Y2382570D01*
X397713Y2373376D01*
X395020Y2359812D01*
X394106Y2345994D01*
X395020Y2332177D01*
X397713Y2318613D01*
X402183Y2305456D01*
X408279Y2293061D01*
X416001Y2281529D01*
X425145Y2271115D01*
X435559Y2261971D01*
X447040Y2254300D01*
X459485Y2248154D01*
X472592Y2243734D01*
X486156Y2240991D01*
X500024Y2240127D01*
X513842Y2240991D01*
X527405Y2243734D01*
X540512Y2248154D01*
X552958Y2254300D01*
X564438Y2261971D01*
X574852Y2271115D01*
X583996Y2281529D01*
X591718Y2293061D01*
X597814Y2305456D01*
X602284Y2318613D01*
X604977Y2332177D01*
X605891Y2345994D01*
X604977Y2359812D01*
X602284Y2373376D01*
X597814Y2386533D01*
X591718Y2398928D01*
X583996Y2410460D01*
X574852Y2420874D01*
X564438Y2430018D01*
X552958Y2437688D01*
X540512Y2443835D01*
X527405Y2448255D01*
X513842Y2450998D01*
X500024Y2451862D01*
X486156Y2450998D01*
X472592Y2448255D01*
X463448Y2445156D01*
X459740Y2444648D01*
X456082Y2445512D01*
X452983Y2447594D01*
X429310Y2471267D01*
X427126Y2474569D01*
X426364Y2478481D01*
X426364Y2503119D01*
X427278Y2507386D01*
X429920Y2510840D01*
X433730Y2512923D01*
X438099Y2513177D01*
X442163Y2511552D01*
X447040Y2508300D01*
X459485Y2502154D01*
X472592Y2497734D01*
X486156Y2494991D01*
X500024Y2494127D01*
X513842Y2494991D01*
X527405Y2497734D01*
X540512Y2502154D01*
X552958Y2508300D01*
X564438Y2515971D01*
X574852Y2525115D01*
X583996Y2535529D01*
X591718Y2547061D01*
X597814Y2559456D01*
X602284Y2572613D01*
X604977Y2586177D01*
X605891Y2599994D01*
X604977Y2613812D01*
X602284Y2627376D01*
X599186Y2636570D01*
X598627Y2640279D01*
X599490Y2643936D01*
X601624Y2646984D01*
X690676Y2736088D01*
X693978Y2738272D01*
X697890Y2739034D01*
X701751Y2738272D01*
X705053Y2736088D01*
X707237Y2732786D01*
X708050Y2728874D01*
X708050Y1169771D01*
X707237Y1165910D01*
X705053Y1162608D01*
X622503Y1080058D01*
X619302Y1077925D01*
X615543Y1077112D01*
X611733Y1077722D01*
X608482Y1079754D01*
X606145Y1082852D01*
X605180Y1086561D01*
X604977Y1089812D01*
X602284Y1103376D01*
X597814Y1116533D01*
X591718Y1128928D01*
X583996Y1140460D01*
X574852Y1150874D01*
X564438Y1160018D01*
X552958Y1167688D01*
X540512Y1173835D01*
X527405Y1178255D01*
X513842Y1180998D01*
X500024Y1181862D01*
X486156Y1180998D01*
X472592Y1178255D01*
X459485Y1173835D01*
X447040Y1167688D01*
X435559Y1160018D01*
X425145Y1150874D01*
X416001Y1140460D01*
X408279Y1128928D01*
X402183Y1116533D01*
X397713Y1103376D01*
X395020Y1089812D01*
X394106Y1075994D01*
X395020Y1062177D01*
X397713Y1048613D01*
X402183Y1035456D01*
X408279Y1023061D01*
X416001Y1011529D01*
X425145Y1001115D01*
X435559Y991971D01*
X447040Y984300D01*
X459485Y978153D01*
X469646Y974699D01*
X473303Y972515D01*
X475742Y969010D01*
X476504Y964793D01*
X475488Y960628D01*
X467918Y951331D01*
X464362Y944676D01*
X461111Y933500D01*
X458876Y930554D01*
X455676Y928573D01*
X452018Y927912D01*
X420573Y927912D01*
X414223Y927201D01*
X408787Y925271D01*
X403910Y922223D01*
X399796Y918108D01*
X396697Y913231D01*
X394817Y907745D01*
X394106Y901446D01*
X394106Y742543D01*
X394817Y736244D01*
X396697Y730758D01*
X399796Y725881D01*
X403910Y721766D01*
X408787Y718718D01*
X414223Y716788D01*
G37*
G36*
X1031189Y720140D02*
G01*
X1044803Y720140D01*
X1058316Y721969D01*
X1071473Y725576D01*
X1084021Y730859D01*
X1095756Y737819D01*
X1106474Y746302D01*
X1115974Y756107D01*
X1124051Y767080D01*
X1130604Y779018D01*
X1135481Y791768D01*
X1138682Y805027D01*
X1140002Y818591D01*
X1139596Y832205D01*
X1137310Y845667D01*
X1133246Y858672D01*
X1127506Y871067D01*
X1120190Y882548D01*
X1111402Y892962D01*
X1101242Y902106D01*
X1090015Y909828D01*
X1077874Y915974D01*
X1064971Y920445D01*
X1051610Y923188D01*
X1037996Y924102D01*
X1024382Y923188D01*
X1011021Y920445D01*
X998169Y915974D01*
X985977Y909828D01*
X974750Y902106D01*
X964641Y892962D01*
X955802Y882548D01*
X948486Y871067D01*
X942746Y858672D01*
X938682Y845667D01*
X936447Y832205D01*
X935990Y818591D01*
X937310Y805027D01*
X940511Y791768D01*
X945387Y779018D01*
X951941Y767080D01*
X960018Y756107D01*
X969518Y746302D01*
X980236Y737819D01*
X991971Y730859D01*
X1004519Y725576D01*
X1017676Y721969D01*
G37*
G36*
X3099968Y970127D02*
G01*
X3113836Y970991D01*
X3127400Y973734D01*
X3140506Y978153D01*
X3152952Y984300D01*
X3164433Y991971D01*
X3174847Y1001115D01*
X3183991Y1011529D01*
X3191713Y1023061D01*
X3197809Y1035456D01*
X3202279Y1048613D01*
X3204972Y1062177D01*
X3205886Y1075994D01*
X3204972Y1089812D01*
X3202279Y1103376D01*
X3197809Y1116533D01*
X3191713Y1128928D01*
X3183991Y1140460D01*
X3174847Y1150874D01*
X3164433Y1160018D01*
X3152952Y1167688D01*
X3140506Y1173835D01*
X3127400Y1178255D01*
X3113836Y1180998D01*
X3099968Y1181862D01*
X3086150Y1180998D01*
X3072587Y1178255D01*
X3059480Y1173835D01*
X3047034Y1167688D01*
X3035554Y1160018D01*
X3025140Y1150874D01*
X3015996Y1140460D01*
X3008274Y1128928D01*
X3002178Y1116533D01*
X2997708Y1103376D01*
X2995015Y1089812D01*
X2994101Y1075994D01*
X2995015Y1062177D01*
X2997708Y1048613D01*
X3002178Y1035456D01*
X3008274Y1023061D01*
X3015996Y1011529D01*
X3025140Y1001115D01*
X3035554Y991971D01*
X3047034Y984300D01*
X3059480Y978153D01*
X3072587Y973734D01*
X3086150Y970991D01*
G37*
G36*
X500024Y1224127D02*
G01*
X513842Y1224991D01*
X527405Y1227734D01*
X540512Y1232154D01*
X552958Y1238300D01*
X564438Y1245971D01*
X574852Y1255115D01*
X583996Y1265529D01*
X591718Y1277061D01*
X597814Y1289456D01*
X602284Y1302613D01*
X604977Y1316177D01*
X605891Y1329994D01*
X604977Y1343812D01*
X602284Y1357376D01*
X597814Y1370533D01*
X591718Y1382928D01*
X583996Y1394460D01*
X574852Y1404874D01*
X564438Y1414018D01*
X552958Y1421688D01*
X540512Y1427835D01*
X527405Y1432255D01*
X513842Y1434998D01*
X500024Y1435862D01*
X486156Y1434998D01*
X472592Y1432255D01*
X459485Y1427835D01*
X447040Y1421688D01*
X435559Y1414018D01*
X425145Y1404874D01*
X416001Y1394460D01*
X408279Y1382928D01*
X402183Y1370533D01*
X397713Y1357376D01*
X395020Y1343812D01*
X394106Y1329994D01*
X395020Y1316177D01*
X397713Y1302613D01*
X402183Y1289456D01*
X408279Y1277061D01*
X416001Y1265529D01*
X425145Y1255115D01*
X435559Y1245971D01*
X447040Y1238300D01*
X459485Y1232154D01*
X472592Y1227734D01*
X486156Y1224991D01*
G37*
G36*
X3099968Y1224127D02*
G01*
X3113836Y1224991D01*
X3127400Y1227734D01*
X3140506Y1232154D01*
X3152952Y1238300D01*
X3164433Y1245971D01*
X3174847Y1255115D01*
X3183991Y1265529D01*
X3191713Y1277061D01*
X3197809Y1289456D01*
X3202279Y1302613D01*
X3204972Y1316177D01*
X3205886Y1329994D01*
X3204972Y1343812D01*
X3202279Y1357376D01*
X3197809Y1370533D01*
X3191713Y1382928D01*
X3183991Y1394460D01*
X3174847Y1404874D01*
X3164433Y1414018D01*
X3152952Y1421688D01*
X3140506Y1427835D01*
X3127400Y1432255D01*
X3113836Y1434998D01*
X3099968Y1435862D01*
X3086150Y1434998D01*
X3072587Y1432255D01*
X3059480Y1427835D01*
X3047034Y1421688D01*
X3035554Y1414018D01*
X3025140Y1404874D01*
X3015996Y1394460D01*
X3008274Y1382928D01*
X3002178Y1370533D01*
X2997708Y1357376D01*
X2995015Y1343812D01*
X2994101Y1329994D01*
X2995015Y1316177D01*
X2997708Y1302613D01*
X3002178Y1289456D01*
X3008274Y1277061D01*
X3015996Y1265529D01*
X3025140Y1255115D01*
X3035554Y1245971D01*
X3047034Y1238300D01*
X3059480Y1232154D01*
X3072587Y1227734D01*
X3086150Y1224991D01*
G37*
G36*
X500024Y1478127D02*
G01*
X513842Y1478991D01*
X527405Y1481734D01*
X540512Y1486154D01*
X552958Y1492300D01*
X564438Y1499971D01*
X574852Y1509115D01*
X583996Y1519529D01*
X591718Y1531061D01*
X597814Y1543456D01*
X602284Y1556613D01*
X604977Y1570177D01*
X605891Y1583994D01*
X604977Y1597812D01*
X602284Y1611376D01*
X597814Y1624533D01*
X591718Y1636928D01*
X583996Y1648460D01*
X574852Y1658874D01*
X564438Y1668018D01*
X552958Y1675688D01*
X540512Y1681835D01*
X527405Y1686255D01*
X513842Y1688998D01*
X500024Y1689862D01*
X486156Y1688998D01*
X472592Y1686255D01*
X459485Y1681835D01*
X447040Y1675688D01*
X435559Y1668018D01*
X425145Y1658874D01*
X416001Y1648460D01*
X408279Y1636928D01*
X402183Y1624533D01*
X397713Y1611376D01*
X395020Y1597812D01*
X394106Y1583994D01*
X395020Y1570177D01*
X397713Y1556613D01*
X402183Y1543456D01*
X408279Y1531061D01*
X416001Y1519529D01*
X425145Y1509115D01*
X435559Y1499971D01*
X447040Y1492300D01*
X459485Y1486154D01*
X472592Y1481734D01*
X486156Y1478991D01*
G37*
G36*
X500024Y1732127D02*
G01*
X513842Y1732991D01*
X527405Y1735734D01*
X540512Y1740154D01*
X552958Y1746300D01*
X564438Y1753971D01*
X574852Y1763115D01*
X583996Y1773529D01*
X591718Y1785061D01*
X597814Y1797456D01*
X602284Y1810613D01*
X604977Y1824177D01*
X605891Y1837994D01*
X604977Y1851812D01*
X602284Y1865375D01*
X597814Y1878533D01*
X591718Y1890928D01*
X583996Y1902460D01*
X574852Y1912874D01*
X564438Y1922018D01*
X552958Y1929688D01*
X540512Y1935835D01*
X527405Y1940255D01*
X513842Y1942998D01*
X500024Y1943862D01*
X486156Y1942998D01*
X472592Y1940255D01*
X459485Y1935835D01*
X447040Y1929688D01*
X435559Y1922018D01*
X425145Y1912874D01*
X416001Y1902460D01*
X408279Y1890928D01*
X402183Y1878533D01*
X397713Y1865375D01*
X395020Y1851812D01*
X394106Y1837994D01*
X395020Y1824177D01*
X397713Y1810613D01*
X402183Y1797456D01*
X408279Y1785061D01*
X416001Y1773529D01*
X425145Y1763115D01*
X435559Y1753971D01*
X447040Y1746300D01*
X459485Y1740154D01*
X472592Y1735734D01*
X486156Y1732991D01*
G37*
G36*
X500024Y1986127D02*
G01*
X513842Y1986991D01*
X527405Y1989734D01*
X540512Y1994154D01*
X552958Y2000300D01*
X564438Y2007971D01*
X574852Y2017115D01*
X583996Y2027529D01*
X591718Y2039061D01*
X597814Y2051456D01*
X602284Y2064613D01*
X604977Y2078177D01*
X605891Y2091994D01*
X604977Y2105812D01*
X602284Y2119376D01*
X597814Y2132533D01*
X591718Y2144928D01*
X583996Y2156460D01*
X574852Y2166874D01*
X564438Y2176018D01*
X552958Y2183688D01*
X540512Y2189835D01*
X527405Y2194255D01*
X513842Y2196998D01*
X500024Y2197862D01*
X486156Y2196998D01*
X472592Y2194255D01*
X459485Y2189835D01*
X447040Y2183688D01*
X435559Y2176018D01*
X425145Y2166874D01*
X416001Y2156460D01*
X408279Y2144928D01*
X402183Y2132533D01*
X397713Y2119376D01*
X395020Y2105812D01*
X394106Y2091994D01*
X395020Y2078177D01*
X397713Y2064613D01*
X402183Y2051456D01*
X408279Y2039061D01*
X416001Y2027529D01*
X425145Y2017115D01*
X435559Y2007971D01*
X447040Y2000300D01*
X459485Y1994154D01*
X472592Y1989734D01*
X486156Y1986991D01*
G37*
G36*
X2606446Y4032199D02*
G01*
X2608021Y4032859D01*
X2619756Y4039819D01*
X2630474Y4048302D01*
X2639974Y4058056D01*
X2648051Y4069079D01*
X2653792Y4079544D01*
X2606446Y4079544D01*
G37*
G36*
X2606446Y4168444D02*
G01*
X2653639Y4168444D01*
X2651506Y4173067D01*
X2644190Y4184548D01*
X2635351Y4194962D01*
X2625242Y4204106D01*
X2614015Y4211828D01*
X2606446Y4215638D01*
G37*
G36*
X1526997Y7889087D02*
G01*
X1541170Y7890002D01*
X1555140Y7892745D01*
X1568602Y7897215D01*
X1581404Y7903362D01*
X1593342Y7911134D01*
X1604162Y7920329D01*
X1613712Y7930845D01*
X1621840Y7942478D01*
X1628394Y7955076D01*
X1633321Y7968437D01*
X1636471Y7982305D01*
X1637842Y7996428D01*
X1637385Y8010652D01*
X1635099Y8024672D01*
X1631086Y8038287D01*
X1625295Y8051292D01*
X1617929Y8063433D01*
X1609090Y8074558D01*
X1598879Y8084413D01*
X1587500Y8092897D01*
X1575104Y8099907D01*
X1561947Y8105241D01*
X1548180Y8108848D01*
X1534109Y8110626D01*
X1519885Y8110626D01*
X1505813Y8108848D01*
X1492046Y8105241D01*
X1478889Y8099907D01*
X1466494Y8092897D01*
X1455115Y8084413D01*
X1444904Y8074558D01*
X1436065Y8063433D01*
X1428699Y8051292D01*
X1422958Y8038287D01*
X1418894Y8024672D01*
X1416608Y8010652D01*
X1416151Y7996428D01*
X1417523Y7982305D01*
X1420672Y7968437D01*
X1425600Y7955076D01*
X1432153Y7942478D01*
X1440281Y7930845D01*
X1449832Y7920329D01*
X1460652Y7911134D01*
X1472590Y7903362D01*
X1485392Y7897215D01*
X1498854Y7892745D01*
X1512824Y7890002D01*
G37*
G36*
X775868Y7900670D02*
G01*
X781405Y7903362D01*
X793343Y7911134D01*
X804164Y7920329D01*
X813714Y7930845D01*
X821842Y7942478D01*
X826312Y7951114D01*
X775868Y7951114D01*
G37*
G36*
X678129Y7900670D02*
G01*
X678129Y7951114D01*
X627684Y7951114D01*
X632155Y7942478D01*
X640283Y7930845D01*
X649833Y7920329D01*
X660654Y7911134D01*
X672592Y7903362D01*
G37*
G36*
X2326995Y7916113D02*
G01*
X2341168Y7917027D01*
X2355138Y7919720D01*
X2368600Y7924190D01*
X2381402Y7930388D01*
X2393340Y7938109D01*
X2404160Y7947304D01*
X2413711Y7957870D01*
X2421839Y7969503D01*
X2428392Y7982102D01*
X2433320Y7995412D01*
X2436469Y8009280D01*
X2437841Y8023453D01*
X2437384Y8037626D01*
X2435098Y8051647D01*
X2431084Y8065262D01*
X2425293Y8078266D01*
X2417927Y8090408D01*
X2409088Y8101533D01*
X2398877Y8111439D01*
X2387498Y8119922D01*
X2375103Y8126882D01*
X2361946Y8132216D01*
X2348179Y8135823D01*
X2334107Y8137652D01*
X2319883Y8137652D01*
X2305812Y8135823D01*
X2292045Y8132216D01*
X2278888Y8126882D01*
X2266492Y8119922D01*
X2255113Y8111439D01*
X2244902Y8101533D01*
X2236063Y8090408D01*
X2228697Y8078266D01*
X2222957Y8065262D01*
X2218893Y8051647D01*
X2216607Y8037626D01*
X2216150Y8023453D01*
X2217521Y8009280D01*
X2220671Y7995412D01*
X2225598Y7982102D01*
X2232152Y7969503D01*
X2240280Y7957870D01*
X2249830Y7947304D01*
X2260650Y7938109D01*
X2272588Y7930388D01*
X2285390Y7924190D01*
X2298852Y7919720D01*
X2312822Y7917027D01*
G37*
G36*
X775868Y8048853D02*
G01*
X826414Y8048853D01*
X825296Y8051292D01*
X817930Y8063433D01*
X809091Y8074558D01*
X798880Y8084413D01*
X787501Y8092897D01*
X775868Y8099450D01*
G37*
G36*
X627583Y8048853D02*
G01*
X678129Y8048853D01*
X678129Y8099450D01*
X666496Y8092897D01*
X655116Y8084413D01*
X644906Y8074558D01*
X636066Y8063433D01*
X628700Y8051292D01*
G37*
G36*
X1321866Y8143087D02*
G01*
X1357426Y8143087D01*
X1363726Y8143798D01*
X1369212Y8145678D01*
X1374089Y8148777D01*
X1378204Y8152892D01*
X1381302Y8157768D01*
X1383182Y8163255D01*
X1383893Y8169554D01*
X1383893Y8205114D01*
X1321866Y8205114D01*
G37*
G36*
X1188567Y8143087D02*
G01*
X1224127Y8143087D01*
X1224127Y8205114D01*
X1162100Y8205114D01*
X1162100Y8169554D01*
X1162812Y8163255D01*
X1164691Y8157768D01*
X1167790Y8152892D01*
X1171905Y8148777D01*
X1176782Y8145678D01*
X1182268Y8143798D01*
G37*
G36*
X1526997Y8143087D02*
G01*
X1541170Y8144002D01*
X1555140Y8146745D01*
X1568602Y8151215D01*
X1581404Y8157362D01*
X1593342Y8165134D01*
X1604162Y8174329D01*
X1613712Y8184845D01*
X1621840Y8196478D01*
X1628394Y8209076D01*
X1633321Y8222437D01*
X1636471Y8236305D01*
X1637842Y8250428D01*
X1637385Y8264652D01*
X1635099Y8278672D01*
X1631086Y8292287D01*
X1625295Y8305292D01*
X1617929Y8317433D01*
X1609090Y8328558D01*
X1598879Y8338413D01*
X1587500Y8346897D01*
X1575104Y8353907D01*
X1561947Y8359241D01*
X1548180Y8362848D01*
X1534109Y8364626D01*
X1519885Y8364626D01*
X1505813Y8362848D01*
X1492046Y8359241D01*
X1478889Y8353907D01*
X1466494Y8346897D01*
X1455115Y8338413D01*
X1444904Y8328558D01*
X1436065Y8317433D01*
X1428699Y8305292D01*
X1422958Y8292287D01*
X1418894Y8278672D01*
X1416608Y8264652D01*
X1416151Y8250428D01*
X1417523Y8236305D01*
X1420672Y8222437D01*
X1425600Y8209076D01*
X1432153Y8196478D01*
X1440281Y8184845D01*
X1449832Y8174329D01*
X1460652Y8165134D01*
X1472590Y8157362D01*
X1485392Y8151215D01*
X1498854Y8146745D01*
X1512824Y8144002D01*
G37*
G36*
X2121865Y8170062D02*
G01*
X2157425Y8170062D01*
X2163724Y8170773D01*
X2169210Y8172703D01*
X2174087Y8175802D01*
X2178202Y8179866D01*
X2181301Y8184794D01*
X2183180Y8190230D01*
X2183892Y8196580D01*
X2183892Y8232140D01*
X2121865Y8232140D01*
G37*
G36*
X1988566Y8170062D02*
G01*
X2024125Y8170062D01*
X2024125Y8232140D01*
X1962099Y8232140D01*
X1962099Y8196580D01*
X1962810Y8190230D01*
X1964689Y8184794D01*
X1967788Y8179866D01*
X1971903Y8175802D01*
X1976780Y8172703D01*
X1982266Y8170773D01*
G37*
G36*
X2326995Y8170113D02*
G01*
X2341168Y8171027D01*
X2355138Y8173720D01*
X2368600Y8178190D01*
X2381402Y8184388D01*
X2393340Y8192109D01*
X2404160Y8201304D01*
X2413711Y8211870D01*
X2421839Y8223503D01*
X2428392Y8236102D01*
X2433320Y8249412D01*
X2436469Y8263280D01*
X2437841Y8277453D01*
X2437384Y8291626D01*
X2435098Y8305647D01*
X2431084Y8319262D01*
X2425293Y8332266D01*
X2417927Y8344408D01*
X2409088Y8355533D01*
X2398877Y8365439D01*
X2387498Y8373922D01*
X2375103Y8380882D01*
X2361946Y8386216D01*
X2348179Y8389823D01*
X2334107Y8391652D01*
X2319883Y8391652D01*
X2305812Y8389823D01*
X2292045Y8386216D01*
X2278888Y8380882D01*
X2266492Y8373922D01*
X2255113Y8365439D01*
X2244902Y8355533D01*
X2236063Y8344408D01*
X2228697Y8332266D01*
X2222957Y8319262D01*
X2218893Y8305647D01*
X2216607Y8291626D01*
X2216150Y8277453D01*
X2217521Y8263280D01*
X2220671Y8249412D01*
X2225598Y8236102D01*
X2232152Y8223503D01*
X2240280Y8211870D01*
X2249830Y8201304D01*
X2260650Y8192109D01*
X2272588Y8184388D01*
X2285390Y8178190D01*
X2298852Y8173720D01*
X2312822Y8171027D01*
G37*
G36*
X521868Y8302853D02*
G01*
X583895Y8302853D01*
X583895Y8338413D01*
X583184Y8344712D01*
X581304Y8350199D01*
X578205Y8355075D01*
X574090Y8359190D01*
X569214Y8362289D01*
X563727Y8364169D01*
X557428Y8364880D01*
X521868Y8364880D01*
G37*
G36*
X1162100Y8302853D02*
G01*
X1224127Y8302853D01*
X1224127Y8364880D01*
X1188567Y8364880D01*
X1182268Y8364169D01*
X1176782Y8362289D01*
X1171905Y8359190D01*
X1167790Y8355075D01*
X1164691Y8350199D01*
X1162812Y8344712D01*
X1162100Y8338413D01*
G37*
G36*
X1321866Y8302853D02*
G01*
X1383893Y8302853D01*
X1383893Y8338413D01*
X1383182Y8344712D01*
X1381302Y8350199D01*
X1378204Y8355075D01*
X1374089Y8359190D01*
X1369212Y8362289D01*
X1363726Y8364169D01*
X1357426Y8364880D01*
X1321866Y8364880D01*
G37*
G36*
X362102Y8302853D02*
G01*
X424129Y8302853D01*
X424129Y8364880D01*
X388569Y8364880D01*
X382270Y8364169D01*
X376783Y8362289D01*
X371906Y8359190D01*
X367792Y8355075D01*
X364693Y8350199D01*
X362813Y8344712D01*
X362102Y8338413D01*
G37*
G36*
X1962099Y8329828D02*
G01*
X2024125Y8329828D01*
X2024125Y8391906D01*
X1988566Y8391906D01*
X1982266Y8391194D01*
X1976780Y8389264D01*
X1971903Y8386165D01*
X1967788Y8382101D01*
X1964689Y8377174D01*
X1962810Y8371738D01*
X1962099Y8365388D01*
G37*
G36*
X2121865Y8329828D02*
G01*
X2183892Y8329828D01*
X2183892Y8365388D01*
X2183180Y8371738D01*
X2181301Y8377174D01*
X2178202Y8382101D01*
X2174087Y8386165D01*
X2169210Y8389264D01*
X2163724Y8391194D01*
X2157425Y8391906D01*
X2121865Y8391906D01*
G37*
G36*
X199999Y8672474D02*
G01*
X215392Y8673439D01*
X230530Y8676182D01*
X245211Y8680754D01*
X259232Y8687104D01*
X272440Y8695080D01*
X284530Y8704580D01*
X295402Y8715451D01*
X304901Y8727541D01*
X312877Y8740749D01*
X319227Y8754770D01*
X323799Y8769451D01*
X326542Y8784590D01*
X327507Y8799982D01*
X326542Y8815374D01*
X323799Y8830513D01*
X319227Y8845194D01*
X312877Y8859215D01*
X304901Y8872423D01*
X295402Y8884513D01*
X284530Y8895384D01*
X272440Y8904884D01*
X259232Y8912860D01*
X245211Y8919210D01*
X230530Y8923782D01*
X215392Y8926525D01*
X199999Y8927490D01*
X184607Y8926525D01*
X169468Y8923782D01*
X154787Y8919210D01*
X140766Y8912860D01*
X127558Y8904884D01*
X115468Y8895384D01*
X104597Y8884513D01*
X95097Y8872423D01*
X87122Y8859215D01*
X80772Y8845194D01*
X76200Y8830513D01*
X73456Y8815374D01*
X72491Y8799982D01*
X73456Y8784590D01*
X76200Y8769451D01*
X80772Y8754770D01*
X87122Y8740749D01*
X95097Y8727541D01*
X104597Y8715451D01*
X115468Y8704580D01*
X127558Y8695080D01*
X140766Y8687104D01*
X154787Y8680754D01*
X169468Y8676182D01*
X184607Y8673439D01*
G37*
G36*
X3399993Y8672474D02*
G01*
X3415385Y8673439D01*
X3430524Y8676182D01*
X3445205Y8680754D01*
X3459226Y8687104D01*
X3472434Y8695080D01*
X3484524Y8704580D01*
X3495395Y8715451D01*
X3504895Y8727541D01*
X3512870Y8740749D01*
X3519220Y8754770D01*
X3523792Y8769451D01*
X3526536Y8784590D01*
X3527501Y8799982D01*
X3526536Y8815374D01*
X3523792Y8830513D01*
X3519220Y8845194D01*
X3512870Y8859215D01*
X3504895Y8872423D01*
X3495395Y8884513D01*
X3484524Y8895384D01*
X3472434Y8904884D01*
X3459226Y8912860D01*
X3445205Y8919210D01*
X3430524Y8923782D01*
X3415385Y8926525D01*
X3399993Y8927490D01*
X3384600Y8926525D01*
X3369462Y8923782D01*
X3354781Y8919210D01*
X3340760Y8912860D01*
X3327552Y8904884D01*
X3315462Y8895384D01*
X3304590Y8884513D01*
X3295091Y8872423D01*
X3287115Y8859215D01*
X3280765Y8845194D01*
X3276193Y8830513D01*
X3273450Y8815374D01*
X3272485Y8799982D01*
X3273450Y8784590D01*
X3276193Y8769451D01*
X3280765Y8754770D01*
X3287115Y8740749D01*
X3295091Y8727541D01*
X3304590Y8715451D01*
X3315462Y8704580D01*
X3327552Y8695080D01*
X3340760Y8687104D01*
X3354781Y8680754D01*
X3369462Y8676182D01*
X3384600Y8673439D01*
G37*

%LPD*%
G36*
X933754Y3476294D02*
G01*
X929843Y3477056D01*
X926592Y3479292D01*
X924356Y3482594D01*
X923594Y3486454D01*
X923594Y3574999D01*
X924255Y3578351D01*
X923594Y3581704D01*
X923594Y3650284D01*
X924306Y3653840D01*
X923594Y3657447D01*
X923594Y3828999D01*
X924407Y3832910D01*
X926642Y3836212D01*
X929944Y3838397D01*
X933907Y3839159D01*
X937818Y3838295D01*
X941069Y3836009D01*
X943254Y3832656D01*
X945387Y3827018D01*
X951941Y3815079D01*
X960018Y3804107D01*
X969518Y3794302D01*
X980236Y3785819D01*
X991971Y3778859D01*
X1004519Y3773576D01*
X1017676Y3769969D01*
X1031189Y3768140D01*
X1044803Y3768140D01*
X1058316Y3769969D01*
X1071473Y3773576D01*
X1084021Y3778859D01*
X1095756Y3785819D01*
X1106474Y3794302D01*
X1115974Y3804107D01*
X1124051Y3815079D01*
X1130604Y3827018D01*
X1135481Y3839768D01*
X1138682Y3853027D01*
X1140002Y3866591D01*
X1139596Y3880205D01*
X1137310Y3893667D01*
X1133246Y3906672D01*
X1127506Y3919067D01*
X1120190Y3930548D01*
X1111402Y3940962D01*
X1101242Y3950106D01*
X1090015Y3957828D01*
X1077874Y3963974D01*
X1064971Y3968445D01*
X1051610Y3971188D01*
X1037996Y3972051D01*
X1024382Y3971188D01*
X1011021Y3968445D01*
X998169Y3963974D01*
X985977Y3957828D01*
X974750Y3950106D01*
X964641Y3940962D01*
X955802Y3930548D01*
X948486Y3919067D01*
X942949Y3907180D01*
X940663Y3904030D01*
X937361Y3901948D01*
X933500Y3901287D01*
X929690Y3902151D01*
X926490Y3904386D01*
X924356Y3907637D01*
X923594Y3911447D01*
X923594Y4082999D01*
X924407Y4086910D01*
X926642Y4090212D01*
X929944Y4092397D01*
X933907Y4093159D01*
X937818Y4092295D01*
X941069Y4090009D01*
X943254Y4086656D01*
X945387Y4081018D01*
X951941Y4069079D01*
X960018Y4058107D01*
X969518Y4048302D01*
X980236Y4039819D01*
X991971Y4032859D01*
X1004519Y4027576D01*
X1017676Y4023969D01*
X1031189Y4022140D01*
X1044803Y4022140D01*
X1058316Y4023969D01*
X1071473Y4027576D01*
X1084021Y4032859D01*
X1095756Y4039819D01*
X1106474Y4048302D01*
X1115974Y4058107D01*
X1124051Y4069079D01*
X1130604Y4081018D01*
X1135481Y4093768D01*
X1138682Y4107027D01*
X1140002Y4120591D01*
X1139596Y4134205D01*
X1137310Y4147667D01*
X1133246Y4160672D01*
X1127506Y4173067D01*
X1120190Y4184548D01*
X1111402Y4194962D01*
X1101242Y4204106D01*
X1090015Y4211828D01*
X1077874Y4217974D01*
X1064971Y4222445D01*
X1051610Y4225188D01*
X1037996Y4226052D01*
X1024382Y4225188D01*
X1011021Y4222445D01*
X998169Y4217974D01*
X985977Y4211828D01*
X974750Y4204106D01*
X964641Y4194962D01*
X955802Y4184548D01*
X948486Y4173067D01*
X942949Y4161180D01*
X940663Y4158030D01*
X937361Y4155948D01*
X933500Y4155287D01*
X929690Y4156151D01*
X926490Y4158386D01*
X924356Y4161637D01*
X923594Y4165447D01*
X923594Y4336999D01*
X924407Y4340910D01*
X926642Y4344212D01*
X929944Y4346397D01*
X933907Y4347159D01*
X937818Y4346295D01*
X941069Y4344009D01*
X943254Y4340656D01*
X945387Y4335018D01*
X951941Y4323080D01*
X960018Y4312107D01*
X969518Y4302302D01*
X980236Y4293819D01*
X991971Y4286859D01*
X1004519Y4281576D01*
X1017676Y4277969D01*
X1031189Y4276140D01*
X1044803Y4276140D01*
X1058316Y4277969D01*
X1071473Y4281576D01*
X1084021Y4286859D01*
X1095756Y4293819D01*
X1106474Y4302302D01*
X1115974Y4312107D01*
X1124051Y4323080D01*
X1130604Y4335018D01*
X1135481Y4347768D01*
X1138682Y4361027D01*
X1140002Y4374591D01*
X1139596Y4388205D01*
X1137310Y4401667D01*
X1133246Y4414672D01*
X1127506Y4427067D01*
X1120190Y4438548D01*
X1111402Y4448962D01*
X1101242Y4458106D01*
X1090015Y4465828D01*
X1077874Y4471974D01*
X1064971Y4476445D01*
X1051610Y4479188D01*
X1037996Y4480052D01*
X1024382Y4479188D01*
X1011021Y4476445D01*
X998169Y4471974D01*
X985977Y4465828D01*
X974750Y4458106D01*
X964641Y4448962D01*
X955802Y4438548D01*
X948486Y4427067D01*
X942949Y4415180D01*
X940663Y4412030D01*
X937361Y4409948D01*
X933500Y4409287D01*
X929690Y4410151D01*
X926490Y4412386D01*
X924356Y4415637D01*
X923594Y4419447D01*
X923594Y6398971D01*
X924255Y6402527D01*
X926084Y6405626D01*
X928878Y6407861D01*
X939952Y6413957D01*
X950925Y6422034D01*
X960729Y6431534D01*
X969162Y6442202D01*
X976121Y6453936D01*
X981456Y6466484D01*
X985012Y6479641D01*
X986840Y6493154D01*
X986840Y6506819D01*
X985012Y6520332D01*
X981456Y6533489D01*
X976121Y6546037D01*
X969162Y6557772D01*
X960729Y6568440D01*
X950925Y6577939D01*
X939952Y6586016D01*
X927963Y6592570D01*
X915263Y6597497D01*
X901953Y6600647D01*
X897280Y6601104D01*
X893673Y6602222D01*
X890676Y6604558D01*
X888746Y6607809D01*
X888187Y6611569D01*
X889000Y6615277D01*
X891133Y6618427D01*
X1159002Y6886295D01*
X1164132Y6892544D01*
X1167688Y6899198D01*
X1169873Y6906412D01*
X1170686Y6914438D01*
X1170686Y7667752D01*
X1171498Y7671714D01*
X1173784Y7675016D01*
X1177188Y7677200D01*
X1181150Y7677912D01*
X1185113Y7676946D01*
X1188364Y7674559D01*
X1195832Y7666329D01*
X1206652Y7657134D01*
X1218590Y7649362D01*
X1228648Y7644536D01*
X1231696Y7642301D01*
X1233678Y7639100D01*
X1234389Y7635392D01*
X1234389Y3721811D01*
X1233627Y3717950D01*
X1231392Y3714648D01*
X1091285Y3574542D01*
X1087983Y3572306D01*
X1082446Y3571544D01*
X1081684Y3566007D01*
X1079449Y3562705D01*
X1047343Y3530600D01*
X1044041Y3528364D01*
X1040180Y3527602D01*
X1005738Y3527602D01*
X1000506Y3527958D01*
X996899Y3530092D01*
X994410Y3533495D01*
X993546Y3537610D01*
X993546Y3571544D01*
X946200Y3571544D01*
X951941Y3561079D01*
X960018Y3550107D01*
X969518Y3540302D01*
X978865Y3532936D01*
X981659Y3529431D01*
X982726Y3525062D01*
X981760Y3520643D01*
X979017Y3517087D01*
X977595Y3515969D01*
X940917Y3479292D01*
X937666Y3477056D01*
G37*

%LPC*%
G36*
X1082446Y3660444D02*
G01*
X1129639Y3660444D01*
X1127506Y3665067D01*
X1120190Y3676548D01*
X1111402Y3686962D01*
X1101242Y3696106D01*
X1090015Y3703828D01*
X1082446Y3707637D01*
G37*
G36*
X946353Y3660444D02*
G01*
X993546Y3660444D01*
X993546Y3707637D01*
X985977Y3703828D01*
X974750Y3696106D01*
X964641Y3686962D01*
X955802Y3676548D01*
X948486Y3665067D01*
G37*

%LPD*%
G36*
X610616Y3131261D02*
G01*
X606653Y3132175D01*
X603402Y3134614D01*
X601370Y3138119D01*
X597814Y3148533D01*
X591718Y3160928D01*
X583996Y3172460D01*
X574852Y3182874D01*
X564438Y3192018D01*
X552958Y3199688D01*
X540512Y3205835D01*
X527405Y3210255D01*
X513842Y3212998D01*
X500024Y3213862D01*
X486156Y3212998D01*
X472592Y3210255D01*
X463448Y3207156D01*
X459740Y3206648D01*
X456082Y3207512D01*
X452983Y3209594D01*
X361137Y3301492D01*
X358902Y3304794D01*
X358140Y3308654D01*
X358140Y7685481D01*
X359105Y7689799D01*
X361899Y7693355D01*
X365861Y7695336D01*
X370332Y7695438D01*
X374396Y7693558D01*
X377291Y7690154D01*
X378155Y7688478D01*
X386283Y7676845D01*
X395833Y7666329D01*
X406654Y7657134D01*
X418592Y7649362D01*
X431393Y7643215D01*
X444855Y7638745D01*
X458825Y7636002D01*
X472998Y7635087D01*
X487172Y7636002D01*
X501142Y7638745D01*
X514604Y7643215D01*
X527405Y7649362D01*
X539343Y7657134D01*
X544626Y7661656D01*
X547979Y7663535D01*
X551789Y7664043D01*
X555498Y7663129D01*
X558596Y7660894D01*
X560679Y7657693D01*
X561390Y7653934D01*
X561390Y7285481D01*
X562203Y7277455D01*
X563524Y7272985D01*
X563930Y7269276D01*
X562965Y7265619D01*
X560730Y7262571D01*
X557530Y7260590D01*
X553821Y7259878D01*
X546354Y7259878D01*
X546354Y7200341D01*
X605891Y7200341D01*
X606806Y7204151D01*
X609092Y7207300D01*
X612343Y7209383D01*
X616204Y7210094D01*
X620014Y7209281D01*
X623265Y7207148D01*
X658926Y7171436D01*
X661162Y7168134D01*
X661924Y7164222D01*
X661924Y6817207D01*
X661162Y6813296D01*
X658926Y6809994D01*
X655675Y6807809D01*
X651764Y6807047D01*
X647852Y6807809D01*
X644601Y6809994D01*
X601624Y6852970D01*
X599490Y6856069D01*
X598627Y6859727D01*
X599186Y6863435D01*
X602284Y6872579D01*
X604977Y6886143D01*
X605891Y6899960D01*
X604977Y6913829D01*
X602284Y6927392D01*
X597814Y6940499D01*
X591718Y6952945D01*
X583996Y6964425D01*
X574852Y6974840D01*
X564438Y6983984D01*
X552958Y6991705D01*
X540512Y6997801D01*
X527405Y7002272D01*
X513842Y7004964D01*
X500024Y7005878D01*
X486156Y7004964D01*
X472592Y7002272D01*
X459485Y6997801D01*
X447040Y6991705D01*
X435559Y6983984D01*
X425145Y6974840D01*
X416001Y6964425D01*
X408279Y6952945D01*
X402183Y6940499D01*
X397713Y6927392D01*
X395020Y6913829D01*
X394106Y6899960D01*
X395020Y6886143D01*
X397713Y6872579D01*
X402183Y6859473D01*
X408279Y6847027D01*
X416001Y6835546D01*
X425145Y6825132D01*
X435559Y6815988D01*
X447040Y6808266D01*
X459485Y6802170D01*
X472592Y6797700D01*
X486156Y6795008D01*
X500024Y6794093D01*
X513842Y6795008D01*
X527405Y6797700D01*
X536549Y6800799D01*
X540258Y6801358D01*
X543915Y6800494D01*
X547014Y6798360D01*
X618134Y6727240D01*
X620369Y6723938D01*
X621131Y6720027D01*
X621131Y6679387D01*
X620318Y6675424D01*
X618032Y6672072D01*
X614578Y6669887D01*
X610616Y6669227D01*
X606653Y6670192D01*
X603402Y6672630D01*
X601370Y6676136D01*
X597814Y6686499D01*
X591718Y6698945D01*
X583996Y6710425D01*
X574852Y6720840D01*
X564438Y6729984D01*
X552958Y6737705D01*
X540512Y6743801D01*
X527405Y6748272D01*
X513842Y6750964D01*
X500024Y6751878D01*
X486156Y6750964D01*
X472592Y6748272D01*
X459485Y6743801D01*
X447040Y6737705D01*
X435559Y6729984D01*
X425145Y6720840D01*
X416001Y6710425D01*
X408279Y6698945D01*
X402183Y6686499D01*
X397713Y6673392D01*
X395020Y6659829D01*
X394106Y6645960D01*
X395020Y6632143D01*
X397713Y6618579D01*
X402183Y6605473D01*
X408279Y6593027D01*
X416001Y6581546D01*
X425145Y6571132D01*
X435559Y6561988D01*
X447040Y6554266D01*
X459485Y6548170D01*
X472592Y6543700D01*
X486156Y6541007D01*
X500024Y6540093D01*
X513842Y6541007D01*
X527405Y6543700D01*
X540512Y6548170D01*
X552958Y6554266D01*
X564438Y6561988D01*
X574852Y6571132D01*
X583996Y6581546D01*
X591718Y6593027D01*
X597814Y6605473D01*
X601370Y6615836D01*
X603402Y6619341D01*
X606653Y6621780D01*
X610616Y6622745D01*
X614578Y6622084D01*
X618032Y6619900D01*
X620318Y6616547D01*
X621131Y6612585D01*
X621131Y6129274D01*
X620318Y6125311D01*
X618083Y6122009D01*
X614680Y6119825D01*
X610717Y6119114D01*
X606806Y6119977D01*
X603554Y6122314D01*
X601370Y6125870D01*
X594817Y6138468D01*
X586689Y6150102D01*
X577138Y6160668D01*
X566318Y6169863D01*
X554431Y6177584D01*
X541629Y6183782D01*
X528116Y6188252D01*
X514197Y6190945D01*
X500024Y6191859D01*
X485800Y6190945D01*
X471881Y6188252D01*
X458368Y6183782D01*
X445566Y6177584D01*
X433679Y6169863D01*
X422859Y6160668D01*
X413308Y6150102D01*
X405180Y6138468D01*
X398627Y6125870D01*
X393700Y6112560D01*
X390550Y6098692D01*
X389178Y6084519D01*
X389636Y6070346D01*
X391871Y6056325D01*
X395935Y6042710D01*
X401675Y6029706D01*
X409041Y6017564D01*
X417931Y6006439D01*
X428142Y5996533D01*
X439521Y5988050D01*
X451866Y5981090D01*
X465074Y5975756D01*
X478790Y5972149D01*
X492912Y5970320D01*
X507085Y5970320D01*
X521208Y5972149D01*
X534924Y5975756D01*
X548132Y5981090D01*
X560476Y5988050D01*
X571855Y5996533D01*
X582066Y6006439D01*
X590956Y6017564D01*
X598322Y6029706D01*
X601675Y6037326D01*
X603961Y6040526D01*
X607263Y6042660D01*
X611124Y6043371D01*
X614934Y6042558D01*
X618185Y6040323D01*
X620369Y6037072D01*
X621131Y6033211D01*
X621131Y5875274D01*
X620318Y5871311D01*
X618083Y5868009D01*
X614680Y5865825D01*
X610717Y5865114D01*
X606806Y5865977D01*
X603554Y5868314D01*
X601370Y5871870D01*
X594817Y5884468D01*
X586689Y5896102D01*
X577138Y5906668D01*
X566318Y5915863D01*
X554431Y5923584D01*
X541629Y5929782D01*
X528116Y5934252D01*
X514197Y5936945D01*
X500024Y5937859D01*
X485800Y5936945D01*
X471881Y5934252D01*
X458368Y5929782D01*
X445566Y5923584D01*
X433679Y5915863D01*
X422859Y5906668D01*
X413308Y5896102D01*
X405180Y5884468D01*
X398627Y5871870D01*
X393700Y5858560D01*
X390550Y5844692D01*
X389178Y5830519D01*
X389636Y5816346D01*
X391871Y5802325D01*
X395935Y5788710D01*
X401675Y5775706D01*
X409041Y5763564D01*
X417931Y5752439D01*
X428142Y5742533D01*
X439521Y5734050D01*
X451866Y5727090D01*
X465074Y5721756D01*
X478790Y5718149D01*
X492912Y5716320D01*
X507085Y5716320D01*
X521208Y5718149D01*
X534924Y5721756D01*
X548132Y5727090D01*
X560476Y5734050D01*
X571855Y5742533D01*
X582066Y5752439D01*
X590956Y5763564D01*
X598322Y5775706D01*
X601675Y5783326D01*
X603961Y5786526D01*
X607263Y5788660D01*
X611124Y5789371D01*
X614934Y5788558D01*
X618185Y5786323D01*
X620369Y5783072D01*
X621131Y5779211D01*
X621131Y5621274D01*
X620318Y5617311D01*
X621131Y5611672D01*
X621131Y5534304D01*
X619912Y5529732D01*
X621131Y5525211D01*
X621131Y5428691D01*
X620369Y5424830D01*
X618134Y5421528D01*
X614883Y5419293D01*
X610971Y5418531D01*
X607060Y5419293D01*
X603808Y5421528D01*
X601116Y5424170D01*
X596188Y5427268D01*
X590753Y5429199D01*
X584403Y5429910D01*
X415594Y5429910D01*
X409244Y5429199D01*
X403809Y5427268D01*
X398881Y5424170D01*
X394817Y5420106D01*
X391718Y5415178D01*
X389788Y5409742D01*
X389077Y5403392D01*
X389077Y5234584D01*
X389788Y5228234D01*
X391718Y5222798D01*
X394817Y5217871D01*
X398881Y5213807D01*
X403809Y5210708D01*
X409244Y5208778D01*
X415594Y5208066D01*
X584403Y5208066D01*
X590753Y5208778D01*
X596188Y5210708D01*
X601116Y5213807D01*
X603808Y5216448D01*
X607060Y5218684D01*
X610971Y5219446D01*
X614883Y5218684D01*
X618134Y5216448D01*
X620369Y5213146D01*
X621131Y5209286D01*
X621131Y4411370D01*
X620318Y4407408D01*
X618032Y4404055D01*
X614578Y4401921D01*
X610616Y4401261D01*
X606653Y4402175D01*
X603402Y4404614D01*
X601370Y4408119D01*
X597814Y4418533D01*
X591718Y4430928D01*
X583996Y4442460D01*
X574852Y4452874D01*
X564438Y4462018D01*
X552958Y4469688D01*
X540512Y4475835D01*
X527405Y4480255D01*
X513842Y4482998D01*
X500024Y4483862D01*
X486156Y4482998D01*
X472592Y4480255D01*
X459485Y4475835D01*
X447040Y4469688D01*
X435559Y4462018D01*
X425145Y4452874D01*
X416001Y4442460D01*
X408279Y4430928D01*
X402183Y4418533D01*
X397713Y4405376D01*
X395020Y4391812D01*
X394106Y4377994D01*
X395020Y4364177D01*
X397713Y4350613D01*
X402183Y4337456D01*
X408279Y4325061D01*
X416001Y4313529D01*
X425145Y4303115D01*
X435559Y4293971D01*
X447040Y4286300D01*
X459485Y4280154D01*
X472592Y4275734D01*
X486156Y4272991D01*
X500024Y4272127D01*
X513842Y4272991D01*
X527405Y4275734D01*
X540512Y4280154D01*
X552958Y4286300D01*
X564438Y4293971D01*
X574852Y4303115D01*
X583996Y4313529D01*
X591718Y4325061D01*
X597814Y4337456D01*
X601370Y4347870D01*
X603402Y4351375D01*
X606653Y4353814D01*
X610616Y4354728D01*
X614578Y4354068D01*
X618032Y4351934D01*
X620318Y4348581D01*
X621131Y4344619D01*
X621131Y4157370D01*
X620318Y4153408D01*
X618032Y4150055D01*
X614578Y4147921D01*
X610616Y4147261D01*
X606653Y4148175D01*
X603402Y4150614D01*
X601370Y4154119D01*
X597814Y4164533D01*
X591718Y4176928D01*
X583996Y4188460D01*
X574852Y4198874D01*
X564438Y4208018D01*
X552958Y4215688D01*
X540512Y4221835D01*
X527405Y4226255D01*
X513842Y4228998D01*
X500024Y4229862D01*
X486156Y4228998D01*
X472592Y4226255D01*
X459485Y4221835D01*
X447040Y4215688D01*
X435559Y4208018D01*
X425145Y4198874D01*
X416001Y4188460D01*
X408279Y4176928D01*
X402183Y4164533D01*
X397713Y4151376D01*
X395020Y4137812D01*
X394106Y4123994D01*
X395020Y4110177D01*
X397713Y4096613D01*
X402183Y4083456D01*
X408279Y4071061D01*
X416001Y4059529D01*
X425145Y4049115D01*
X435559Y4039971D01*
X447040Y4032300D01*
X459485Y4026154D01*
X472592Y4021734D01*
X486156Y4018991D01*
X500024Y4018127D01*
X513842Y4018991D01*
X527405Y4021734D01*
X540512Y4026154D01*
X552958Y4032300D01*
X564438Y4039971D01*
X574852Y4049115D01*
X583996Y4059529D01*
X591718Y4071061D01*
X597814Y4083456D01*
X601370Y4093870D01*
X603402Y4097375D01*
X606653Y4099814D01*
X610616Y4100728D01*
X614578Y4100068D01*
X618032Y4097934D01*
X620318Y4094581D01*
X621131Y4090619D01*
X621131Y3903370D01*
X620318Y3899408D01*
X618032Y3896055D01*
X614578Y3893921D01*
X610616Y3893261D01*
X606653Y3894175D01*
X603402Y3896614D01*
X601370Y3900119D01*
X597814Y3910533D01*
X591718Y3922928D01*
X583996Y3934460D01*
X574852Y3944874D01*
X564438Y3954018D01*
X552958Y3961688D01*
X540512Y3967835D01*
X527405Y3972255D01*
X513842Y3974998D01*
X500024Y3975862D01*
X486156Y3974998D01*
X472592Y3972255D01*
X459485Y3967835D01*
X447040Y3961688D01*
X435559Y3954018D01*
X425145Y3944874D01*
X416001Y3934460D01*
X408279Y3922928D01*
X402183Y3910533D01*
X397713Y3897376D01*
X395020Y3883812D01*
X394106Y3869994D01*
X395020Y3856177D01*
X397713Y3842613D01*
X402183Y3829456D01*
X408279Y3817061D01*
X416001Y3805529D01*
X425145Y3795115D01*
X435559Y3785971D01*
X447040Y3778300D01*
X459485Y3772154D01*
X472592Y3767734D01*
X486156Y3764991D01*
X500024Y3764127D01*
X513842Y3764991D01*
X527405Y3767734D01*
X540512Y3772154D01*
X552958Y3778300D01*
X564438Y3785971D01*
X574852Y3795115D01*
X583996Y3805529D01*
X591718Y3817061D01*
X597814Y3829456D01*
X601370Y3839870D01*
X603402Y3843375D01*
X606653Y3845814D01*
X610616Y3846728D01*
X614578Y3846068D01*
X618032Y3843934D01*
X620318Y3840581D01*
X621131Y3836619D01*
X621131Y3395370D01*
X620318Y3391408D01*
X618032Y3388055D01*
X614578Y3385921D01*
X610616Y3385261D01*
X606653Y3386175D01*
X603402Y3388614D01*
X601370Y3392119D01*
X597814Y3402533D01*
X591718Y3414928D01*
X583996Y3426460D01*
X574852Y3436874D01*
X564438Y3446018D01*
X552958Y3453688D01*
X540512Y3459835D01*
X527405Y3464255D01*
X513842Y3466998D01*
X500024Y3467862D01*
X486156Y3466998D01*
X472592Y3464255D01*
X459485Y3459835D01*
X447040Y3453688D01*
X435559Y3446018D01*
X425145Y3436874D01*
X416001Y3426460D01*
X408279Y3414928D01*
X402183Y3402533D01*
X397713Y3389376D01*
X395020Y3375812D01*
X394106Y3361994D01*
X395020Y3348177D01*
X397713Y3334613D01*
X402183Y3321456D01*
X408279Y3309061D01*
X416001Y3297529D01*
X425145Y3287115D01*
X435559Y3277971D01*
X447040Y3270300D01*
X459485Y3264153D01*
X472592Y3259734D01*
X486156Y3256991D01*
X500024Y3256127D01*
X513842Y3256991D01*
X527405Y3259734D01*
X540512Y3264153D01*
X552958Y3270300D01*
X564438Y3277971D01*
X574852Y3287115D01*
X583996Y3297529D01*
X591718Y3309061D01*
X597814Y3321456D01*
X601370Y3331870D01*
X603402Y3335375D01*
X606653Y3337814D01*
X610616Y3338728D01*
X614578Y3338068D01*
X618032Y3335934D01*
X620318Y3332581D01*
X621131Y3328619D01*
X621131Y3141370D01*
X620318Y3137408D01*
X618032Y3134055D01*
X614578Y3131921D01*
G37*

%LPC*%
G36*
X546354Y3521049D02*
G01*
X552958Y3524300D01*
X564438Y3531971D01*
X574852Y3541115D01*
X583996Y3551529D01*
X591718Y3563061D01*
X594969Y3569665D01*
X546354Y3569665D01*
G37*
G36*
X453643Y3521049D02*
G01*
X453643Y3569665D01*
X405028Y3569665D01*
X408279Y3563061D01*
X416001Y3551529D01*
X425145Y3541115D01*
X435559Y3531971D01*
X447040Y3524300D01*
G37*
G36*
X405028Y3662324D02*
G01*
X453643Y3662324D01*
X453643Y3710940D01*
X447040Y3707688D01*
X435559Y3700018D01*
X425145Y3690874D01*
X416001Y3680460D01*
X408279Y3668928D01*
G37*
G36*
X546354Y3662324D02*
G01*
X594969Y3662324D01*
X591718Y3668928D01*
X583996Y3680460D01*
X574852Y3690874D01*
X564438Y3700018D01*
X552958Y3707688D01*
X546354Y3710940D01*
G37*
G36*
X451154Y5473496D02*
G01*
X451154Y5524144D01*
X400608Y5524144D01*
X401675Y5521706D01*
X409041Y5509564D01*
X417931Y5498439D01*
X428142Y5488533D01*
X439521Y5480050D01*
G37*
G36*
X548843Y5473496D02*
G01*
X560476Y5480050D01*
X571855Y5488533D01*
X582066Y5498439D01*
X590956Y5509564D01*
X598322Y5521706D01*
X599389Y5524144D01*
X548843Y5524144D01*
G37*
G36*
X548843Y5621832D02*
G01*
X599338Y5621832D01*
X594817Y5630468D01*
X586689Y5642102D01*
X577138Y5652668D01*
X566318Y5661863D01*
X554431Y5669584D01*
X548843Y5672277D01*
G37*
G36*
X400659Y5621832D02*
G01*
X451154Y5621832D01*
X451154Y5672277D01*
X445566Y5669584D01*
X433679Y5661863D01*
X422859Y5652668D01*
X413308Y5642102D01*
X405180Y5630468D01*
G37*
G36*
X420573Y7048093D02*
G01*
X453643Y7048093D01*
X453643Y7107631D01*
X394106Y7107631D01*
X394106Y7074560D01*
X394817Y7068210D01*
X396697Y7062774D01*
X399796Y7057898D01*
X403910Y7053783D01*
X408787Y7050684D01*
X414223Y7048804D01*
G37*
G36*
X546354Y7048093D02*
G01*
X579424Y7048093D01*
X585774Y7048804D01*
X591210Y7050684D01*
X596087Y7053783D01*
X600202Y7057898D01*
X603300Y7062774D01*
X605180Y7068210D01*
X605891Y7074560D01*
X605891Y7107631D01*
X546354Y7107631D01*
G37*
G36*
X394106Y7200341D02*
G01*
X453643Y7200341D01*
X453643Y7259878D01*
X420573Y7259878D01*
X414223Y7259167D01*
X408787Y7257288D01*
X403910Y7254189D01*
X399796Y7250074D01*
X396697Y7245197D01*
X394817Y7239762D01*
X394106Y7233412D01*
G37*

%LPD*%
G36*
X2984550Y2348585D02*
G01*
X2980791Y2349398D01*
X2977591Y2351532D01*
X2968345Y2360777D01*
X2966161Y2364079D01*
X2965399Y2367940D01*
X2965399Y3417468D01*
X2966161Y3421379D01*
X2968345Y3424682D01*
X2971647Y3426866D01*
X2975559Y3427628D01*
X2979420Y3426866D01*
X2982722Y3424682D01*
X2998368Y3408984D01*
X3000502Y3405936D01*
X3001365Y3402279D01*
X3000806Y3398570D01*
X2997708Y3389376D01*
X2995015Y3375812D01*
X2994101Y3361994D01*
X2995015Y3348177D01*
X2997708Y3334613D01*
X3002178Y3321456D01*
X3008274Y3309061D01*
X3015996Y3297529D01*
X3025140Y3287115D01*
X3035554Y3277971D01*
X3047034Y3270300D01*
X3059480Y3264153D01*
X3072587Y3259734D01*
X3086150Y3256991D01*
X3099968Y3256127D01*
X3113836Y3256991D01*
X3127400Y3259734D01*
X3140506Y3264153D01*
X3152952Y3270300D01*
X3164433Y3277971D01*
X3174847Y3287115D01*
X3183991Y3297529D01*
X3191713Y3309061D01*
X3197809Y3321456D01*
X3202279Y3334613D01*
X3204972Y3348177D01*
X3205886Y3361994D01*
X3204972Y3375812D01*
X3202279Y3389376D01*
X3197809Y3402533D01*
X3191713Y3414928D01*
X3183991Y3426460D01*
X3174847Y3436874D01*
X3164433Y3446018D01*
X3152952Y3453688D01*
X3140506Y3459835D01*
X3127400Y3464255D01*
X3113836Y3466998D01*
X3099968Y3467862D01*
X3086150Y3466998D01*
X3072587Y3464255D01*
X3063443Y3461156D01*
X3059734Y3460648D01*
X3056077Y3461512D01*
X3052978Y3463594D01*
X3021025Y3495598D01*
X3018790Y3498900D01*
X3018028Y3502761D01*
X3018028Y3524910D01*
X3018739Y3528720D01*
X3020872Y3531920D01*
X3023971Y3534156D01*
X3027730Y3535070D01*
X3031540Y3534511D01*
X3047034Y3524300D01*
X3059480Y3518154D01*
X3072587Y3513734D01*
X3086150Y3510991D01*
X3099968Y3510127D01*
X3113836Y3510991D01*
X3127400Y3513734D01*
X3140506Y3518154D01*
X3152952Y3524300D01*
X3164433Y3531971D01*
X3174847Y3541115D01*
X3183991Y3551529D01*
X3191713Y3563061D01*
X3197809Y3575456D01*
X3202279Y3588613D01*
X3204972Y3602177D01*
X3205886Y3615994D01*
X3204972Y3629812D01*
X3202279Y3643376D01*
X3197809Y3656533D01*
X3191713Y3668928D01*
X3183991Y3680460D01*
X3174847Y3690874D01*
X3164433Y3700018D01*
X3152952Y3707688D01*
X3140506Y3713835D01*
X3127400Y3718255D01*
X3113836Y3720998D01*
X3099968Y3721862D01*
X3086150Y3720998D01*
X3072587Y3718255D01*
X3059480Y3713835D01*
X3047034Y3707688D01*
X3031540Y3697478D01*
X3027730Y3696919D01*
X3023971Y3697833D01*
X3020872Y3700068D01*
X3018739Y3703269D01*
X3018028Y3707079D01*
X3018028Y3778910D01*
X3018739Y3782720D01*
X3020872Y3785920D01*
X3023971Y3788156D01*
X3027730Y3789070D01*
X3031540Y3788511D01*
X3047034Y3778300D01*
X3059480Y3772154D01*
X3072587Y3767734D01*
X3086150Y3764991D01*
X3099968Y3764127D01*
X3113836Y3764991D01*
X3127400Y3767734D01*
X3140506Y3772154D01*
X3152952Y3778300D01*
X3164433Y3785971D01*
X3174847Y3795115D01*
X3183991Y3805529D01*
X3191713Y3817061D01*
X3197809Y3829456D01*
X3202279Y3842613D01*
X3204972Y3856177D01*
X3205886Y3869994D01*
X3204972Y3883812D01*
X3202279Y3897376D01*
X3197809Y3910533D01*
X3191713Y3922928D01*
X3183991Y3934460D01*
X3174847Y3944874D01*
X3164433Y3954018D01*
X3152952Y3961688D01*
X3140506Y3967835D01*
X3127400Y3972255D01*
X3113836Y3974998D01*
X3099968Y3975862D01*
X3086150Y3974998D01*
X3072587Y3972255D01*
X3059480Y3967835D01*
X3047034Y3961688D01*
X3031540Y3951478D01*
X3027730Y3950919D01*
X3023971Y3951833D01*
X3020872Y3954068D01*
X3018739Y3957269D01*
X3018028Y3961079D01*
X3018028Y4032910D01*
X3018739Y4036720D01*
X3020872Y4039920D01*
X3023971Y4042156D01*
X3027730Y4043070D01*
X3031540Y4042511D01*
X3047034Y4032300D01*
X3053638Y4029049D01*
X3053638Y4077665D01*
X3028188Y4077665D01*
X3024276Y4078427D01*
X3021025Y4080611D01*
X3018790Y4083913D01*
X3018028Y4087825D01*
X3018028Y4160164D01*
X3018790Y4164076D01*
X3021025Y4167378D01*
X3024276Y4169562D01*
X3028188Y4170324D01*
X3053638Y4170324D01*
X3053638Y4218940D01*
X3047034Y4215688D01*
X3031540Y4205478D01*
X3027730Y4204919D01*
X3023971Y4205833D01*
X3020872Y4208068D01*
X3018739Y4211269D01*
X3018028Y4215079D01*
X3018028Y4286910D01*
X3018739Y4290720D01*
X3020872Y4293920D01*
X3023971Y4296156D01*
X3027730Y4297070D01*
X3031540Y4296511D01*
X3047034Y4286300D01*
X3059480Y4280154D01*
X3072587Y4275734D01*
X3086150Y4272991D01*
X3099968Y4272127D01*
X3113836Y4272991D01*
X3127400Y4275734D01*
X3140506Y4280154D01*
X3152952Y4286300D01*
X3164433Y4293971D01*
X3174847Y4303115D01*
X3183991Y4313529D01*
X3191713Y4325061D01*
X3197809Y4337456D01*
X3202279Y4350613D01*
X3204972Y4364177D01*
X3205886Y4377994D01*
X3204972Y4391812D01*
X3202279Y4405376D01*
X3197809Y4418533D01*
X3191713Y4430928D01*
X3183991Y4442460D01*
X3174847Y4452874D01*
X3164433Y4462018D01*
X3152952Y4469688D01*
X3140506Y4475835D01*
X3127400Y4480255D01*
X3113836Y4482998D01*
X3099968Y4483862D01*
X3086150Y4482998D01*
X3072587Y4480255D01*
X3059480Y4475835D01*
X3047034Y4469688D01*
X3031540Y4459478D01*
X3027730Y4458919D01*
X3023971Y4459833D01*
X3020872Y4462068D01*
X3018739Y4465269D01*
X3018028Y4469079D01*
X3018028Y5442559D01*
X3018942Y5446776D01*
X3021533Y5450179D01*
X3025292Y5452262D01*
X3029610Y5452618D01*
X3033623Y5451094D01*
X3044139Y5444439D01*
X3048660Y5442305D01*
X3048660Y5494629D01*
X3028188Y5494629D01*
X3024276Y5495391D01*
X3021025Y5497626D01*
X3018790Y5500928D01*
X3018028Y5504789D01*
X3018028Y5587187D01*
X3018790Y5591048D01*
X3021025Y5594350D01*
X3024276Y5596585D01*
X3028188Y5597347D01*
X3048660Y5597347D01*
X3048660Y5649671D01*
X3044139Y5647537D01*
X3033623Y5640832D01*
X3029610Y5639358D01*
X3025292Y5639714D01*
X3021533Y5641797D01*
X3018942Y5645200D01*
X3018028Y5649417D01*
X3018028Y5696559D01*
X3018942Y5700776D01*
X3021533Y5704179D01*
X3025292Y5706262D01*
X3029610Y5706618D01*
X3033623Y5705094D01*
X3044139Y5698439D01*
X3057347Y5692241D01*
X3071164Y5687720D01*
X3085490Y5685028D01*
X3099968Y5684113D01*
X3114497Y5685028D01*
X3128822Y5687720D01*
X3142640Y5692241D01*
X3155848Y5698439D01*
X3168091Y5706211D01*
X3179318Y5715508D01*
X3189274Y5726125D01*
X3197860Y5737910D01*
X3204870Y5750661D01*
X3209696Y5762904D01*
X3211880Y5766257D01*
X3215132Y5768492D01*
X3219043Y5769305D01*
X3222955Y5768543D01*
X3226308Y5766358D01*
X3228543Y5763056D01*
X3229305Y5759145D01*
X3229305Y3296107D01*
X3228543Y3292246D01*
X3226308Y3288944D01*
X3147009Y3209594D01*
X3143910Y3207512D01*
X3140252Y3206648D01*
X3136544Y3207156D01*
X3127400Y3210255D01*
X3113836Y3212998D01*
X3099968Y3213862D01*
X3086150Y3212998D01*
X3072587Y3210255D01*
X3059480Y3205835D01*
X3047034Y3199688D01*
X3035554Y3192018D01*
X3025140Y3182874D01*
X3015996Y3172460D01*
X3008274Y3160928D01*
X3002178Y3148533D01*
X2997708Y3135376D01*
X2995015Y3121812D01*
X2994101Y3107994D01*
X2995015Y3094177D01*
X2997708Y3080613D01*
X3002178Y3067456D01*
X3008274Y3055061D01*
X3015996Y3043529D01*
X3025140Y3033115D01*
X3035554Y3023971D01*
X3047034Y3016300D01*
X3059480Y3010154D01*
X3072587Y3005734D01*
X3086150Y3002991D01*
X3099968Y3002127D01*
X3113836Y3002991D01*
X3127400Y3005734D01*
X3140506Y3010154D01*
X3152952Y3016300D01*
X3164433Y3023971D01*
X3174847Y3033115D01*
X3183991Y3043529D01*
X3191713Y3055061D01*
X3197809Y3067456D01*
X3202279Y3080613D01*
X3204972Y3094177D01*
X3205886Y3107994D01*
X3204972Y3121812D01*
X3202279Y3135376D01*
X3199180Y3144570D01*
X3198622Y3148279D01*
X3199485Y3151936D01*
X3201619Y3154984D01*
X3257651Y3211068D01*
X3260953Y3213252D01*
X3264865Y3214014D01*
X3268726Y3213252D01*
X3272028Y3211068D01*
X3274212Y3207766D01*
X3275025Y3203854D01*
X3275025Y2579827D01*
X3274212Y2575915D01*
X3272028Y2572613D01*
X3147009Y2447594D01*
X3143910Y2445512D01*
X3140252Y2444648D01*
X3136544Y2445156D01*
X3127400Y2448255D01*
X3113836Y2450998D01*
X3099968Y2451862D01*
X3086150Y2450998D01*
X3072587Y2448255D01*
X3059480Y2443835D01*
X3047034Y2437688D01*
X3035554Y2430018D01*
X3025140Y2420874D01*
X3015996Y2410460D01*
X3008274Y2398928D01*
X3002178Y2386533D01*
X2997708Y2373376D01*
X2993898Y2354326D01*
X2991612Y2351227D01*
X2988360Y2349195D01*
G37*

%LPC*%
G36*
X3099968Y2494127D02*
G01*
X3113836Y2494991D01*
X3127400Y2497734D01*
X3140506Y2502154D01*
X3152952Y2508300D01*
X3164433Y2515971D01*
X3174847Y2525115D01*
X3183991Y2535529D01*
X3191713Y2547061D01*
X3197809Y2559456D01*
X3202279Y2572613D01*
X3204972Y2586177D01*
X3205886Y2599994D01*
X3204972Y2613812D01*
X3202279Y2627376D01*
X3197809Y2640533D01*
X3191713Y2652928D01*
X3183991Y2664460D01*
X3174847Y2674874D01*
X3164433Y2684018D01*
X3152952Y2691688D01*
X3140506Y2697835D01*
X3127400Y2702255D01*
X3113836Y2704998D01*
X3099968Y2705862D01*
X3086150Y2704998D01*
X3072587Y2702255D01*
X3059480Y2697835D01*
X3047034Y2691688D01*
X3035554Y2684018D01*
X3025140Y2674874D01*
X3015996Y2664460D01*
X3008274Y2652928D01*
X3002178Y2640533D01*
X2997708Y2627376D01*
X2995015Y2613812D01*
X2994101Y2599994D01*
X2995015Y2586177D01*
X2997708Y2572613D01*
X3002178Y2559456D01*
X3008274Y2547061D01*
X3015996Y2535529D01*
X3025140Y2525115D01*
X3035554Y2515971D01*
X3047034Y2508300D01*
X3059480Y2502154D01*
X3072587Y2497734D01*
X3086150Y2494991D01*
G37*
G36*
X3099968Y2748127D02*
G01*
X3113836Y2748991D01*
X3127400Y2751734D01*
X3140506Y2756154D01*
X3152952Y2762300D01*
X3164433Y2769971D01*
X3174847Y2779115D01*
X3183991Y2789529D01*
X3191713Y2801061D01*
X3197809Y2813456D01*
X3202279Y2826613D01*
X3204972Y2840177D01*
X3205886Y2853994D01*
X3204972Y2867812D01*
X3202279Y2881376D01*
X3197809Y2894533D01*
X3191713Y2906928D01*
X3183991Y2918460D01*
X3174847Y2928874D01*
X3164433Y2938018D01*
X3152952Y2945688D01*
X3140506Y2951835D01*
X3127400Y2956255D01*
X3113836Y2958998D01*
X3099968Y2959862D01*
X3086150Y2958998D01*
X3072587Y2956255D01*
X3059480Y2951835D01*
X3047034Y2945688D01*
X3035554Y2938018D01*
X3025140Y2928874D01*
X3015996Y2918460D01*
X3008274Y2906928D01*
X3002178Y2894533D01*
X2997708Y2881376D01*
X2995015Y2867812D01*
X2994101Y2853994D01*
X2995015Y2840177D01*
X2997708Y2826613D01*
X3002178Y2813456D01*
X3008274Y2801061D01*
X3015996Y2789529D01*
X3025140Y2779115D01*
X3035554Y2769971D01*
X3047034Y2762300D01*
X3059480Y2756154D01*
X3072587Y2751734D01*
X3086150Y2748991D01*
G37*
G36*
X3146348Y4029049D02*
G01*
X3152952Y4032300D01*
X3164433Y4039971D01*
X3174847Y4049115D01*
X3183991Y4059529D01*
X3191713Y4071061D01*
X3194964Y4077665D01*
X3146348Y4077665D01*
G37*
G36*
X3146348Y4170324D02*
G01*
X3194964Y4170324D01*
X3191713Y4176928D01*
X3183991Y4188460D01*
X3174847Y4198874D01*
X3164433Y4208018D01*
X3152952Y4215688D01*
X3146348Y4218940D01*
G37*
G36*
X3151327Y5442305D02*
G01*
X3155848Y5444439D01*
X3168091Y5452211D01*
X3179318Y5461508D01*
X3189274Y5472125D01*
X3197860Y5483910D01*
X3203752Y5494629D01*
X3151327Y5494629D01*
G37*
G36*
X3151327Y5597347D02*
G01*
X3203752Y5597347D01*
X3197860Y5608066D01*
X3189274Y5619851D01*
X3179318Y5630468D01*
X3168091Y5639765D01*
X3155848Y5647537D01*
X3151327Y5649671D01*
G37*

%LPD*%
D10*
X1471803Y4943096D02*
G01*
X1471803Y3795803D01*
X1037996Y3361997D01*
X499998Y7153988D02*
G01*
X499998Y7046064D01*
X499998Y5572991D02*
G01*
X372338Y5700651D01*
X372338Y6945378D01*
X473024Y7046064D01*
X499998Y7046064D01*
X499998Y3615997D02*
G01*
X613105Y3729103D01*
X613105Y5459884D01*
X499998Y5572991D01*
X3099993Y4123997D02*
G01*
X3221405Y4245409D01*
X3221405Y5424578D01*
X3099993Y5545990D01*
X2872993Y8280986D02*
G01*
X2872993Y8168083D01*
X3099993Y1583997D02*
G01*
X3221532Y1705536D01*
X3221532Y2123315D01*
X3140252Y2204595D01*
X3069920Y2204595D01*
X2926765Y2347749D01*
X2926765Y7376441D01*
X2999993Y7449670D01*
X2999993Y8069303D01*
X2901213Y8168083D01*
X2872993Y8168083D01*
X3099993Y2345997D02*
G01*
X3313607Y2559611D01*
X3313607Y8094372D01*
X3126993Y8280986D01*
X2872993Y7772986D02*
G01*
X2872993Y8026986D01*
X2561996Y1837997D02*
G01*
X2732049Y2008050D01*
X2732049Y7632067D01*
X2732074Y7632067D01*
X2872993Y7772986D01*
X3126993Y7772986D02*
G01*
X3126993Y8026986D01*
X3099993Y3107997D02*
G01*
X3267913Y3275916D01*
X3267913Y7632067D01*
X3126993Y7772986D01*
X3099993Y2091997D02*
G01*
X2872993Y2318997D01*
X2872993Y7518986D01*
X3099993Y3361997D02*
G01*
X2979420Y3482571D01*
X2979420Y7371412D01*
X3126993Y7518986D01*
D11*
X2561996Y1075997D02*
G01*
X2432380Y1205613D01*
X2432380Y6271414D01*
X2209800Y6493995D01*
X1915007Y6999988D02*
G01*
X1915007Y6499989D01*
D10*
X1037996Y1075997D02*
G01*
X884885Y1229108D01*
X884885Y2096010D01*
X1007871Y2218997D01*
X1079398Y2218997D01*
X1142288Y2281887D01*
X1142288Y2897710D01*
X1059002Y2980997D01*
X999312Y2980997D01*
X925779Y3054530D01*
X925779Y3409520D01*
X1005255Y3488997D01*
X1060373Y3488997D01*
X1272997Y3701620D01*
X1272997Y7745961D01*
X2072995Y7772986D02*
G01*
X2199995Y7645986D01*
X2199995Y6918911D01*
X2055012Y6773928D01*
X2055012Y2601013D01*
X1037996Y1583997D01*
X2561996Y821997D02*
G01*
X2102713Y1281280D01*
X2102713Y6595772D01*
X2450287Y6943346D01*
X2450287Y7649695D01*
X2326995Y7772986D01*
X1037996Y1837997D02*
G01*
X1645157Y2445158D01*
X1645157Y7091149D01*
X2072995Y7518986D01*
X499998Y2345997D02*
G01*
X387730Y2458265D01*
X387730Y2645006D01*
X469722Y2726997D01*
X543382Y2726997D01*
X659739Y2843354D01*
X659739Y6740248D01*
X499998Y6899988D01*
X1037996Y2091997D02*
G01*
X1545310Y2599311D01*
X1545310Y7727647D01*
X1526997Y7745961D01*
X700531Y6999988D02*
G01*
X700531Y2800530D01*
X499998Y2599997D01*
X472998Y7999961D02*
G01*
X599998Y7872961D01*
X599998Y7284976D01*
X700531Y7184443D01*
X700531Y6999988D01*
X884986Y6999988D02*
G01*
X700531Y6999988D01*
X884986Y6499989D02*
G01*
X884986Y3007006D01*
X1037996Y2853997D01*
X499998Y3107997D02*
G01*
X319531Y3288464D01*
X319531Y8013600D01*
X446836Y8140905D01*
X613943Y8140905D01*
X726998Y8253961D01*
X499998Y821997D02*
G01*
X499998Y929921D01*
X1037996Y1329997D02*
G01*
X929360Y1438633D01*
X929360Y1880948D01*
X1013409Y1964997D01*
X1058494Y1964997D01*
X1604390Y2510894D01*
X1604390Y7558382D01*
X2072995Y8026986D01*
X499998Y929921D02*
G01*
X526973Y929921D01*
X746632Y1149581D01*
X746632Y6528513D01*
X1132078Y6913958D01*
X1132078Y7859041D01*
X1272997Y7999961D01*
D12*
G01*
X2872993Y8280984D03*
D13*
G01*
X3126993Y8280984D03*
G01*
X2872993Y8026984D03*
G01*
X3126993Y8026984D03*
G01*
X2872993Y7772984D03*
G01*
X3126993Y7772984D03*
G01*
X2872993Y7518984D03*
G01*
X3126993Y7518984D03*
D12*
G01*
X2072995Y8280984D03*
D13*
G01*
X2326995Y8280984D03*
G01*
X2072995Y8026984D03*
G01*
X2326995Y8026984D03*
G01*
X2072995Y7772984D03*
G01*
X2326995Y7772984D03*
G01*
X2072995Y7518984D03*
G01*
X2326995Y7518984D03*
D14*
G01*
X499998Y7153986D03*
D15*
G01*
X499998Y6899986D03*
G01*
X499998Y6645986D03*
D12*
G01*
X499998Y5318988D03*
D13*
G01*
X499998Y5572988D03*
G01*
X499998Y5826988D03*
G01*
X499998Y6080988D03*
D14*
G01*
X3099993Y821994D03*
D15*
G01*
X3099993Y1075994D03*
G01*
X3099993Y1329994D03*
G01*
X3099993Y1583994D03*
G01*
X3099993Y1837994D03*
G01*
X3099993Y2091994D03*
G01*
X3099993Y2345994D03*
G01*
X3099993Y2599994D03*
G01*
X3099993Y2853994D03*
G01*
X3099993Y3107994D03*
G01*
X3099993Y3361994D03*
G01*
X3099993Y3615994D03*
G01*
X3099993Y3869994D03*
G01*
X3099993Y4123994D03*
G01*
X3099993Y4377994D03*
D14*
G01*
X499998Y821994D03*
D15*
G01*
X499998Y1075994D03*
G01*
X499998Y1329994D03*
G01*
X499998Y1583994D03*
G01*
X499998Y1837994D03*
G01*
X499998Y2091994D03*
G01*
X499998Y2345994D03*
G01*
X499998Y2599994D03*
G01*
X499998Y2853994D03*
G01*
X499998Y3107994D03*
G01*
X499998Y3361994D03*
G01*
X499998Y3615994D03*
G01*
X499998Y3869994D03*
G01*
X499998Y4123994D03*
G01*
X499998Y4377994D03*
D12*
G01*
X1272997Y8253984D03*
D13*
G01*
X1526997Y8253958D03*
G01*
X1272997Y7999958D03*
G01*
X1526997Y7999958D03*
G01*
X1272997Y7745958D03*
G01*
X1526997Y7745958D03*
D12*
G01*
X472998Y8253984D03*
D13*
G01*
X726998Y8253958D03*
G01*
X472998Y7999958D03*
G01*
X726998Y7999958D03*
G01*
X472998Y7745958D03*
G01*
X726998Y7745958D03*
D16*
G01*
X2209800Y5444007D03*
G01*
X2209800Y6493992D03*
D17*
G01*
X1915007Y6999986D03*
G01*
X884986Y6999986D03*
G01*
X1915007Y6499987D03*
G01*
X884986Y6499987D03*
G01*
X2561996Y821994D03*
G01*
X2561996Y1075994D03*
G01*
X2561996Y1329994D03*
G01*
X2561996Y1583994D03*
G01*
X2561996Y1837994D03*
G01*
X2561996Y2091994D03*
G01*
X2561996Y2345994D03*
G01*
X2561996Y2599994D03*
G01*
X2561996Y2853994D03*
G01*
X2561996Y3107994D03*
G01*
X2561996Y3361994D03*
G01*
X2561996Y3615994D03*
G01*
X2561996Y3869994D03*
G01*
X2561996Y4123994D03*
G01*
X2561996Y4377994D03*
G01*
X1037996Y4377994D03*
G01*
X1037996Y4123994D03*
G01*
X1037996Y3869994D03*
G01*
X1037996Y3615994D03*
G01*
X1037996Y3361994D03*
G01*
X1037996Y3107994D03*
G01*
X1037996Y2853994D03*
G01*
X1037996Y2599994D03*
G01*
X1037996Y2345994D03*
G01*
X1037996Y2091994D03*
G01*
X1037996Y1837994D03*
G01*
X1037996Y1583994D03*
G01*
X1037996Y1329994D03*
G01*
X1037996Y1075994D03*
G01*
X1037996Y821994D03*
D18*
G01*
X3099993Y5545988D03*
G01*
X3099993Y5799988D03*
D19*
G01*
X3099993Y6053988D03*
D20*
G01*
X1471803Y4943094D03*
M02*
