G04 Layer: TopSolderMaskLayer*
G04 EasyEDA v6.5.39, 2024-01-29 12:40:10*
G04 1567c4b6a1884de9a48abf35515e7f19,8c112253a0c947cbb1dd5c82d68696a1,10*
G04 Gerber Generator version 0.2*
G04 Scale: 100 percent, Rotated: No, Reflected: No *
G04 Dimensions in millimeters *
G04 leading zeros omitted , absolute positions ,4 integer and 5 decimal *
%FSLAX45Y45*%
%MOMM*%

%AMMACRO1*1,1,$1,$2,$3*1,1,$1,$4,$5*1,1,$1,0-$2,0-$3*1,1,$1,0-$4,0-$5*20,1,$1,$2,$3,$4,$5,0*20,1,$1,$4,$5,0-$2,0-$3,0*20,1,$1,0-$2,0-$3,0-$4,0-$5,0*20,1,$1,0-$4,0-$5,$2,$3,0*4,1,4,$2,$3,$4,$5,0-$2,0-$3,0-$4,0-$5,$2,$3,0*%
%ADD10MACRO1,0.1016X0.8499X0.8499X0.8499X-0.8499*%
%ADD11C,1.8016*%
%ADD12R,1.7016X1.7016*%
%ADD13C,1.7016*%
%ADD14R,1.8016X1.8016*%
%ADD15R,1.7000X1.7000*%
%ADD16C,1.7000*%
%ADD17C,1.5016*%
%ADD18C,1.6256*%
%ADD19C,1.9016*%
%ADD20MACRO1,0.1016X0.9X0.9X0.9X-0.9*%

%LPD*%
D10*
G01*
X2872994Y8280984D03*
D11*
G01*
X3126993Y8280984D03*
G01*
X2872993Y8026984D03*
G01*
X3126993Y8026984D03*
G01*
X2872993Y7772984D03*
G01*
X3126993Y7772984D03*
G01*
X2872993Y7518984D03*
G01*
X3126993Y7518984D03*
D10*
G01*
X2072995Y8280984D03*
D11*
G01*
X2326995Y8280984D03*
G01*
X2072995Y8026984D03*
G01*
X2326995Y8026984D03*
G01*
X2072995Y7772984D03*
G01*
X2326995Y7772984D03*
G01*
X2072995Y7518984D03*
G01*
X2326995Y7518984D03*
D12*
G01*
X499998Y7153986D03*
D13*
G01*
X499998Y6899986D03*
G01*
X499998Y6645986D03*
D14*
G01*
X499998Y5318988D03*
D11*
G01*
X499998Y5572988D03*
G01*
X499998Y5826988D03*
G01*
X499998Y6080988D03*
D15*
G01*
X3099993Y821994D03*
D16*
G01*
X3099993Y1075994D03*
G01*
X3099993Y1329994D03*
G01*
X3099993Y1583994D03*
G01*
X3099993Y1837994D03*
G01*
X3099993Y2091994D03*
G01*
X3099993Y2345994D03*
G01*
X3099993Y2599994D03*
G01*
X3099993Y2853994D03*
G01*
X3099993Y3107994D03*
G01*
X3099993Y3361994D03*
G01*
X3099993Y3615994D03*
G01*
X3099993Y3869994D03*
G01*
X3099993Y4123994D03*
G01*
X3099993Y4377994D03*
D15*
G01*
X499998Y821994D03*
D16*
G01*
X499998Y1075994D03*
G01*
X499998Y1329994D03*
G01*
X499998Y1583994D03*
G01*
X499998Y1837994D03*
G01*
X499998Y2091994D03*
G01*
X499998Y2345994D03*
G01*
X499998Y2599994D03*
G01*
X499998Y2853994D03*
G01*
X499998Y3107994D03*
G01*
X499998Y3361994D03*
G01*
X499998Y3615994D03*
G01*
X499998Y3869994D03*
G01*
X499998Y4123994D03*
G01*
X499998Y4377994D03*
D10*
G01*
X1272997Y8253984D03*
D11*
G01*
X1526997Y8253958D03*
G01*
X1272997Y7999958D03*
G01*
X1526997Y7999958D03*
G01*
X1272997Y7745958D03*
G01*
X1526997Y7745958D03*
D10*
G01*
X472998Y8253984D03*
D11*
G01*
X726998Y8253958D03*
G01*
X472998Y7999958D03*
G01*
X726998Y7999958D03*
G01*
X472998Y7745958D03*
G01*
X726998Y7745958D03*
D17*
G01*
X2209800Y5444007D03*
G01*
X2209800Y6493992D03*
D18*
G01*
X1915007Y6999986D03*
G01*
X884986Y6999986D03*
G01*
X1915007Y6499987D03*
G01*
X884986Y6499987D03*
G01*
X2561996Y821994D03*
G01*
X2561996Y1075994D03*
G01*
X2561996Y1329994D03*
G01*
X2561996Y1583994D03*
G01*
X2561996Y1837994D03*
G01*
X2561996Y2091994D03*
G01*
X2561996Y2345994D03*
G01*
X2561996Y2599994D03*
G01*
X2561996Y2853994D03*
G01*
X2561996Y3107994D03*
G01*
X2561996Y3361994D03*
G01*
X2561996Y3615994D03*
G01*
X2561996Y3869994D03*
G01*
X2561996Y4123994D03*
G01*
X2561996Y4377994D03*
G01*
X1037996Y4377994D03*
G01*
X1037996Y4123994D03*
G01*
X1037996Y3869994D03*
G01*
X1037996Y3615994D03*
G01*
X1037996Y3361994D03*
G01*
X1037996Y3107994D03*
G01*
X1037996Y2853994D03*
G01*
X1037996Y2599994D03*
G01*
X1037996Y2345994D03*
G01*
X1037996Y2091994D03*
G01*
X1037996Y1837994D03*
G01*
X1037996Y1583994D03*
G01*
X1037996Y1329994D03*
G01*
X1037996Y1075994D03*
G01*
X1037996Y821994D03*
D19*
G01*
X3099993Y5545988D03*
G01*
X3099993Y5799988D03*
D20*
G01*
X3099993Y6053988D03*
M02*
